<svg xmlns="http://www.w3.org/2000/svg" viewBox="0 0 227.23 384.66"><defs><style>.cls-1{fill:none}.cls-2{fill:#ff0097}.cls-3{fill:#ca00b3}.cls-4{fill:#950047}.cls-5{fill:#9fc500}.cls-6{fill:#4e0000}.cls-7{fill:#fff}.cls-8{fill:#b3b3b3}.cls-9{fill:#26dce1}.cls-10{clip-path:url(#clip-path)}.cls-11{fill:#ff79b1}.cls-12{clip-path:url(#clip-path-2)}.cls-13{fill:#ffe626}.cls-14{fill:#3dcdf0}.cls-15{fill:#ff3042}.cls-16{fill:#260a17}.cls-17{fill:#b10000}</style><clipPath id="clip-path"><path class="cls-1" transform="rotate(-80.78 156.421 64.279)" d="M107.76 15.63h97.3v97.3h-97.3z"/></clipPath><clipPath id="clip-path-2"><path class="cls-1" transform="rotate(-80.81 157.225 68.373)" d="M112.55 18.23h89.36V118.5h-89.36z"/></clipPath></defs><title>bunny-shking-it2x</title><g id="Layer_2" data-name="Layer 2"><g id="Layer_1-2" data-name="Layer 1"><path class="cls-2" d="M135.75 302c10.51 1.31 26-1.06 39.63-13.4 2.1-1.91 6.12-5.39 4.2-9.86-1.13-2.62-3.53-4.87-5.54-2.85-.63.63-1.28 1.23-1.93 1.85-.35-1-1.2-2.09-1.84-2.22-1.52-.26-2 5.42-2.71 6.13-4.6 9.15-25 11.06-31.73 10z"/><path class="cls-2" d="M143 293.56a55.29 55.29 0 0 0 26.71-47.14c0-30.71-25.38-50-56.68-50s-56.68 19.28-56.68 50a55.3 55.3 0 0 0 26.46 47c-8.37 6.5-17.64 19.15-18.55 37.49-.14 2.84-.52 8.13 4 9.95 2.65 1.06 5.93.95 5.93-1.89 0-.89 0-1.78.06-2.67a3.8 3.8 0 0 0 2.87.27c1.26-.89-2.4-5.27-2.42-6.26-3.22-9.73 9.85-25.49 15.4-29.48 0 0 .13 62.53.19 62.87-5.29.24-18.17 1.57-17.23 9 0 0 .87 3.49 4.06 4.35 0 0-3.77 2.62-1.16 4.65 0 0 3.78 3.77 11.91-1.17l10.75-4.93s4.36-1.74 3.78-8.43v-15.86a11.13 11.13 0 0 1 22-.67v16.5c-.58 6.68 3.77 8.43 3.77 8.43L139 380.5c8.13 4.94 11.9 1.17 11.9 1.17 2.62-2-1.16-4.65-1.16-4.65 3.19-.86 4.07-4.35 4.07-4.35.92-7.39-11.94-8.73-17.24-9 .06-.35.2-62.63.2-62.63 1.08-5.11 6.23-7.48 6.23-7.48z"/><path class="cls-3" d="M136.1 303.07a47.88 47.88 0 0 0 38.55-13l-8-8s-16.08 11.69-29.78 9zM128.88 195.67s3.65-7.64 5-8.11a25.77 25.77 0 0 1-3.38 10.86zM123 199.53s-.56-8.67.85-13.16c0 0 2.74 7.15 2.75 12.36zM118.25 200.36s-.56-8.67.85-13.17c0 0 2.74 7.16 2.75 12.36zM104.77 198.77s-.82-8.62.45-13.22c0 0 3 6.93 3.12 12.13zM87.57 200.55s-.82-8.62.45-13.22c0 0 3 6.93 3.12 12.13z"/><path class="cls-3" d="M91.18 201s-.82-8.62.45-13.21c0 0 3 6.93 3.12 12.13zM104.36 198.46s-3.08-7.16-3.19-12.2c0 0 4.54 4.14 6.1 8.69z"/><path class="cls-3" d="M102.58 201.24s-3.08-7.16-3.19-12.2c0 0 4.54 4.14 6.1 8.69zM96.61 203s-3.08-7.16-3.18-12.2c0 0 4.54 4.14 6.1 8.69zM125.78 197.29S129 189.2 131.7 186c0 0-.11 8.05-1.93 11.67zM108.14 197.25s-1.66-8.55-1.09-12.67c0 0 4.26 6.83 4.69 10.86z"/><path class="cls-3" d="M96.56 201.84s-2-8.07-1.47-13c0 0 3.87 5.63 4.78 10.62zM114.52 198.16s1-8.57 3.14-12.23c0 0 1.36 8.12.45 13.11z"/><path class="cls-3" d="M97.2 198.58s-.79-8.62.49-13.21c0 0 2.93 7 3.08 12.15zM65 256.23s-8.28 2.54-13 2.21c0 0 6.2-4.29 11.26-5.49zM62.25 243.54s-6.4 4.46-11.31 5.57c0 0 3.14-5.28 7.29-7.72z"/><path class="cls-3" d="M63 245s-6.4 4.46-11.31 5.57c0 0 3.14-5.28 7.29-7.72zM65.9 250.5s-6.4 4.46-11.31 5.57c0 0 3.14-5.27 7.29-7.72z"/><path class="cls-3" d="M64.75 250.79s-7.5 3.62-12.46 4.06c0 0 4.74-4.93 9.45-6.82z"/><path class="cls-3" d="M61.42 250.83s-8.29 2.51-13 2.17c0 0 6.22-4.27 11.29-5.46zM68.34 267.83s-7.88 3.58-12.64 3.87c0 0 5.59-5 10.46-6.9zM73.48 275.06s-6.56 5.65-11 7.27c0 0 4-6.42 8.1-9.55z"/><path class="cls-3" d="M69.11 269.3s-6.56 5.65-11 7.27c0 0 4-6.42 8.1-9.55zM78.45 282.21s-6.56 5.65-11 7.27c0 0 3.95-6.42 8.1-9.55zM64 255.59s-5.77 5.24-10.5 7c0 0 2.44-5.64 6.24-8.59z"/><path class="cls-3" d="M64.89 257s-5.77 5.24-10.5 7c0 0 2.44-5.64 6.24-8.59zM68.52 262s-5.77 5.24-10.5 7c0 0 2.44-5.64 6.24-8.6z"/><path class="cls-3" d="M67.42 262.46s-7 4.55-11.84 5.62c0 0 4.06-5.49 8.49-8z"/><path class="cls-3" d="M64.12 262.92s-7.9 3.55-12.65 3.83c0 0 5.62-5 10.49-6.87zM72.27 275.84s-7.9 3.56-12.66 3.83c0 0 5.62-5 10.49-6.87zM84 285.42s-7.15 4.89-11.78 6c0 0 4.65-5.94 9.12-8.61zM62.22 240.66s-7.83-3.7-11.13-7.14c0 0 7.48 1 12 3.52zM63.68 231.28s-8.66.23-13.15-1.36c0 0 7.13-2.47 12.33-2.28z"/><path class="cls-3" d="M64.47 261.69s-8.66.23-13.15-1.36c0 0 7.13-2.47 12.33-2.28zM71.55 272.24s-7.46 4.4-12.16 5.19c0 0 5-5.62 9.68-8zM76.91 280s-7.46 4.39-12.16 5.19c0 0 5-5.62 9.68-8zM68.37 269.06s-7.46 4.4-12.16 5.19c0 0 5-5.62 9.68-8zM83.4 284.26s-4.83 7.19-8.72 9.94c0 0 2.11-7.24 5.28-11.38zM81.81 279.69s-4.83 7.19-8.72 9.94c0 0 2.11-7.24 5.28-11.37z"/><path class="cls-3" d="M85.79 285.46s-4.83 7.19-8.72 9.94c0 0 2.11-7.24 5.28-11.38zM79.23 280.89s-4.83 7.19-8.72 9.94c0 0 2.11-7.24 5.28-11.38z"/><path class="cls-3" d="M76.94 278.77s-5.88 6.35-10.15 8.47c0 0 3.21-6.83 7-10.42zM74 276.18s-5.88 6.36-10.15 8.47c0 0 3.21-6.83 7-10.42zM63.48 236.11s-8.45-1.89-12.42-4.52c0 0 7.52-.65 12.52.8zM62.68 250.42s-8.45-1.89-12.42-4.52c0 0 7.52-.66 12.52.8zM87.22 205.44s-4.66-7.3-5.62-12c0 0 5.79 4.84 8.31 9.39zM126.14 198.34s-.8-8.62.49-13.21c0 0 2.93 7 3.08 12.16zM119 195.6s1-8.57 3.14-12.23c0 0 1.36 8.12.46 13.11zM107.73 195.6s1-8.57 3.14-12.23c0 0 1.37 8.12.45 13.11z"/><path class="cls-3" d="M110 198.07s1-8.57 3.14-12.22c0 0 1.36 8.12.45 13.11z"/><path class="cls-3" d="M112.6 195.33s1-8.57 3.14-12.23c0 0 1.36 8.12.46 13.11zM79.4 203.15s1.39-6 4.2-7.42c0 0 1.65 7.11.42 10.38z"/><path class="cls-3" d="M80.53 207.12s-6-6.29-7.8-10.64c0 0 6.7 3.73 10 7.71zM78.51 212.63s-6-6.29-7.8-10.64c0 0 6.69 3.73 10 7.71zM67.15 220.07S61 214 59 209.65c0 0 6.71 3.42 10.18 7.3zM63 229.65s-8.42-2-12.35-4.72c0 0 7.51-.54 12.49 1z"/><path class="cls-3" d="M66.6 220.36s-7-3.51-10.27-7.31c0 0 6.13.26 10.26 2.75z"/><path class="cls-3" d="M67.06 223.37s-7-3.52-10.27-7.31c0 0 6.14.26 10.26 2.75zM63.64 228.57s-7-3.51-10.27-7.31c0 0 6.13.26 10.26 2.75zM78.34 202.27s-.73-7.07 1.08-9.7c0 0 3.54 7.23 3.56 11.28z"/><path class="cls-3" d="M62.83 227.7s-6.75-4.88-9.49-9c0 0 6.58 1.83 10.49 5.07zM63.13 242.34s-8.34 2.32-13.09 1.88c0 0 6.3-4.13 11.39-5.2z"/><path class="cls-3" d="M63.18 241.07s-7.79.32-12.53-1.39c0 0 5.49-2.76 10.3-2.59z"/><path class="cls-3" d="M62.05 240.7s-8.27-1-12.69-3.28c0 0 6.64-1.6 11.63-.67zM158.22 221.48s3.13-7.14 6.73-10.66c0 0 .08 6.14-2.18 10.39zM149.4 211.46s5.46-5.56 10.08-7.57c0 0-2.11 5.77-5.73 8.94zM128 200s4.09-6.64 8.14-9.62c0 0-.77 6.09-3.6 10z"/><path class="cls-3" d="M156.84 220.59s3.13-7.14 6.73-10.66c0 0 .08 6.14-2.18 10.4zM145.58 208.27s5.42-5.6 10-7.65c0 0-2.06 5.78-5.66 9zM152.49 215s4.5-7 8.5-10c0 0-1.46 6.67-4.49 10.75z"/><path class="cls-3" d="M155.11 214.84s5.76-6.47 10-8.67c0 0-3.08 6.89-6.77 10.55z"/><path class="cls-3" d="M154.25 215.84s8.19-2.8 13-2.63c0 0-6.07 4.49-11.09 5.86zM158.09 223s5.9-6.34 10.18-8.44c0 0-3.22 6.81-7 10.39z"/><path class="cls-3" d="M158.71 224.08s6.48-4.34 11.41-5.37c0 0-3.24 5.22-7.43 7.59z"/><path class="cls-3" d="M159.87 223.8s7.56-3.48 12.53-3.83c0 0-4.82 4.84-9.57 6.65zM140.73 205.64s1.15-7.71 3.7-12.05c0 0 1.69 5.9.62 10.6z"/><path class="cls-3" d="M139.17 205.15s1.15-7.71 3.7-12c0 0 1.68 5.91.62 10.6zM133.74 202.49s2.5-7.94 5.59-11.85c0 0 .34 6.82-1.51 11.55z"/><path class="cls-3" d="M136 200.05s3.86-7.75 7.36-11c0 0-1.16 7.45-3.76 12z"/><path class="cls-3" d="M135.43 201.24s7.17-4.85 11.81-5.94c0 0-4.68 5.92-9.16 8.56z"/><path class="cls-3" d="M131.27 202.4s3.06-8.1 6.22-11.67c0 0-.4 7.54-2.54 12.28zM142.1 203.46s4-7.66 7.61-10.82c0 0-1.32 7.42-4 11.86z"/><path class="cls-3" d="M141.9 204.84s5.11-5.89 9.6-8.17c0 0-1.75 5.88-5.18 9.27z"/><path class="cls-3" d="M143.14 205.86s6.38-5.35 11.09-7c0 0-3.39 5.93-7.49 8.93zM157.07 269s7.6 1.75 11.72 4.65c0 0-6 1.21-10.62-.22z"/><path class="cls-3" d="M157.69 267.45s7.6 1.76 11.72 4.65c0 0-6 1.21-10.62-.23zM160.76 260.88s7.71 3.13 11.37 6.52c0 0-6.83-.21-11.39-2.42z"/><path class="cls-3" d="M160.82 263s7.42 4.46 10.36 8.21c0 0-7.34-1.75-11.63-4.7z"/><path class="cls-3" d="M161.88 264s4.27 7.53 5 12.24c0 0-5.53-5.14-7.81-9.81zM155.58 269.12s7.32 4.62 10.18 8.44c0 0-7.29-1.9-11.5-5z"/><path class="cls-3" d="M154.6 269.94s5.46 5.56 7.38 10.22c0 0-5.73-2.22-8.83-5.9z"/><path class="cls-3" d="M155.09 271s4.82 6.79 6.08 11.61c0 0-5.65-3.85-8.3-8.17zM147 277.67s6.42 4.42 9.19 8.62c0 0-6-1.08-9.79-4.1z"/><path class="cls-3" d="M148.09 276.48s6.42 4.42 9.19 8.62c0 0-6-1.08-9.79-4.1zM152.86 272.77s6 5.74 8.18 10.23c0 0-6.28-2.7-9.71-6.44z"/><path class="cls-3" d="M154.06 275.88s5.27 6.87 6.63 11.44c0 0-6.19-4.32-9.09-8.64zM148.49 279.25s5.27 6.87 6.63 11.44c0 0-6.19-4.32-9.09-8.64zM162.17 258s7.53 4.27 10.57 7.95c0 0-7.38-1.56-11.74-4.41zM163.73 252s8.17 2.89 11.8 6c0 0-7.54-.25-12.33-2.29z"/><path class="cls-3" d="M163.06 256.94s8.17 2.89 11.8 6c0 0-7.54-.25-12.33-2.28zM148.14 209.24s6.2-6 10.58-7.93c0 0-3.56 6.65-7.51 10zM153.24 274.84s1.2 8.58.14 13.22c0 0-3.26-6.81-3.66-12zM145.51 277.27s5.11 7 6.37 11.59c0 0-6.08-4.44-8.88-8.83z"/><path class="cls-3" d="M144.31 277.66s3 7.18 3.12 12.22c0 0-4.52-4.16-6.05-8.73z"/><path class="cls-3" d="M144.35 278.85s2 8.08 1.39 13c0 0-3.84-5.65-4.72-10.65zM160.22 253s8.28 2.54 13 2.21c0 0-6.2-4.29-11.26-5.49zM162.94 242.05s6.4 4.46 11.31 5.57c0 0-3.14-5.28-7.29-7.72z"/><path class="cls-3" d="M162.24 243.53s6.4 4.46 11.31 5.57c0 0-3.14-5.28-7.29-7.72zM160.44 249.3s7.5 3.62 12.46 4.05c0 0-4.74-4.92-9.45-6.82z"/><path class="cls-3" d="M163.77 249.34s8.29 2.51 13 2.17c0 0-6.23-4.27-11.29-5.46zM163 239.17s7.83-3.7 11.13-7.14c0 0-7.48 1-12 3.52zM161.51 229.79s8.66.23 13.15-1.36c0 0-7.13-2.47-12.33-2.28zM162.88 245.14s8.66.23 13.15-1.36c0 0-7.13-2.47-12.33-2.28zM160.72 260.2s8.66.23 13.15-1.35c0 0-7.13-2.47-12.33-2.28zM161.71 234.63s8.45-1.89 12.42-4.53c0 0-7.52-.65-12.52.8z"/><path class="cls-3" d="M162.51 248.93s8.45-1.89 12.42-4.52c0 0-7.52-.65-12.52.8zM162.22 228.17s8.41-2 12.35-4.72c0 0-7.52-.54-12.49 1zM164.53 240.58s8.34 2.32 13.09 1.88c0 0-6.31-4.13-11.39-5.2z"/><path class="cls-3" d="M162 239.58s7.79.31 12.53-1.39c0 0-5.49-2.76-10.3-2.59z"/><path class="cls-3" d="M163.14 239.21s8.27-1 12.69-3.28c0 0-6.64-1.61-11.63-.67zM74.24 213.34s-4.74-7.2-5.45-11.34c0 0 6.26 5.35 8.77 9.76zM61.23 224.78s-6.15-6.1-8.11-10.44c0 0 6.71 3.45 10.17 7.34zM83.62 203.76s-6.15-6.1-8.11-10.44c0 0 6.71 3.45 10.17 7.34zM75 206.65s-4.74-7.21-5.44-11.39c0 0 6.26 5.35 8.77 9.76zM67.39 215.74s-4.74-7.2-5.44-11.39c0 0 6.26 5.35 8.77 9.76zM88.65 202.63s-4.74-7.21-5.44-11.39c0 0 6.26 5.35 8.77 9.76z"/><path class="cls-3" d="M70.75 216.14s-4.74-7.21-5.44-11.39c0 0 6.26 5.35 8.77 9.77z"/><path class="cls-3" d="M69.42 219s-6.17-6-7.76-10c0 0 7.26 3.88 10.66 7.65zM70.94 212.41S66.21 205.2 65.5 201c0 0 6.26 5.35 8.77 9.76zM144.92 293.45c12.34-8.66-73.89-6.46-63-.52a47.88 47.88 0 0 0-18.12 36.43h11.37s3.1-19.64 14.73-27.39l-.26 60.2s1.29 3.1 7.49 3.1c0 0 4.13 0 5.68-2.84l.26-8.53s-.24-10.33 10.08-10.83c10.32.5 10.08 10.83 10.08 10.83l.26 8.53c1.55 2.84 6.46 3.1 6.46 3.1 6.72 0 7.49-3.36 7.49-3.36l-.26-60.2c4.4-5.1 7.74-8.52 7.74-8.52z"/><path class="cls-3" d="M110.72 290.8h4.9v.77h-4.9z"/><path class="cls-3" d="M170.29 247c0 30.28-25.64 54.82-57.27 54.82S55.74 277.28 55.74 247s21.64-53.1 57.26-53.1c34.66 0 57.29 22.83 57.29 53.1zM91.48 360.8s-29.61 3.9-17.57 16.27c0 0-1 12.36 14 5.53a50.5 50.5 0 0 0 5.53-2.28c2.42-1.21 4.27-2.63 6.51-3.9 0 0 6.18-2.93 2.93-15zM135.08 360.8s29.61 3.9 17.57 16.27c0 0 1 12.36-14 5.53a50.55 50.55 0 0 1-5.53-2.28c-2.42-1.21-4.27-2.63-6.51-3.9 0 0-6.18-2.93-2.93-15z"/><path class="cls-3" d="M117.21 294.82s1.95 8.43 1.29 13.16c0 0-3.84-6.48-4.69-11.62zM105.18 294.45s4 6.7 4.76 11.67c0 0-5-3.51-7.19-7.82z"/><path class="cls-3" d="M107 293.3s4 6.69 4.76 11.67c0 0-5-3.51-7.19-7.82zM113.13 294.11s3.08 7.73 3.17 12.71c0 0-4.58-5.07-6.14-9.9z"/><path class="cls-3" d="M112.66 295.24s1.92 8.44 1.25 13.16c0 0-3.82-6.51-4.65-11.65zM119.23 295.23s1.77 7.59 1 12.57c0 0-3.74-4.87-4.48-9.63z"/><path class="cls-3" d="M124 295.15s-.38 8.65-2.28 13c0 0-2-7.28-1.41-12.46zM112.62 296.15s-2.48 8.29-5.39 12.07c0 0-.13-7.55 1.68-12.43zM104.59 295.13s1.73 8.48 1 13.19c0 0-3.67-6.58-4.39-11.73z"/><path class="cls-3" d="M103.32 295s-.24 7.79-2.26 12.4c0 0-2.37-5.67-1.86-10.46z"/><path class="cls-3" d="M101.92 292.09s-2.33 8.34-5.16 12.17c0 0-.27-7.53 1.44-12.44zM89.76 287.54s.3 7.79-1.41 12.53c0 0-2.75-5.49-2.57-10.3z"/><path class="cls-3" d="M86.47 286.44s.3 7.79-1.41 12.53c0 0-2.75-5.49-2.57-10.3zM91.39 287.74s.3 7.79-1.41 12.53c0 0-2.75-5.49-2.57-10.31zM97.49 292.08s-1 8.27-3.3 12.68c0 0-1.59-6.64-.65-11.63z"/><path class="cls-3" d="M95.45 292.16s-2.35 8.33-5.2 12.15c0 0-.24-7.54 1.49-12.45zM100.86 292.56s1.3 7.69.22 12.6c0 0-3.43-5.09-3.88-9.89z"/><path class="cls-3" d="M106.24 295.45s-4.47 7.42-8.23 10.35c0 0 1.76-7.33 4.73-11.62zM93.05 293.08s-6.15 6.1-10.51 8c0 0 3.5-6.69 7.42-10.11zM86.76 286.7s-2.54 8.28-5.47 12c0 0-.08-7.53 1.76-12.4z"/><path class="cls-3" d="M88.18 285.42s-3.93 6.73-7.92 9.8c0 0 .63-6.11 3.37-10.07zM142.48 283.36s5.69 6.52 7.34 11c0 0-6.44-3.91-9.61-8zM132 291s6.68 4 9.7 8c0 0-6.1-.71-10-3.5z"/><path class="cls-3" d="M136.43 288.33s5.16 5.84 6.83 10.59c0 0-5.6-2.52-8.51-6.36zM139.8 286.06s6.37 5.37 8.79 9.72c0 0-6.43-2.31-10.08-5.84z"/><path class="cls-3" d="M139 287.72s5.67 6.54 7.31 11c0 0-6.44-3.94-9.59-8.08zM142.29 284.51s7.14 3.13 10.65 6.74c0 0-6.14.07-10.39-2.19z"/><path class="cls-3" d="M147.66 281.6s3.74 7.81 4.13 12.56c0 0-5.17-5.5-7.12-10.33zM138.11 287.83s1.72 8.48.94 13.19c0 0-3.67-6.6-4.38-11.75zM130.55 290.72s5.53 6.67 7.06 11.18c0 0-6.34-4.07-9.4-8.28z"/><path class="cls-3" d="M129.37 291.19s3.47 7 3.85 12c0 0-4.76-3.88-6.57-8.34z"/><path class="cls-3" d="M127.16 292.56s3.84 7.74 4.37 12.44c0 0-5.27-5.4-7.32-10.19zM123.29 294.64s3.89 7.74 4.37 12.48c0 0-5.27-5.4-7.31-10.19z"/><path class="cls-3" d="M119.34 296.35s6.09 6.16 10.43 8.13c0 0-3.43-6.72-7.32-10.19z"/><path class="cls-4" d="M63.94 216.86s-5.9-.07-10.14-.64c-7.54-1-17.89-5.63-17.19-27.42.21-6 .21-6 .36-10 0-3.52.12-5.22-1.81-8.69a10.19 10.19 0 0 0-5.84-4.73 24.34 24.34 0 0 0-5.57-.68s-6.79.2-8.87.16c-6.15-.36-8.33-2.53-9.23-5.79 0 0-.86 7 9.28 8.28 2 .27 5.67.41 10.27.59a8.43 8.43 0 0 1 5.43 3.08c1.63 2.1 2 5.25 1.45 12.31 0 0-.64 6.36-.72 12.67-.09 6.59.44 13.29 3.62 19.73 2.64 5.34 6.52 8.87 14.12 10a48.71 48.71 0 0 0 14.48.72z"/><path class="cls-4" d="M32.26 200s-9 2-9.77-8.51c0 0 .54-9-8.33-7.06 0 0 5.79.54 6 6 0 0-1.63 16.29 12.13 14.84zM35.88 174.09s9.05 2 9.77-8.51c0 0-.54-9 8.33-7.06 0 0-5.79.55-6 6 0 0 1.63 16.29-12.13 14.84z"/><path class="cls-5" d="M48.3 158.4s3.59-3.38-.42-8.23c0 0-3.59 3.83.42 8.23zM10.46 189.53s4.36 2.3 7.65-3.08c0 .01-4.76-2.15-7.65 3.08zM14.3 178.11s-.79 4.86 5.35 6.27c-.01 0 .53-5.2-5.35-6.27zM7.72 155s-3.3 3.65 1.09 8.17c0 0 3.27-4.08-1.09-8.17zM7.56 165.55s-1.43-4.72-7.56-3.28c0 0 1.81 4.9 7.56 3.28zM58.5 162.57s-2-4.52-7.89-2.39c0 0 2.39 4.66 7.89 2.39z"/><path class="cls-4" d="M163.29 216.86s5.9-.07 10.14-.64c7.54-1 17.89-5.63 17.19-27.42-.21-6-.21-6-.36-10 0-3.52-.12-5.22 1.81-8.69a10.19 10.19 0 0 1 5.84-4.73 24.34 24.34 0 0 1 5.57-.68s6.79.2 8.87.16c6.16-.36 8.33-2.53 9.23-5.79 0 0 .86 7-9.28 8.28-2 .27-5.67.41-10.27.59a8.43 8.43 0 0 0-5.43 3.08c-1.63 2.1-2 5.25-1.45 12.31 0 0 .64 6.36.72 12.67.09 6.59-.44 13.29-3.62 19.73-2.64 5.34-6.52 8.87-14.12 10a48.71 48.71 0 0 1-14.48.72z"/><path class="cls-4" d="M195 200s9 2 9.77-8.51c0 0-.54-9 8.33-7.06 0 0-5.79.54-6 6 0 0 1.63 16.29-12.13 14.84zM191.35 174.09s-9 2-9.77-8.51c0 0 .54-9-8.33-7.06 0 0 5.79.55 6 6 0 0-1.63 16.29 12.13 14.84z"/><path class="cls-5" d="M178.93 158.4s-3.59-3.38.42-8.23c0 0 3.59 3.83-.42 8.23zM216.77 189.53s-4.36 2.3-7.64-3.08c-.01.01 4.75-2.15 7.64 3.08zM212.93 178.11s.79 4.86-5.35 6.27c0 0-.53-5.2 5.35-6.27zM219.5 155s3.3 3.65-1.09 8.17c.01 0-3.26-4.08 1.09-8.17zM219.67 165.55s1.43-4.72 7.56-3.28c0 0-1.81 4.9-7.56 3.28zM168.73 162.57s2-4.52 7.89-2.39c-.01 0-2.37 4.66-7.89 2.39z"/><path class="cls-2" d="M111.75 200.48s-44.22-2.06-41 37.91c0 0 1.47 30.56 44.37 29.68 0 0 21.68.73 33.49-13.73 4.92-6 7.84-16.31 6.24-27.63.01-.01-1.08-25.64-43.1-26.23z"/><circle class="cls-6" cx="112.47" cy="229.32" r="2.21"/><circle class="cls-7" cx="87.66" cy="218.48" r="7.24"/><path class="cls-7" d="M144.37 217.1a7.38 7.38 0 1 1-7.38-7.38 7.38 7.38 0 0 1 7.38 7.38z"/><path class="cls-6" d="M114.53 242a26 26 0 0 1-18.69-5.87l-1.07 1.29a28.32 28.32 0 0 0 37.74-1.84l-1.19-1.18a26.26 26.26 0 0 1-16.79 7.6z"/><circle class="cls-6" cx="86.89" cy="217.86" r="2.21"/><circle class="cls-6" cx="137.95" cy="216.16" r="2.21"/><path class="cls-6" d="M142.91 9.93s29.39 263.17 33.18 299c0 0 5.25 45.7 6.1 55.7 0 0 3 2.78 7.15-.55 0 0-4.75-44.93-8.88-74.16 0 0-30-269.68-31.22-280.49z"/><path class="cls-2" d="M173.22 273.65c-.15.2-.21 7.09-.55 7.14s-3.17-3.4-3.34-4.56c0 0 4.91-7.84 9.5-5.62a1.77 1.77 0 0 1 .84 1.35 1.59 1.59 0 0 1-.7 1.43s-1.31 1.17-4.59.14c0 0-.89-.23-1.16.12z"/><path class="cls-2" d="M174.92 281c-.76-2.26-.65-4.86 2.47-6.08 0 0 2.2-.91 3.73 3.77 0 0 1.35 5.1-2.42 6 .01-.04-2.59-.2-3.78-3.69z"/><path class="cls-7" d="M92.52 129.16L112.47.57l105.32 17.24-20.01 127.83-105.26-16.48z"/><path class="cls-8" d="M112.89 1.15l104.33 17.07-19.86 126.85-104.27-16.32 19.8-127.6M112.06 0l-.15 1L92.1 128.59l-.15 1 1 .15 104.25 16.31 1 .15.15-1 19.86-126.82.15-1-1-.16L113.05.16l-1-.16z"/><path class="cls-9" transform="rotate(-80.78 156.42 64.257)" d="M107.76 15.61h97.3v97.3h-97.3z"/><g class="cls-10"><path class="cls-11" d="M132.22 131.66a1.83 1.83 0 0 0-.64 1.14l-.25 1.57s.25 1.63 4.06 2.56c0 0 4.94 1.42 8.51-.53a2.63 2.63 0 0 0 1.26-1.87l.27-2.31s.09-1.29-1.17-1.06z"/><path class="cls-7" d="M146.08 124.72c-1.55.54-4.09-.2-5.49-.43-3.52-.58-4.05-1.72-4.05-1.72-.47 3-.86 5.63-1.14 6.79a18.09 18.09 0 0 0-2.11 1.07c-2.47 1.58-.92 3.77 3 4.55 5.58.88 8.31-.71 8.6-1.91.11-.47-.01-.07 1.19-8.35z"/><path class="cls-11" d="M160.38 136.11a1.83 1.83 0 0 1 .26 1.28l-.25 1.57s-.74 1.48-4.66 1.18c0 0-5.14-.18-7.94-3.13a2.63 2.63 0 0 1-.62-2.17l.45-2.28a.94.94 0 0 1 1.44-.65z"/><path class="cls-7" d="M147.88 133.55c-.09 1.23 2 3.58 7.6 4.47 4 .48 6.12-1.13 4.26-3.4a18.07 18.07 0 0 0-1.67-1.67c.09-1.19.53-3.81 1-6.81 0 0-.86.92-4.39.39-1.41-.21-4.05-.29-5.36-1.28-1.41 8.26-1.44 7.75-1.44 8.3z"/></g><g class="cls-12"><path class="cls-13" d="M51.68 136.46L114.55 172l58.67-104.22-.14-.08c3.19-6.3-8-19.11-25.13-28.79s-33.88-12.58-37.63-6.6z"/><path class="cls-14" d="M55.77 139.76L110 170.42l61.18-108.77S160.74 47 146.65 39s-29.7-8-29.7-8z"/><path class="cls-7" d="M125.38 74.57a7.6 7.6 0 1 1-2.89-10.36 7.6 7.6 0 0 1 2.89 10.36z"/><path class="cls-15" d="M120.67 72a2.22 2.22 0 1 1-.85-3 2.23 2.23 0 0 1 .85 3z"/><path class="cls-7" d="M142 84a7.6 7.6 0 1 1-2.89-10.36A7.6 7.6 0 0 1 142 84z"/><path class="cls-15" d="M137.33 81.37a2.22 2.22 0 1 1-.85-3 2.23 2.23 0 0 1 .85 3z"/><path class="cls-16" d="M175.69 75C181.4 49.9 156.6 36.11 153 33.7c-3-1.86-31.12-18-50.54-.12 0 0-18.22 17.52-26.52 34.9-5.14 10.77-6.3 21.39 1.47 27.14 0 0 7.12 5.19 12.49.49 0 0-7.87-5.23 22.59-40.61l39.27 22.22C137.08 122.07 128.55 118 128.55 118c-1.27 7 6.85 10.45 6.85 10.45 8.93 3.7 17.44-2.76 24-12.71C170.05 99.69 175.69 75 175.69 75z"/><path class="cls-15" d="M120.67 103a3.37 3.37 0 0 1-4.59 1.27l-8.4-4.75a3.37 3.37 0 0 1-1.27-4.59 3.37 3.37 0 0 1 4.59-1.29l8.4 4.75a3.37 3.37 0 0 1 1.27 4.59z"/><path class="cls-17" transform="rotate(-60.5 113.384 99.11)" d="M112.89 94.01h1.01v10.22h-1.01z"/></g><path class="cls-6" d="M157.63 139.52s-12.26 4.26-14.9-11.06a32.31 32.31 0 0 0-.85-3.79 10.24 10.24 0 0 0-1.57-3.32c-1.76-2.47-4.73-4-10.24-2 0 0 3.83-.33 6.42 1.39 1.71 1.14 2.59 3 2.81 6.51 0 0 .27 24.17 19.16 20zM160 145.59s13.13 1.07 12.8-11.87c0 0 0-2.72.09-4a6.67 6.67 0 0 1 1.76-3.94c1.54-1.77 4.25-2.4 9.07-2 0 0-4.1.23-6.36 2.92A6.34 6.34 0 0 0 176 132s4.42 19.66-15.33 20z"/></g></g></svg>