<svg id="Layer_1" data-name="Layer 1" xmlns="http://www.w3.org/2000/svg" viewBox="0 0 48 48"><defs><style>.cls-1{fill:#f09}.cls-2{fill:#fff}</style></defs><title>default-icon-tall</title><path class="cls-1" d="M0 0h48v48H0z"/><path class="cls-2" d="M34.36 31.86a1.63 1.63 0 0 0-2.22.59 9.39 9.39 0 0 1-16.28 0A1.63 1.63 0 1 0 13 34.08a12.64 12.64 0 0 0 21.91 0 1.63 1.63 0 0 0-.55-2.22zM6 14.29a6.55 6.55 0 0 0 6.71 6.59A6.65 6.65 0 1 0 6 14.29zM28.73 14.29a6.65 6.65 0 0 0 13.3 0 6.65 6.65 0 1 0-13.3 0z"/></svg>