<svg id="Layer_1" data-name="Layer 1" xmlns="http://www.w3.org/2000/svg" viewBox="0 0 10.79 8"><defs><style>.cls-1{fill:#ff9d00}</style></defs><title>save-icon-8px</title><path class="cls-1" d="M8.76 8V4.4c0-.13-.07-.18-.23-.23H2.26A.27.27 0 0 0 2 4.4V8zM0 .67V.29l1.89.1h.05L2 .37h.56v.05h.06v.05h.05v.32h.05v.08h.05v.19l.4.9-.17.13-.39-.89V1H2zM10.79.67V.28l-1.9.11H8.2v.05h-.08v.05L8 .73v.14L7.91.9v.16l-.4.9.3.13.39-.89V1z"/><path class="cls-1" d="M8.75 3.45A1 1 0 0 0 9 2.76a1.16 1.16 0 0 0-1.13-1.08A1.2 1.2 0 0 0 6.64.75h-.06A1.23 1.23 0 0 0 5.39 0a1.23 1.23 0 0 0-1.18.77L4 .75a1.19 1.19 0 0 0-1.23.94 1.13 1.13 0 0 0-1 1.06 1 1 0 0 0 .3.69z"/></svg>