<svg id="Layer_1" data-name="Layer 1" xmlns="http://www.w3.org/2000/svg" viewBox="0 0 9.06 7.8"><defs><style>.cls-1{fill:#ff0200}.cls-2{fill:#fff}</style></defs><title>like-icon-8px</title><path class="cls-1" d="M0 2.38a2.39 2.39 0 0 1 4.53-1 2.39 2.39 0 0 1 4.53 1c0 3.13-4.53 5.42-4.53 5.42S0 5.52 0 2.38"/><path class="cls-2" d="M5.85 4.9a.21.21 0 0 0-.28.1 1.2 1.2 0 0 1-2.08 0 .21.21 0 1 0-.36.21 1.61 1.61 0 0 0 2.79 0 .21.21 0 0 0-.07-.31zM2.23 2.66a.85.85 0 0 0 1.69 0 .85.85 0 1 0-1.69 0zM5.13 2.66a.85.85 0 0 0 1.69 0 .85.85 0 1 0-1.69 0z"/></svg>