<svg xmlns="http://www.w3.org/2000/svg" viewBox="0 0 11.19 8"><defs><style>.cls-1{fill:#f89c1c;}</style></defs><title>home-piggy</title><g id="Layer_2" data-name="Layer 2"><g id="Layer_1-2" data-name="Layer 1"><path class="cls-1" d="M8.25,3.35a7.63,7.63,0,0,1-1.17.37c-.33,0-.66-.45-1.46-.45s-1.14.46-1.47.43a7.84,7.84,0,0,1-1.2-.38c-.79-.21-.83.18-.57.73A18.56,18.56,0,0,1,3.14,8h.38A28,28,0,0,0,3,4.25c.94-.13,1.16.39,1.19.75V5.1h0l0,.32v.17l0,.51,0,.44,0,.36L4.42,8H4.8c-.1-1.44-.18-2.76-.19-2.94a.74.74,0,0,1,.11-.42h0a.71.71,0,0,1,.2-.21.69.69,0,0,1,.45-.18H5.6c.86,0,1,.43,1,.82,0,.08-.08,1.43-.17,2.93h.39L7,5a.68.68,0,0,1,.13-.35v0a.79.79,0,0,1,.15-.15l0,0a1,1,0,0,1,.22-.11l.09,0,.21,0h.45a27.61,27.61,0,0,0-.55,3.45c.05-.54.12-1.08.18-1.55C7.87,6.76,7.8,7.38,7.73,8h.34a18.29,18.29,0,0,1,.75-3.9C9.08,3.58,9,3.15,8.25,3.35Z"/><path class="cls-1" d="M11.15,0l-2,.14a1,1,0,0,0-.82.54L7.81,1.85H7.76a1.11,1.11,0,0,0-1.07-1H6.63A1.1,1.1,0,0,0,5.6,0a1.1,1.1,0,0,0-1,.84l-.2,0a1.1,1.1,0,0,0-1,.89L2.85.7A1,1,0,0,0,2,.16L0,0,0,.5,1.92.6A.58.58,0,0,1,2.45,1L2.9,2h0a1.18,1.18,0,0,0-.49.82,1,1,0,0,1,.53,0,8.13,8.13,0,0,0,1.2.36c.33,0,.67-.42,1.47-.41s1.13.45,1.46.43A7.92,7.92,0,0,0,8.25,2.9a.92.92,0,0,1,.53,0A1.18,1.18,0,0,0,8.28,2v0L8.74,1A.58.58,0,0,1,9.27.58L11.19.48Z"/></g></g></svg>