<svg xmlns="http://www.w3.org/2000/svg" viewBox="0 0 89.49 117.71"><defs><style>.cls-1{fill:#a80058;}.cls-2{fill:#ffffcf;}.cls-3{fill:#ff005d;}.cls-4{fill:#f09;}.cls-5{fill:#fff;}</style></defs><title>homepage-dude</title><g id="Layer_2" data-name="Layer 2"><g id="Layer_1-2" data-name="Layer 1"><path class="cls-1" d="M3.91,27.49S-5.25,15,8.77,1.57c0,0,.79-.6.66.21C8.81,5.54,6.75,18,13.49,26.22Z"/><path class="cls-1" d="M85.58,27.49S94.74,15,80.72,1.57c0,0-.79-.6-.66.21C80.68,5.54,82.74,18,76,26.22Z"/><path d="M89.41,17.6v0a1.09,1.09,0,0,0-1-1,1,1,0,0,0-.88.53,1,1,0,0,0-.69-.29,1,1,0,0,0-.86.5,1,1,0,0,0-1.57,0,1,1,0,0,0-.86-.5,1,1,0,0,0-.71.31,1,1,0,0,0-.89-.54,1,1,0,0,0-.72.32,1,1,0,0,0-.85-.48,1.08,1.08,0,0,0-1,1h0c-1.09,6.77-7.38,7.7-11.54,7.65-2.52-2.89-5.2-5.43-5.2-5.43-3.47-3.16-5.68-5.18-7.73-7.3C47.57,4.83,45.39,0,45.39,0c-.56,1.1-2.06,4.29-8.67,11.35-2.08,2.22-5.32,5.43-8.36,8.3,0,0-2.34,2.38-4.79,5.35-3.77.27-12.12.32-13.4-7.57h0a1.08,1.08,0,0,0-1-1,1,1,0,0,0-.85.48,1,1,0,0,0-.72-.32,1,1,0,0,0-.89.54A1,1,0,0,0,6,16.84a1,1,0,0,0-.86.5,1,1,0,0,0-1.57,0,1,1,0,0,0-.86-.5,1,1,0,0,0-.69.29,1,1,0,0,0-.88-.53,1.09,1.09,0,0,0-1,1v0S-2.13,34,16,37.59a30.11,30.11,0,0,0-1.87,16s1.59,16.66,20.4,21.7a19.53,19.53,0,0,0-4,2.45,19.53,19.53,0,0,0-2.17,2.17v0c-2.93,3.82-6,4.17-6,4.17a7,7,0,0,0,3.48-.44v0a8,8,0,0,1-3.4,2.07,7.34,7.34,0,0,0,2.62-.41,33.11,33.11,0,0,0-2,7.27c-.29,1.06-1.21,6,2.19,5.94s3.86-2.64,3.31-4.83c.74-4.06,2.16-9.39,6.56-12.72,0,1.79.24,29.2.12,31A24,24,0,0,0,33,113.66c-2.2,2-.33,3.89,3.7,4,6.71.2,7.9-2,8-3.21,0-2.22-.1-9.1-.12-9.1,0-1.5,0-2.95.1-3.82s.51-1.09,1-1.11h.08c.49,0,.89.34,1,1.11s.06,2.32.1,3.82c0,0-.16,6.88-.12,9.1.11,1.24,1.3,3.41,8,3.21,4-.15,5.9-2.08,3.7-4a18.79,18.79,0,0,0-2.16-1.35c-.11-1.85,0-29.53,0-31.31v-.48c.4.08.63.11.63.11a19.17,19.17,0,0,0,4.43,0A9.14,9.14,0,0,1,67,82.31a7.12,7.12,0,0,0-2.36-2.13,7.91,7.91,0,0,1,3.69,1.11,7.26,7.26,0,0,0-2.19-1.73,33.06,33.06,0,0,0,6.81-3.4c1-.5,5-2.75,2.93-5.61a4.85,4.85,0,0,0-.51-.77c.3-.38,1.5-2.34.66-3.08s-2-.14-3.46,2.12l-.07.08a1.18,1.18,0,0,0-1.64-.29s-.79.47-.79,2.74c-3.42,2.14-8.18,4.6-13.46,3.76,19-5.31,20.18-21.51,20.18-21.51a32.52,32.52,0,0,0-1.74-16.39C91.49,33.05,89.41,17.6,89.41,17.6Z"/><ellipse class="cls-2" cx="40.6" cy="23.03" rx="3.58" ry="4.78"/><ellipse cx="40.6" cy="23.03" rx="2.09" ry="2.79"/><ellipse class="cls-2" cx="49.03" cy="23.03" rx="3.58" ry="4.78"/><ellipse cx="49.03" cy="23.03" rx="2.09" ry="2.79"/><circle class="cls-3" cx="44.82" cy="29.25" r="1.03"/><path class="cls-4" d="M50.18,37.46a100.68,100.68,0,0,0,19.73-2.6A23.29,23.29,0,0,1,53.7,54a10.12,10.12,0,0,0-7.55-3.11A10.11,10.11,0,0,0,38.58,54a23.3,23.3,0,0,1-16.3-19.17,100.87,100.87,0,0,0,20.07,2.61S46.39,37.66,50.18,37.46Z"/><path class="cls-1" d="M46.15,50.9A10.11,10.11,0,0,0,38.58,54,25,25,0,0,0,53.7,54,10.12,10.12,0,0,0,46.15,50.9Z"/><rect class="cls-4" x="40.6" y="78.59" width="10.08" height="10.08" rx="3.75" ry="3.75"/><path class="cls-5" d="M47.82,85.28a.34.34,0,0,0-.47.12,2,2,0,0,1-3.42,0,.34.34,0,1,0-.59.34,2.66,2.66,0,0,0,4.6,0A.34.34,0,0,0,47.82,85.28Z"/><path class="cls-5" d="M41.85,81.59a1.4,1.4,0,0,0,2.79,0,1.4,1.4,0,1,0-2.79,0Z"/><path class="cls-5" d="M46.63,81.59a1.4,1.4,0,0,0,2.79,0,1.4,1.4,0,1,0-2.79,0Z"/></g></g></svg>