<svg id="Layer_1" xmlns="http://www.w3.org/2000/svg" viewBox="-279 425.6 11.8 11.4"><style>.st0{fill:none}.st1{fill:#00aeff}</style><title>icon-reply-arrow</title><path class="st0" d="M-259 357.4h32.1"/><path class="st1" d="M-273.2 426.2v5.6c0 .4-.3.6-.6.7-.1 0-.3 0-.4-.1l-4.5-2.8c-.3-.2-.4-.6-.2-.9l.2-.2 4.5-2.8c.3-.2.7 0 .9.3 0 .1.1.1.1.2z"/><path class="st1" d="M-272.2 430.6c1.8.6 2.8 2.5 2.3 4.3v.1c-.1.2 0 .4.1.6l1.1 1.2c.2.2.5.2.7.1 0 0 .1-.1.1-.2 1.6-2.9.5-6.6-2.4-8.1-.9-.5-1.9-.7-2.9-.7l-.9 2.7c.6-.2 1.2-.2 1.9 0z"/></svg>