<svg xmlns="http://www.w3.org/2000/svg" viewBox="0 0 785.83 228.69"><defs><style>.cls-1{fill:#ff0}.cls-2{fill:#926f35}.cls-3{fill:#00d4de}.cls-4{fill:#00f2f2}.cls-5{fill:#ff3560}.cls-6{fill:#e31451}.cls-7{fill:#b3c535}.cls-8{fill:#fff}.cls-9{fill:#ffd265}.cls-10{fill:#3faeb1}.cls-11{fill:#ffeb6d}.cls-12{fill:#00f2ff}.cls-13{fill:#ff0180}.cls-14{fill:#00b7dd}.cls-15{fill:#e3eb9a}.cls-16{fill:#cade35}.cls-17{fill:#ed4928}</style></defs><title>incoming-header-back2x</title><g id="Layer_2" data-name="Layer 2"><g id="Layer_1-2" data-name="Layer 1"><path class="cls-1" d="M142.26 137.93s66.31-14 66.31-40 5.62-64 41.86-64c10.67 0 41-7.41 105.24-9 154-3.81 379-4 379-4s51 10 51 48 6 116-51 116-270 5-323 5-147.5 6.5-154 0c-3.36-3.36-11.86-3.3-23.18-13-10.56-9-24.1-35-24.1-35s-12.08 8.46-32.37 7c-27.82-2-35.76-11-35.76-11z"/><path class="cls-2" d="M140.32 186.17c0 6.73-.16 17.42-.06 33.21h-10.74v-8.13c-.06-1.71-.06-2.07-.06-3.64 0-2.91-.79-5-4.68-4.95-4.19 0-4.05 3.51-4.09 6.71v10h-11.38c.1-15.74.23-27.25.28-34"/><path d="M103.76 228.69s-.55-4.54 3.59-5.14v-7.31s-.26-2.77 2-2.88h11.38s1.86.21 1.86 2.89v7.63s1.15 1.26.93 4.82M146 228.69s.56-4.54-3.59-5.14v-7.31s.26-2.77-2-2.88H129s-1.86.21-1.86 2.89v7.63s-1.15 1.26-.93 4.82"/><path class="cls-3" d="M140.75 205.49c9.42-1.15 16-4.29 21.52-8.84 18.66-15.39 21.61-49 20.71-77.52 0-43.37-15-76.79-59.16-76.21-44.21-.58-59 33.35-59 79.28-.68 36 6.9 77.14 45.91 83.19.04 0 15.51 2.3 30.02.1z"/><path class="cls-4" d="M117.64 205.39c-39-6.05-44.26-53.55-44.79-83.19-.49-27.57 3.7-79.25 54.42-79.25h-3.46c-44.21-.58-59 33.35-59 79.28-.68 36 6.9 77.14 45.91 83.19a122.92 122.92 0 0 0 19.52 1 118.24 118.24 0 0 1-12.6-1.03z"/><ellipse class="cls-5" cx="126.33" cy="135.97" rx="32.12" ry="23.45"/><path class="cls-6" d="M126.33 139.15a21 21 0 0 0-20.09 14.3 36.81 36.81 0 0 0 40.19 0 21 21 0 0 0-20.1-14.3z"/><path class="cls-4" d="M131.89 205.39c39-6.05 49.79-47.16 49.11-83.19 0-44.73-10.31-78-58.75-79.25h3.46c44.21-.58 59 33.35 59 79.28.68 36-6.9 77.14-45.91 83.19a122.93 122.93 0 0 1-19.52 1 118.29 118.29 0 0 0 12.61-1.03z"/><path class="cls-7" d="M71 182.25s14 9.62 44 10.33a11.15 11.15 0 0 1 6.56 2.85c2.21 2.16 3.42 6.14 3.42 11.4l-50.7 5.38s-.36-17.14-3.28-29.96z"/><path class="cls-7" d="M178 183.69s-12.24 7.69-44.66 8.89a11.15 11.15 0 0 0-6.55 2.85c-2.21 2.16-3.42 6.14-3.42 11.4l50.7 5.38s1.01-15.7 3.93-28.52z"/><path class="cls-8" d="M117.48 110.43s-34.5.16-38.58 37.87c0 0-1.45 5.45 1.62 12.86 0 0 3.37 6.33 7 1.28 0 0 4 7.58 7.1.92 0 0 4 2.25 1.79-5 0 0-7.12-14.63-1.94-28.91.03 0 3.41-12.71 23.01-19.02zM135.55 109.87s34.5.16 38.58 37.87c0 0 1.45 5.45-1.62 12.86 0 0-3.37 6.33-7 1.28 0 0-4 7.58-7.1.92 0 0-4 2.25-1.79-5 0 0 7.12-14.63 1.94-28.91-.02 0-3.41-12.71-23.01-19.02z"/><path class="cls-5" d="M116.31 136.27c-2.52 2.65-4.43 5.27-9 6.78 0 0-15.48 4.21-11-11.27 0 0 6.28-20.63 31.85-20.63 0 0 22.43.45 27.59 20.63 0 0 2 8.07-2 10.77 0 0-8.07 6.06-13.91-3.36-1.15-2.13-4.73-6.16-6.62-7.18a12.41 12.41 0 0 0-11.66-.22 30.6 30.6 0 0 0-5.25 4.48z"/><path class="cls-8" d="M132.48 111.56a25.8 25.8 0 0 0-4.28-.51c-11.14 0-18.61 3.91-23.5 8.33a4.42 4.42 0 0 0 3.56 2.2c2.1 0 3.9-1.92 4.69-4.66.79 2.74 2.59 4.66 4.69 4.66 2.28 0 4.21-2.27 4.88-5.4.66 3.13 2.59 5.4 4.88 5.4 2.45 0 4.49-2.61 5-6.1.51 3.49 2.55 6.1 5 6.1 2.16 0 4-2 4.75-4.88.76 2.86 2.6 4.88 4.75 4.88a4 4 0 0 0 2.78-1.24c-5.43-5.75-12.68-7.95-17.2-8.78z"/><path class="cls-9" d="M78.78 201.24l3.52-4.83 3.46 4.83-3.49-2.41-3.49 2.41z"/><path class="cls-10" d="M76.62 194.6l3.15 3.54-.99 3.1 3.51-1.36 3.47 1.36-1.08-3.12 3.17-3.48-11.23-.04z"/><path class="cls-11" d="M82.27 190.49l1.34 4.11h4.31l-3.49 2.54 1.33 4.1-3.49-2.54-3.49 2.54 1.33-4.1-3.49-2.54h4.32l1.33-4.11z"/><path class="cls-9" d="M76.62 194.6l5.59 1.81-2.1.73-3.49-2.54zM87.86 194.6l-5.59 1.81 2.1.73 3.49-2.54zM164.3 201.24l3.52-4.83 3.46 4.83-3.49-2.41-3.49 2.41z"/><path class="cls-10" d="M162.15 194.6l3.14 3.54-.99 3.1 3.51-1.36 3.47 1.36-1.08-3.12 3.18-3.48-11.23-.04z"/><path class="cls-11" d="M167.79 190.49l1.34 4.11h4.31l-3.49 2.54 1.33 4.1-3.49-2.54-3.49 2.54 1.34-4.1-3.49-2.54h4.31l1.33-4.11z"/><path class="cls-9" d="M162.15 194.6l5.59 1.81-2.1.73-3.49-2.54zM173.39 194.6l-5.6 1.81 2.11.73 3.49-2.54z"/><path class="cls-12" d="M181.84 153.94a26.74 26.74 0 0 0 19.29-15.09s5.48-.26 7.44 2.87c0 0-8.23 20-29.86 19.72"/><path d="M207.8 142.39a6.86 6.86 0 0 0 2.58-5.15c.29-4.31-4.31-4.59-4.31-4.59.57-4.83-1-5.1-1-5.1a1.15 1.15 0 0 0-1.57.72 8.1 8.1 0 0 0-.37 2.18c-.08 1.2-.21 2.51-.37 3.49a28 28 0 0 1-1.28 4.88s-.53 1.68 2.16 2.88a8 8 0 0 0 4.16.69z"/><path class="cls-12" d="M70.55 162s-11.1 1.18-17.24 14.5c0 0-5.48.26-7.44-2.87 0 0 8.23-20 29.86-19.72"/><path d="M53.91 175.42s0 5.37-4.3 5.08c0 0-4.69.1-5-3.91a3.36 3.36 0 0 1 2.15-3.22 14.39 14.39 0 0 1 7.15 2.05z"/><path class="cls-13" d="M252.55 151.62L249.6 82l15-.63 3 69.62zM308.94 79.49l14-.59 2.56 60.37c.31 7.27-3.73 10.36-9 10.58-3.74.16-6.65-2.11-8.46-5.47l-20-37.87 1.82 43.49-14 .59-2.56-60.37c-.31-7.27 3.72-10.36 9-10.58 4.78-.2 7.58 2 9.28 5.23l19.11 35.83zM368.37 77l4.16-.18.6 14.24-4.36.19c-13.72.58-22.59 9.91-22.09 21.55s10.12 20.18 23.84 19.6l4.36-.19.6 14.24-4.16.18c-21.41.91-38.73-12.41-39.61-33.19S347 77.88 368.37 77zM412.38 74.17a35.78 35.78 0 1 1-34.23 37.26 35.78 35.78 0 0 1 34.23-37.26zm2.4 56.53a20.8 20.8 0 1 0-21.66-19.9 20.88 20.88 0 0 0 21.66 19.89zM483.86 137.24l-13.16-35.56 1.72 40.63-14 .59-2.53-59.64c-.32-7.59 4.94-11.14 9.51-11.33 5.61-.24 9.32 3.67 11.2 8.89l13.19 36.08 10.09-37.07c1.44-5.37 4.8-9.57 10.41-9.81 4.57-.19 10.12 2.9 10.44 10.49l2.53 59.64-14 .59-1.72-40.63-10.11 36.55c-1.18 4.11-3.51 5.67-6.52 5.79s-5.52-1.21-7.05-5.21zM531.54 139.8l-3-69.62 15-.63 3 69.62zM587.92 67.66l14-.59 2.56 60.37c.31 7.27-3.72 10.36-9 10.58-3.74.16-6.65-2.11-8.46-5.47L567 94.68l1.85 43.54-14 .59-2.56-60.37c-.31-7.27 3.73-10.36 9-10.58 4.78-.2 7.58 2 9.28 5.23l19.11 35.83zM651.91 79.21l-5.4.23c-9.87.42-21.67 6.85-21 22.33a19.57 19.57 0 0 0 20.37 18.92l-1.25-28.89 15-.63 1.32 31.07c.25 6-.94 12.12-10.61 12.52l-2.49.11c-19.85.84-36.27-13.35-37.09-32.57-.86-20.26 13.46-36.17 35.9-37.12l4.68-.2zM669.76 112.94l-2.35-55.35 15.38-.65 2.35 55.35zm7.92 3.89a8.89 8.89 0 1 1 .75 17.77 8.89 8.89 0 0 1-.75-17.77zM696.64 111.81l-2.34-55.36 15.38-.65 2.32 55.35zm7.92 3.89a8.89 8.89 0 1 1 .75 17.77 8.89 8.89 0 0 1-.75-17.77zM723.52 110.67l-2.35-55.35 15.38-.65L738.9 110zm7.92 3.89a8.89 8.89 0 1 1 .75 17.77 8.89 8.89 0 0 1-.75-17.77z"/><path class="cls-1" d="M184.69 123.52q-1.8.9-3.65 1.74c-18.22 8.33-38.77 12.67-38.77 12.67s7.93 9 35.76 11l1.16.07c1.42.08 3.66.1 5 .09 1.11-8.44.61-17.09.5-25.57z"/><path class="cls-8" d="M160.26 58l-3.2 2.6a28 28 0 0 1 7.58 13.22l4.83-.75A30.91 30.91 0 0 0 160.26 58zm-.78-.7a38.33 38.33 0 0 0-12.08-7.11l-1.5 2.56a41.31 41.31 0 0 1 10.42 7.12zm-6.7 6.7A26.88 26.88 0 0 1 158 74.82l5.58-.86a27.08 27.08 0 0 0-7.36-12.72zm-7.42-10.43l-1.65 2.81a29.23 29.23 0 0 1 8.41 6.82l3.37-2.74a40.24 40.24 0 0 0-10.13-6.84z"/><path class="cls-3" d="M227.17 69.06c23.45-11.72 40.37-33.56 1-69.06 0 0 30.75 45.87-53.94 46.38v31.25s30.77 2.52 52.94-8.57z"/><path class="cls-14" d="M236.88 63.34l-11.22 5.3 11.59-19.16-18.93 9.06 17.42-17.63-18.43 9.55 11.88-15.09-5.6.6C243 22.28 228.18.08 228.18.08c33.6 30.31 26.18 50.66 8.7 63.26z"/><path class="cls-3" d="M24.52 69.06C1.07 57.34-15.85 35.5 23.51 0c0 0-30.75 45.87 53.94 46.38v31.25s-30.75 2.52-52.93-8.57z"/><path d="M66.39 112.27l.06.13.08.13c.2.32 5 7.91.57 13.94l4.9 3.6a15.56 15.56 0 0 0 3-9 22.83 22.83 0 0 0-3.2-11.67A21.43 21.43 0 0 1 69.31 99a17.31 17.31 0 0 1 1.58-7.11L65.48 89c-.23.46-5.59 10.71.91 23.27zM183.28 124.38l.07.13.08.13c.2.32 5 7.91.57 13.94l4.94 3.61a15.56 15.56 0 0 0 3-9 22.81 22.81 0 0 0-3.29-11.68 21.44 21.44 0 0 1-2.49-10.37 17.24 17.24 0 0 1 1.58-7.11l-5.4-2.89c-.19.44-5.56 10.69.94 23.24z"/><path class="cls-7" d="M193.93 99c-3.19-6.9-2.36-17.26-2.06-22.46.82-14.31-.62-21.19-3.75-31.85-4.62-15.8-22.59-24.69-40.5-28.07-12.57-2.39-30.6-2.39-45.34 0C84.29 19.54 68.36 30 61.77 44.71c-3.32 7.44-4.35 20.74-3.77 31.85.3 5.19.92 18.21-2 22.44a15 15 0 0 1-5.36 4.77c10.5.6 21.46 0 32-.35 14.1-.45 70.53-.45 84.63 0 10.56.34 21.52.94 32 .35a9.64 9.64 0 0 1-5.34-4.77z"/><path class="cls-14" d="M14.81 63.34L26 68.64 14.44 49.48 35.61 64.1 16 40.91l21.63 9.21L22.5 35.37l5.6.6C8.64 22.28 23.51.08 23.51.08c-33.6 30.31-26.18 50.66-8.7 63.26z"/><path class="cls-15" d="M171.58 27.84l-4.15 3.72c7.13 4.88 12 10.73 14.62 17.32a29 29 0 0 0 3.29-5.57C182.63 37 177.76 32 171.58 27.84zm-5 3.14l4.14-3.71a57.28 57.28 0 0 0-17.35-7.77c-1.59.76-4.36 2-5.84 2.8a78.09 78.09 0 0 1 16.11 6.86q1.51.84 2.93 1.84zm.1 1.27L162 36.44c7.35 5.07 12.76 11.23 15.49 18a18.65 18.65 0 0 0 3.9-4.72c-2.45-6.66-7.39-12.52-14.72-17.48zM163.14 30a77.53 77.53 0 0 0-16.91-7c-2.19 1.15-4.25 2.28-6.13 3.35a77.56 77.56 0 0 1 21 9.54l4.67-4.19q-1.26-.86-2.63-1.7z"/><path class="cls-16" d="M81.67 25.89s-20.19 10.77-20.19 37c0 0-.34 19.86 0 24.23 0 0 1 10.77-4 14.14 0 0 7.74-2 7.74-15.82V63.59s.29-25.24 16.45-37.7z"/><path class="cls-4" d="M17.25 8S.89 24.81 1.43 39.33c0 0-.67 11.11 13.13 22.21 0 0-10.92-9.57-10.77-22.89 0 .01-.47-12.19 13.46-30.65zM234.61 8S251 24.81 250.42 39.33c0 0 .67 11.11-13.13 22.21 0 0 10.92-9.57 10.77-22.89.01.01.47-12.19-13.45-30.65z"/><circle class="cls-8" cx="143.16" cy="81.55" r="10.39"/><circle class="cls-17" cx="144.16" cy="79.55" r="3.23"/><circle class="cls-8" cx="102.59" cy="81.55" r="10.39"/><circle class="cls-17" cx="103.59" cy="79.55" r="3.23"/></g></g></svg>