<svg id="Layer_1" data-name="Layer 1" xmlns="http://www.w3.org/2000/svg" viewBox="0 0 423 106"><defs><style>.cls-1{fill:none}.cls-2{fill:#f09}.cls-3{fill:#fff}.cls-4{fill:#a6f3ff;fill-rule:evenodd;opacity:.85}</style></defs><title>logo</title><path class="cls-1" d="M65.27 87.51c2.09 0 3.78.29 3.78-.55s-1.69-1.53-3.78-1.53-3.78.68-3.78 1.53 1.69.55 3.78.55z" transform="translate(-1)"/><path class="cls-2" d="M51.23 38.21v16.38c0 3.71 10.36 23.88 10.36 27.2S53 86.7 51.23 87.72c-.91.52-.52 1.84 1.26 1.84h25.25c1.85 0 2.57-1 1.63-1.84C78 86.58 69 85.12 69 81.8s10.36-23.49 10.36-27.2V38.21c0-.49 0-1.07-.34-1.07H51.58c-.39-.01-.35.66-.35 1.07zm14 47.22c2.09 0 3.78.68 3.78 1.53s-1.69.55-3.78.55-3.78.29-3.78-.55 1.73-1.53 3.82-1.53z" transform="translate(-1)"/><path class="cls-3" d="M69.6 61.56a.68.68 0 0 0-.93.25 3.93 3.93 0 0 1-6.81 0 .68.68 0 1 0-1.18.68 5.29 5.29 0 0 0 9.16 0 .68.68 0 0 0-.24-.93zM57.73 54.22a2.78 2.78 0 0 0 5.56 0 2.78 2.78 0 1 0-5.56 0zM67.25 54.22a2.78 2.78 0 0 0 5.56 0 2.78 2.78 0 1 0-5.56 0z" transform="translate(-1)"/><path class="cls-4" d="M69.19 67.61s60.43 17.18 108.88 14.47 76.14-16.75 76.14-16.75 1.2 8.58 7.61 13.7c4.76 3.81 15.23 4.57 15.23 4.57s30.76.49 63.2-2.28c29.89-2.55 61.67-8.38 61.67-8.38S424 68.26 424 43.25c0-34.38-22.08-38.07-22.08-38.07a488.45 488.45 0 0 0-49.2-1.74c-34.52.59-74.9 4-74.9 4s-15 4.24-20.56 12.18c-8.06 11.55-7.61 28.17-7.61 28.17S218 67 180.36 71.42c-50.63 5.98-111.17-3.81-111.17-3.81z" transform="translate(-1)"/><path class="cls-2" d="M14.72 74.54v15H1V73.72c0-8.87 5.53-15.15 15.29-15.15a16.62 16.62 0 0 1 11.53 4.09 16.62 16.62 0 0 1 11.53-4.09c9.83 0 15.35 6.28 15.35 15.15v15.83H40.92v-15c0-1.71-.82-3.62-3.07-3.62s-3.14 1.91-3.14 3.62v15H21v-15c0-1.71-1-3.62-3.14-3.62s-3.14 1.9-3.14 3.61zM81.65 47.25h13.72V59.8h6.35v11.06h-6.35v2.25c0 3.07.48 5.32 4.57 5.32h1.77v11.12h-5.59c-11.81 0-14.47-6.76-14.47-16.1zM104.4 79.11s5.32 2.66 9.62 2.66c1.23 0 2.73-.21 2.73-1.71s-2.12-1.37-5.94-2.25c-5.19-1.16-7.3-4.78-7.3-8.53 0-7.51 7.51-10.71 13.92-10.71 7.23 0 11.33 1.91 11.33 1.91v8.94a29 29 0 0 0-9.35-2c-1.23 0-2.59.27-2.59 1.36s1.5 1.43 3.62 1.84l1.71.27c5.59 1 8.12 4 8.12 8.67 0 7.71-6 11.19-14.26 11.19a27 27 0 0 1-11.6-2.32zM132.32 43.83H146v17.06a12 12 0 0 1 7.37-2.32c8.73 0 13.24 5.12 13.24 16v15h-13.69v-15a3.43 3.43 0 0 0-3.48-3.62 3.35 3.35 0 0 0-3.44 3.59v15h-13.68zM169.24 74.68c0-8.87 7.37-16.1 17.74-16.1s17.67 7.23 17.67 16.1c0 8.33-5.46 16.1-15.29 16.1a13.53 13.53 0 0 1-6.41-1.5V106h-13.71zm13.72 0a4 4 0 0 0 8 0 4 4 0 1 0-8 0zM57.61 14.91l.09.18c-.06.13-.12.26-.18.4l.22.37.5 4.45H59a6.94 6.94 0 0 1 2-2.49l-.25-2.2.2-.25-.22-.23.22-.23-.2-.25.24-.21-.18-.27.26-.19-.15-.28.28-.16c0-.1-.09-.2-.12-.3l.29-.13c0-.08-.06-.17-.08-.26v-.05l.3-.11c0-.1 0-.21-.07-.31l.31-.08v-.32h.32v-.32h.32v-.32h.32c0-.1 0-.21.06-.32h.32v-.12l.05-.19 12-8.13-.22-.47-1.47-2-.12-.12L62 7.76l-.2.13-.16.11h-.43l-.2.38-.43.09c-.06.13-.11.26-.16.4L60 9c0 .14-.09.27-.12.41l-.4.17c0 .14-.06.28-.09.42l-.39.21V10.63l-.37.24v.43l-.34.27V12l-.31.31c0 .14 0 .28.08.42l-.28.33c0 .14.08.28.12.41l-.25.36.15.4c-.07.12-.15.25-.22.38zM75.11 16.64a4 4 0 0 0-1.19-.48c-.23-1.36-.87-2.22-1.31-2-.85.36.49 1.56.49 1.56 1 1.65.17 3.77-.28 4.67a1 1 0 0 1-.4-.28 2 2 0 0 0-2.13-.11 2.72 2.72 0 0 0-1 3.07 3.35 3.35 0 0 0 4.55 1.74 2.72 2.72 0 0 0 1.33-2.92 2 2 0 0 0-1.63-1.37 1 1 0 0 1-.44 0 6.93 6.93 0 0 0 .8-4.08 2.91 2.91 0 0 1 1 .45c-.63 2.72 2.72 3.82 2.72 3.82 1.05-4.02-2.51-4.07-2.51-4.07z" transform="translate(-1)"/><path class="cls-2" d="M76.37 26.86h-.34v-.34a5.08 5.08 0 0 0-.23-.95 3.94 3.94 0 0 1-1.09.82 4.79 4.79 0 0 1-2.18.56 5.15 5.15 0 0 1-1.88-.38 4.61 4.61 0 0 1-2.13-7.29 5.16 5.16 0 0 0-8.22 2.57l-.11.35-.36-.07a5.14 5.14 0 0 0-6.09 4.45v.3l-.29.06A5.21 5.21 0 0 0 49.13 32a5 5 0 0 0 1.14 3.17h29.9A5 5 0 0 0 81.32 32a5.2 5.2 0 0 0-4.95-5.14z" transform="translate(-1)"/></svg>