<svg xmlns="http://www.w3.org/2000/svg" viewBox="0 0 90.71 78.4"><defs><style>.cls-4{fill:#fff}</style></defs><g id="Layer_2" data-name="Layer 2"><g id="Layer_1-2" data-name="Layer 1"><path d="M0 32.27C16.61 7.67 52.58 24.6 69.2 0l21.51 46.13C74.1 70.73 38.12 53.8 21.51 78.4L0 32.27z" fill="#f0f0f0"/><path d="M19.86 74.85c16.61-24.6 52.58-7.67 69.19-32.27l1.66 3.55C74.1 70.73 38.12 53.8 21.51 78.4l-1.65-3.55zM0 32.27C16.61 7.67 52.58 24.6 69.2 0l1.65 3.55c-16.61 24.59-52.58 7.67-69.2 32.27L0 32.27zm3.31 7.09c16.61-24.59 52.58-7.67 69.2-32.26l1.65 3.55C57.55 35.24 21.58 18.32 5 42.91l-1.69-3.55zm3.31 7.1c16.61-24.59 52.58-7.67 69.2-32.27l1.65 3.55C60.86 42.34 24.89 25.41 8.27 50l-1.65-3.54zm3.31 7.1C26.54 29 62.51 45.89 79.13 21.29l1.65 3.55c-16.61 24.6-52.58 7.67-69.2 32.27l-1.65-3.55zm3.31 7.1c16.61-24.6 52.58-7.66 69.2-32.27l1.65 3.55C67.48 56.53 31.5 39.61 14.89 64.2l-1.65-3.54zm3.31 7.09c16.61-24.59 52.58-7.67 69.19-32.26.56 1.18 1.11 2.36 1.66 3.54-16.61 24.6-52.59 7.68-69.2 32.27l-1.65-3.55z" fill="#f09"/><path d="M0 32.27C8.42 19.81 21.8 18 35.12 16.06q5.81 12.42 11.59 24.84C33.39 42.84 20 44.65 11.58 57.11L0 32.27z" fill="#0540a8"/><path class="cls-4" d="M28.09 33.84a.83.83 0 00-.88.78 4.8 4.8 0 01-7.44 3.75.85.85 0 00-1.16.24.84.84 0 00.25 1.16 6.48 6.48 0 0010-5.05.84.84 0 00-.77-.88zM11.06 32.35a3.36 3.36 0 004.59 1.47 3.41 3.41 0 10-4.59-1.47zM21.47 27.1a3.4 3.4 0 006.08-3.1 3.4 3.4 0 10-6.08 3.06z"/></g></g></svg>