<svg xmlns="http://www.w3.org/2000/svg" viewBox="0 0 235.19 268.96"><defs><style>.cls-1{fill:#ff64c0}.cls-2{fill:#e00097}.cls-3{fill:#fff}.cls-4{fill:#ff3db7}.cls-5{fill:#b60088}.cls-6{fill:#ff0097}.cls-7{fill:#2b1412}.cls-8{fill:#b3b3b3}.cls-9{fill:#97a92b}.cls-10{fill:#bdb1a2}.cls-11{fill:#ffbd2d}.cls-12{fill:#ff9d1e}.cls-13{fill:#ffe881}.cls-14{fill:#1c0d0a}.cls-15{fill:#ffffd4}.cls-16{fill:#fff2ac}.cls-17{fill:#ffffc2}.cls-18{fill:none;stroke:#ede6bd;stroke-width:.63px}.cls-19{fill:#ffffa4}.cls-20{fill:#f78;fill-rule:evenodd}.cls-21{fill:#65b8b8}.cls-22{fill:url(#linear-gradient)}.cls-23{fill:#ffffed}.cls-24{fill:url(#radial-gradient)}.cls-25{fill:#723835}.cls-26{fill:#ff3056}.cls-27{fill:#ffdce6}</style><linearGradient id="linear-gradient" x1="-123.51" y1="-138.79" x2="-123.51" y2="-149.71" gradientTransform="rotate(-29.74 327.346 -460.653)" gradientUnits="userSpaceOnUse"><stop offset=".56" stop-color="ivory"/><stop offset=".69" stop-color="#fcfaed"/><stop offset=".83" stop-color="#f5ede2"/><stop offset=".98" stop-color="#e8d7d1"/><stop offset="1" stop-color="#e6d4cf"/></linearGradient><radialGradient id="radial-gradient" cx="-318.75" cy="-760.32" r="8.53" gradientTransform="matrix(.85 -.31 .34 .94 622.19 638.32)" gradientUnits="userSpaceOnUse"><stop offset=".47" stop-color="#e6fffa"/><stop offset=".67" stop-color="#edf4f1"/><stop offset="1" stop-color="#ffd9dc"/></radialGradient></defs><title>porky-shking-it2x</title><g id="Layer_2" data-name="Layer 2"><g id="Layer_1-2" data-name="Layer 1"><path class="cls-1" d="M35.4 77.8l34.45 6.59-19.47 11.99L35.4 77.8z"/><path class="cls-2" d="M154.9 260.53h-11.51c-2.13 0-3.86-2.25-3.86-5v-3.73a99.19 99.19 0 0 0 15.37-5.8zM71.61 258.78h-12.8c-2.13 0-3.86-2.25-3.86-5v-16a97.22 97.22 0 0 0 16.66 9.38zM30.16 118.61a39.62 39.62 0 0 1-5-5.38c-9.3-12.13-9.63-26.87-.72-32.93s23.67-1.13 33 11a93.17 93.17 0 0 0-27.28 27.31zM207.65 158.61c.11 1.44.19 2.9.23 4.36a31.22 31.22 0 0 1 4.69.49 9.47 9.47 0 0 0-2.48 4.61 5.46 5.46 0 0 0 2.31 5.81 7.89 7.89 0 0 0 4.29 1.43 5.59 5.59 0 0 0 2.06-.38c3.24-1.28 4.28-5.14 4.4-5.57a2 2 0 0 0 .06-.36 8.1 8.1 0 0 0-.74-4.18c2.56.84 6.33 4.3 8.74 7.92a2.17 2.17 0 0 0 3.61-2.41c-6.14-9.19-13.49-10.64-16.63-10l-.6.14a27.33 27.33 0 0 0-9.94-1.86zm6.71 10.27a5.78 5.78 0 0 1 2.92-3.63 5.21 5.21 0 0 1 .56.47 3.41 3.41 0 0 1 1 2.74 4.11 4.11 0 0 1-1.74 2.43 3 3 0 0 1-2.39-.66c-.11-.09-.54-.37-.35-1.35z"/><path class="cls-1" d="M30.16 118.61A93.17 93.17 0 0 1 57.43 91.3a99.51 99.51 0 0 1 54.68-16.13c50.5 0 91.88 36.79 95.54 83.45.11 1.44.19 2.9.23 4.36v2.38a86.92 86.92 0 0 1-24.28 60v38c0 3.1-1.73 5.62-3.86 5.62h-21c-2.13 0-3.86-2.52-3.86-5.62V246a99.19 99.19 0 0 1-15.37 5.73 100.81 100.81 0 0 1-39.18 3.06v8.51c0 3.1-1.73 5.62-3.86 5.62h-21c-2.13 0-3.86-2.52-3.86-5.62v-16.21A97.22 97.22 0 0 1 55 237.71C31.5 221.27 16.3 195 16.3 165.35a85.86 85.86 0 0 1 13.86-46.74z"/><ellipse class="cls-3" cx="60.89" cy="160.91" rx="8.43" ry="9.46"/><ellipse class="cls-2" cx="60.89" cy="160.91" rx="4.62" ry="5.19"/><ellipse class="cls-3" cx="27.72" cy="151.45" rx="8.43" ry="9.46"/><ellipse class="cls-2" cx="27.72" cy="151.45" rx="4.62" ry="5.19"/><path class="cls-4" d="M104.75 86.41s25.53.6 24.54 35.61l-30 5.56z"/><path class="cls-2" d="M75.26 109.47a26 26 0 0 0-7.41 1.07 36.09 36.09 0 0 1 4.85-10.91C81 86.9 95.4 81 104.75 86.41s10.16 20.16 1.81 32.89a38.21 38.21 0 0 1-7.32 8.28C96.8 117.22 87 109.47 75.26 109.47zM119.58 78.69l1.89 4.46s34.94 5.31 44.39 17.86v-5.88s-14.58-13.35-46.28-16.44z"/><path class="cls-5" d="M35.4 219.22l3.29-2.1c4.44 7 11.37 10.64 18.07 9.6 6.31-1 11.51-5.93 13.91-13.24l3.71 1.21c-2.86 8.74-9.22 14.67-17 15.88-8.28 1.29-16.7-3.06-21.98-11.35z"/><path class="cls-4" d="M1.82 200.33C6.42 216.47 21.73 226.64 36 223s22.18-19.61 17.58-35.76S33.71 161 19.41 164.57s-22.18 19.61-17.59 35.76z"/><path class="cls-6" d="M1.35 199c3.95 13.88 15.33 23.07 25.44 20.53s15.09-15.86 11.14-29.75-15.33-23.07-25.44-20.52S-2.6 185.12 1.35 199z"/><path class="cls-2" d="M19 192.71c-.48 4.4 1.16 8.17 3.66 8.41s4.89-3.12 5.34-7.54-1.16-8.17-3.65-8.41-4.89 3.13-5.35 7.54zM4.67 191.33c-.48 4.41 1.15 8.17 3.65 8.41s4.91-3.14 5.39-7.54-1.16-8.17-3.65-8.41-4.91 3.14-5.39 7.54z"/><path class="cls-7" d="M157.51 30.08s-1.08-2.22.72-2.58a1.42 1.42 0 0 1 1.58 1.28 1.5 1.5 0 0 1-1 1.61z"/><path class="cls-3" d="M112.11 66.05l31.49-52.64 43.03 26.23-31.38 52.29-43.14-25.88z"/><path class="cls-8" d="M143.77 14.1l42.18 25.7-30.87 51.45-42.28-25.37 31-51.78m-.34-1.38l-.52.87-31 51.78-.51.86.86.51 42.29 25.37.86.51.51-.86 30.86-51.44.51-.85-.85-.52-42.18-25.7-.86-.52z"/><path class="cls-9" d="M160.06 78.93l-38.6-23.59 22.76-38.3 38.93 23.56-23.09 38.33z"/><path class="cls-10" d="M143.77 14.1L112.8 65.88l41.62 24.88-.15.15-41.78-25 31.1-51.83.18.02z"/><path class="cls-7" d="M160.16 79l14.19-23.8 1-1.67-.57-1.06.42.25-.8-1.31.37.14-1.18-1.62.41.07-1.2-1.4.34.05-1.14-1.28.53.13-1.48-1.38.51.16-.89-1.1.54.17-1-1.25h.77c-.49-.44-1.54-1.6-1.54-1.6l.63.08c-.42-.56-1.55-1.83-1.55-1.83l.48.25a19.54 19.54 0 0 0-1.32-2l.43.22a14.23 14.23 0 0 0-1.16-1.6l.56.45a27.49 27.49 0 0 0-4.28-5.28 15.33 15.33 0 0 0-1.36-1.07 2 2 0 0 0 .74-.59c.86-1.14-.55-2.05-.55-2.05-1.45-.73-1.94.74-2.09 1.5-1.52-.75-3.3-1.24-4.78-.48a10.81 10.81 0 0 0-3 3.35 21.06 21.06 0 0 1-5.36-1.45c-.87-.07-1.07 1.2-1.18 2.47a4 4 0 0 0 .39 2.31 7.55 7.55 0 0 0 2.65 2.22 9.45 9.45 0 0 1 1.78 1.42c.26.36 1.11 1.61 1 2.27l.24-.91a3.46 3.46 0 0 1 .55 1.23l.1-.54s.65 1.26.49 1.77l.22-.81a4.91 4.91 0 0 1 .28 1.68l.22-.43-.08.84a26.17 26.17 0 0 0-2.88 5.13s-.8 2-2.27 5a13.14 13.14 0 0 1-2.46-1.08 8.87 8.87 0 0 1-3.65-3.62 17.42 17.42 0 0 1-1.93-5.61s-2.49.62-2.66 4.07a14.72 14.72 0 0 0 .12 3.82 8.59 8.59 0 0 0-.21 2.12l.26-.6.11 1.42.21-.43a9 9 0 0 0 .09 1.36l.23-.47a4.4 4.4 0 0 0 .28 1.63l.14-.57a5.58 5.58 0 0 0 .16 1.5l.18-.39.47 1.49.2-.33.37 1.23.13-.47.6 1.52.15-.41.61 1.42.15-.41.62 1.23.2-.33.48.93c-.65 1-1.26 1.81-2 2.78z"/><path class="cls-11" d="M142.81 42.81l-2.32-1.34-5.43 9.53s0 .87 1.65 1.89c1.69 1 2.45.56 2.45.56l5.86-9.23z"/><ellipse class="cls-12" cx="137.76" cy="51.15" rx=".44" ry="2.11" transform="rotate(-59.3 137.148 51.27)"/><path class="cls-13" d="M141.63 42.22l-5.39 9.09.85.64 5.57-9.14-1.03-.59z"/><path class="cls-3" d="M155.23 34c.31-.52.85-.77 1.21-.56a.62.62 0 0 1 .28.45 1.13 1.13 0 0 0-.39-1.22c-.52-.31-1.33.07-1.79.85s-.43 1.67.1 2a1 1 0 0 0 1.09-.11.58.58 0 0 1-.41-.06c-.32-.2-.4-.79-.09-1.35z"/><path class="cls-14" d="M156.71 33.92a.62.62 0 0 0-.28-.45c-.35-.21-.89 0-1.21.56s-.28 1.12.07 1.33a.58.58 0 0 0 .41.06 2.23 2.23 0 0 0 .7-.74 2.31 2.31 0 0 0 .31-.76z"/><path class="cls-15" d="M146.37 37.24a3.93 3.93 0 0 1-.71 1 1.8 1.8 0 0 0-.28.36c-.12.21-.19.47 0 .57 0 0 .4.34.72-.58 0 0 .06-.18.17-.47s.2-.46.3-.69z"/><path class="cls-15" d="M145.94 36.59s-.15.22.14.55l.14.15a.17.17 0 0 1 0 .12.62.62 0 0 1-.1.19l.15.33s.07-.22.22-.25a.4.4 0 0 1 .27.07l.13.1s.27.29.41.26-.13-.52-1.36-1.52z"/><path class="cls-16" d="M135.06 51l.58-1a6.78 6.78 0 0 0 1.6 1.52s1.7 1.12 2.52 1l-.55.92s-.88.49-2.68-.73a3.06 3.06 0 0 1-1.47-1.71z"/><ellipse class="cls-17" cx="142.79" cy="42.8" rx=".37" ry="2.71" transform="rotate(-59.09 142.796 42.802)"/><path class="cls-17" transform="rotate(-59.09 143.056 42.343)" d="M142.53 39.63h1.07v5.43h-1.07z"/><ellipse class="cls-18" cx="143.34" cy="41.89" rx=".37" ry="2.71" transform="rotate(-59.09 143.338 41.885)"/><path class="cls-18" d="M141 40.49l-6 10.48s0 .9 1.68 1.91c0 0 1.6 1 2.48.58l6.45-10.18z"/><path class="cls-15" d="M145.63 43.25s.21-.89-1.14-1.8a1 1 0 0 1-.26-.25.41.41 0 0 1-.06-.24.21.21 0 0 0-.29-.23 1.06 1.06 0 0 1-.33 0 2 2 0 0 1-.55-.13s-1.74-.56-1.93-.12a5.19 5.19 0 0 0 1.51 1.23 11.1 11.1 0 0 0 3.05 1.54z"/><path class="cls-12" d="M141.34 50v-2.2a1.68 1.68 0 0 0-.88 1.79s-.09.28.57.92zM138.63 45.5s1.54-.13.91-1.27a.83.83 0 0 0-.38-.42l-2.51 4.45c.42-.12 1.76-.6 1-1.62.04.01 1.35.02.98-1.14z"/><path class="cls-7" d="M139.86 43.7s-.25-.76-1.42-.5c0 0-3.26.57-3.24 5.41 0 0 .18 1 .47 1.15 0 0 .36-.64 1.17-2 0 0 2-.45 1.17-1.65 0 0 1.36 0 .94-1.15 0 .04 1.39-.32.91-1.26z"/><circle class="cls-19" cx="138.03" cy="51.33" r=".06" transform="rotate(-59.15 138.03 51.332)"/><circle class="cls-19" cx="138.17" cy="51.09" r=".06" transform="rotate(-59.3 137.563 51.216)"/><circle class="cls-19" cx="138.28" cy="50.91" r=".06" transform="rotate(-59.09 138.282 50.908)"/><circle class="cls-19" cx="138.39" cy="50.72" r=".06" transform="rotate(-59.16 138.386 50.726)"/><circle class="cls-19" cx="138.5" cy="50.54" r=".06" transform="rotate(-59.15 138.494 50.535)"/><circle class="cls-19" cx="138.66" cy="50.27" r=".04" transform="rotate(-59.04 138.657 50.268)"/><circle class="cls-19" cx="138.78" cy="50.07" r=".04" transform="rotate(-59.05 138.769 50.07)"/><circle class="cls-19" cx="138.9" cy="49.87" r=".04" transform="rotate(-59.24 138.903 49.879)"/><circle class="cls-19" cx="139.01" cy="49.68" r=".04" transform="rotate(-59.05 139.002 49.678)"/><circle class="cls-19" cx="139.13" cy="49.48" r=".04" transform="rotate(-59.3 138.423 49.625)"/><circle class="cls-19" cx="139.25" cy="49.28" r=".04" transform="rotate(-59.04 139.248 49.285)"/><circle class="cls-19" cx="139.37" cy="49.09" r=".04" transform="rotate(-59.04 139.358 49.091)"/><circle class="cls-19" cx="139.49" cy="48.88" r=".03" transform="rotate(-59.09 139.492 48.878)"/><circle class="cls-19" cx="137.17" cy="49.12" r=".06" transform="rotate(-59.02 137.18 49.126)"/><circle class="cls-19" cx="137.31" cy="48.89" r=".06" transform="rotate(-59.15 137.31 48.885)"/><circle class="cls-19" cx="137.42" cy="48.7" r=".06" transform="rotate(-59.15 137.424 48.705)"/><circle class="cls-19" cx="137.53" cy="48.52" r=".06" transform="rotate(-59.15 137.53 48.52)"/><circle class="cls-19" cx="137.64" cy="48.34" r=".06" transform="rotate(-59.08 137.642 48.335)"/><circle class="cls-19" cx="137.81" cy="48.06" r=".04" transform="rotate(-59.05 137.804 48.067)"/><circle class="cls-19" cx="137.93" cy="47.87" r=".04" transform="rotate(-59.05 137.928 47.869)"/><circle class="cls-19" cx="138.04" cy="47.67" r=".04" transform="rotate(-59.04 138.041 47.669)"/><circle class="cls-19" cx="138.16" cy="47.47" r=".04" transform="rotate(-58.96 138.157 47.477)"/><circle class="cls-19" cx="138.28" cy="47.28" r=".04" transform="rotate(-59.06 138.28 47.27)"/><circle class="cls-19" cx="138.4" cy="47.08" r=".04" transform="rotate(-59.05 138.401 47.076)"/><circle class="cls-19" cx="138.51" cy="46.88" r=".04" transform="rotate(-59.15 138.504 46.884)"/><circle class="cls-19" cx="138.64" cy="46.67" r=".03" transform="rotate(-59.11 138.63 46.68)"/><circle class="cls-19" cx="142.04" cy="46.48" r=".06" transform="rotate(-59.15 142.033 46.475)"/><circle class="cls-19" cx="142.18" cy="46.24" r=".06" transform="rotate(-59.07 142.187 46.24)"/><circle class="cls-19" cx="142.29" cy="46.06" r=".06" transform="rotate(-59.3 141.644 46.216)"/><circle class="cls-19" cx="142.4" cy="45.87" r=".06" transform="rotate(-59.3 141.763 46.028)"/><circle class="cls-19" cx="142.51" cy="45.69" r=".06" transform="rotate(-59.14 142.504 45.686)"/><circle class="cls-19" cx="142.67" cy="45.42" r=".04" transform="rotate(-59.22 142.662 45.413)"/><circle class="cls-19" cx="142.79" cy="45.22" r=".04" transform="rotate(-59.13 142.803 45.218)"/><circle class="cls-19" cx="142.91" cy="45.02" r=".04" transform="rotate(-59.04 142.9 45.02)"/><circle class="cls-19" cx="143.02" cy="44.83" r=".04" transform="rotate(-59.13 143.028 44.821)"/><circle class="cls-19" cx="143.14" cy="44.63" r=".04" transform="rotate(-59.13 143.147 44.632)"/><circle class="cls-19" cx="143.26" cy="44.43" r=".04" transform="rotate(-59.15 143.247 44.438)"/><circle class="cls-19" cx="143.38" cy="44.24" r=".04" transform="rotate(-59.05 143.391 44.235)"/><circle class="cls-19" cx="143.5" cy="44.03" r=".03" transform="rotate(-59.09 143.5 44.028)"/><circle class="cls-19" cx="142.2" cy="45.68" r=".04" transform="rotate(-59.06 142.2 45.68)"/><circle class="cls-19" cx="142.31" cy="45.48" r=".04" transform="rotate(-59.15 142.308 45.478)"/><circle class="cls-19" cx="142.43" cy="45.28" r=".04" transform="rotate(-59.05 142.424 45.284)"/><circle class="cls-19" cx="142.55" cy="45.09" r=".04" transform="rotate(-59.3 141.836 45.267)"/><circle class="cls-19" cx="142.67" cy="44.89" r=".04" transform="rotate(-59.04 142.656 44.894)"/><circle class="cls-19" cx="142.78" cy="44.7" r=".04" transform="rotate(-59.07 142.771 44.694)"/><circle class="cls-19" cx="142.91" cy="44.49" r=".03" transform="rotate(-59.24 142.896 44.492)"/><circle class="cls-19" cx="140.59" cy="43.6" r=".04" transform="rotate(-59.07 140.584 43.595)"/><circle class="cls-19" cx="140.71" cy="43.4" r=".04" transform="rotate(-59.15 140.702 43.402)"/><circle class="cls-19" cx="140.82" cy="43.2" r=".04" transform="rotate(-59.05 140.828 43.203)"/><circle class="cls-19" cx="140.94" cy="43.01" r=".04" transform="rotate(-59.13 140.95 43.002)"/><circle class="cls-19" cx="141.06" cy="42.81" r=".04" transform="rotate(-59.14 141.071 42.81)"/><circle class="cls-19" cx="141.18" cy="42.61" r=".04" transform="rotate(-59.13 141.184 42.61)"/><circle class="cls-19" cx="141.3" cy="42.4" r=".03" transform="rotate(-59.11 141.294 42.41)"/><circle class="cls-19" cx="140.07" cy="44.13" r=".04" transform="rotate(-58.93 140.068 44.132)"/><circle class="cls-19" cx="140.19" cy="43.93" r=".04" transform="rotate(-59.12 140.187 43.935)"/><circle class="cls-19" cx="140.31" cy="43.73" r=".04" transform="rotate(-59.04 140.303 43.737)"/><circle class="cls-19" cx="140.42" cy="43.54" r=".04" transform="rotate(-59.13 140.428 43.532)"/><circle class="cls-19" cx="140.54" cy="43.34" r=".04" transform="rotate(-59.23 140.536 43.34)"/><circle class="cls-19" cx="140.66" cy="43.14" r=".04" transform="rotate(-59.13 140.67 43.146)"/><circle class="cls-19" cx="140.78" cy="42.93" r=".03" transform="rotate(-59.21 140.798 42.936)"/><circle class="cls-19" cx="140.2" cy="43.47" r=".04" transform="rotate(-59.13 140.209 43.466)"/><circle class="cls-19" cx="140.32" cy="43.27" r=".04" transform="rotate(-59.13 140.319 43.273)"/><circle class="cls-19" cx="140.43" cy="43.08" r=".04" transform="rotate(-59.04 140.432 43.075)"/><circle class="cls-19" cx="140.55" cy="42.88" r=".04" transform="rotate(-59.05 140.544 42.88)"/><circle class="cls-19" cx="140.67" cy="42.68" r=".04" transform="rotate(-59.13 140.676 42.683)"/><circle class="cls-19" cx="140.79" cy="42.49" r=".04" transform="rotate(-59.3 140.086 42.665)"/><circle class="cls-19" cx="140.91" cy="42.28" r=".03" transform="rotate(-58.99 140.917 42.27)"/><circle class="cls-19" cx="143.77" cy="45.5" r=".04" transform="rotate(-59.05 143.771 45.5)"/><circle class="cls-19" cx="143.89" cy="45.3" r=".04" transform="rotate(-59.23 143.889 45.304)"/><circle class="cls-19" cx="144" cy="45.11" r=".04" transform="rotate(-59.13 144.012 45.1)"/><circle class="cls-19" cx="144.12" cy="44.91" r=".04" transform="rotate(-59.05 144.115 44.913)"/><circle class="cls-19" cx="144.24" cy="44.71" r=".04" transform="rotate(-59.23 144.233 44.72)"/><circle class="cls-19" cx="144.36" cy="44.52" r=".04" transform="rotate(-59.13 144.356 44.514)"/><circle class="cls-19" cx="144.48" cy="44.31" r=".03" transform="rotate(-59.09 144.484 44.306)"/><circle class="cls-19" cx="140.42" cy="47.67" r=".04" transform="rotate(-58.94 140.419 47.666)"/><circle class="cls-19" cx="140.54" cy="47.47" r=".04" transform="rotate(-59.23 140.53 47.468)"/><circle class="cls-19" cx="140.65" cy="47.27" r=".04" transform="rotate(-59.05 140.658 47.27)"/><circle class="cls-19" cx="140.77" cy="47.08" r=".04" transform="rotate(-59.13 140.782 47.077)"/><circle class="cls-19" cx="140.89" cy="46.88" r=".04" transform="rotate(-59.15 140.882 46.882)"/><circle class="cls-19" cx="141.01" cy="46.68" r=".04" transform="rotate(-59.05 141.01 46.688)"/><circle class="cls-19" cx="141.13" cy="46.47" r=".03" transform="rotate(-59.11 141.132 46.479)"/><circle class="cls-19" cx="139.27" cy="52.17" r=".04" transform="rotate(-59.05 139.269 52.173)"/><circle class="cls-19" cx="139.38" cy="51.98" r=".04" transform="rotate(-59.14 139.401 51.975)"/><circle class="cls-19" cx="139.5" cy="51.78" r=".04" transform="rotate(-59.07 139.492 51.777)"/><circle class="cls-19" cx="139.62" cy="51.58" r=".04" transform="rotate(-59.04 139.616 51.58)"/><circle class="cls-19" cx="139.74" cy="51.39" r=".04" transform="rotate(-59.23 139.745 51.386)"/><circle class="cls-19" cx="139.85" cy="51.19" r=".04" transform="rotate(-59.05 139.86 51.19)"/><circle class="cls-19" cx="139.98" cy="50.98" r=".03" transform="rotate(-59.11 139.975 50.985)"/><circle class="cls-19" cx="136.17" cy="50.07" r=".04" transform="matrix(.52 -.86 .86 .52 23.06 140.92)"/><circle class="cls-19" cx="136.29" cy="49.87" r=".04" transform="rotate(-59.3 135.61 50.01)"/><circle class="cls-19" cx="136.4" cy="49.67" r=".04" transform="rotate(-59.3 135.712 49.812)"/><circle class="cls-19" cx="136.52" cy="49.48" r=".04" transform="rotate(-58.95 136.538 49.472)"/><circle class="cls-19" cx="136.64" cy="49.28" r=".04" transform="rotate(-59.05 136.638 49.283)"/><circle class="cls-19" cx="136.76" cy="49.08" r=".04" transform="rotate(-59.05 136.761 49.085)"/><circle class="cls-19" cx="136.88" cy="48.87" r=".03" transform="rotate(-58.98 136.875 48.879)"/><circle class="cls-19" cx="139.08" cy="50.7" r=".06" transform="rotate(-59.02 139.085 50.706)"/><circle class="cls-19" cx="139.22" cy="50.47" r=".06" transform="rotate(-59.08 139.23 50.47)"/><circle class="cls-19" cx="139.33" cy="50.28" r=".06" transform="rotate(-59.15 139.333 50.29)"/><circle class="cls-19" cx="139.44" cy="50.1" r=".06" transform="rotate(-59.3 138.975 50.207)"/><circle class="cls-19" cx="139.55" cy="49.92" r=".06" transform="rotate(-59.07 139.557 49.914)"/><circle class="cls-19" cx="139.71" cy="49.64" r=".04" transform="rotate(-59.13 139.722 49.644)"/><circle class="cls-19" cx="139.83" cy="49.45" r=".04" transform="rotate(-59.3 139.126 49.595)"/><circle class="cls-19" cx="139.95" cy="49.25" r=".04" transform="rotate(-59.3 139.236 49.402)"/><circle class="cls-19" cx="140.07" cy="49.05" r=".04" transform="rotate(-59.05 140.071 49.047)"/><circle class="cls-19" cx="140.18" cy="48.86" r=".04" transform="rotate(-59.06 140.192 48.855)"/><circle class="cls-19" cx="140.3" cy="48.66" r=".04" transform="rotate(-59.07 140.29 48.662)"/><circle class="cls-19" cx="140.42" cy="48.46" r=".04" transform="rotate(-59.04 140.413 48.464)"/><circle class="cls-19" cx="140.54" cy="48.26" r=".03" transform="rotate(-58.99 140.552 48.258)"/><circle class="cls-19" cx="141.24" cy="48.63" r=".06" transform="rotate(-59.07 141.246 48.62)"/><circle class="cls-19" cx="141.38" cy="48.39" r=".06" transform="rotate(-59.3 140.745 48.53)"/><circle class="cls-19" cx="141.49" cy="48.21" r=".06" transform="rotate(-59.15 141.493 48.207)"/><circle class="cls-19" cx="141.6" cy="48.02" r=".06" transform="rotate(-59.08 141.61 48.02)"/><circle class="cls-19" cx="141.71" cy="47.84" r=".06" transform="rotate(-59.09 141.725 47.836)"/><circle class="cls-19" cx="141.88" cy="47.57" r=".04" transform="rotate(-59.15 141.866 47.569)"/><circle class="cls-19" cx="142" cy="47.37" r=".04" transform="rotate(-59.05 142.003 47.366)"/><circle class="cls-19" cx="142.11" cy="47.17" r=".04" transform="rotate(-59.06 142.114 47.17)"/><circle class="cls-19" cx="142.23" cy="46.98" r=".04" transform="rotate(-59.05 142.236 46.974)"/><circle class="cls-19" cx="142.35" cy="46.78" r=".04" transform="rotate(-59.05 142.346 46.78)"/><circle class="cls-19" cx="142.47" cy="46.58" r=".04" transform="rotate(-58.97 142.453 46.587)"/><circle class="cls-19" cx="142.58" cy="46.39" r=".04" transform="rotate(-59.05 142.594 46.384)"/><circle class="cls-19" cx="142.71" cy="46.18" r=".03" transform="rotate(-58.98 142.708 46.18)"/><path class="cls-7" d="M142.75 47.64s-.64-1.29-1.75.44a2.22 2.22 0 0 0 .56 2.47s2.28-1.19 1.19-2.91z"/><path class="cls-3" d="M143.99 45.76l1.07.16-1.09.15-.28 1.27-.14-1.2-1.07-.4 1.12-.05.37-1.06.02 1.13zM137.48 49.19l.48.07-.49.06-.13.56-.06-.53-.47-.17.5-.03.16-.47.01.51zM140.28 41.74l.48.08-.49.06-.12.56-.06-.53-.48-.17.5-.03.16-.47.01.5zM144.89 44.82l.47.08-.48.06-.13.56-.06-.53-.47-.17.5-.03.16-.47.01.5z"/><path class="cls-20" d="M147.37 32.2s-1.46-1-1.6.94c0 0-.08.57-.12 1.14a2.44 2.44 0 0 0 1.72-2.08z"/><path class="cls-3" d="M63.81 14.26L100.33.64l16.77 44.04-36.37 13.85-16.92-44.27z"/><path class="cls-8" d="M100 1.28l16.41 43.1L81 57.88 64.46 14.55 100 1.28m.62-1.28l-.93.35-35.58 13.27-.94.35.36.94 16.56 43.33.36.93.93-.36 35.43-13.49.93-.36-.36-.93L101 .93l-.38-.93z"/><path class="cls-21" d="M111.42 35.8L78.89 48.11 66.58 15.58 99.16 3.37l12.26 32.43z"/><path class="cls-22" d="M88 43.72s1.22.75 1-.86a.4.4 0 0 0 .3-.48 1.2 1.2 0 0 0-.63-.69 6.22 6.22 0 0 1 .33-4.54c.29.79 1.34 3.76 2.26 6.36l7.42-2.82-2.39-6.26c1.12.32 2.11 1.12 3.32 3.3 0 0-.22.67 0 .93a.4.4 0 0 0 .54.17c.85 1.39 1.3 0 1.3 0 1-.5.28-1.61 0-2a8.57 8.57 0 0 0-4.56-4.33 9.92 9.92 0 0 0-5.8.3c-2.87 1.05-3 1.72-3 1.72l.14.35a3.49 3.49 0 0 0-.7 1 8.57 8.57 0 0 0-.67 6.26c-.14.54.04 1.87 1.14 1.59z"/><path class="cls-23" d="M99.18 22.12c-2.13-5.82-6-7.94-6-7.94l.11.69a5.89 5.89 0 0 0-2.7-2.06 13.33 13.33 0 0 1 .56 1.19 6.57 6.57 0 0 0-3-1.92l.39 1.07A7.76 7.76 0 0 0 86 11.6a8.34 8.34 0 0 1 .45 1.19 5.57 5.57 0 0 0-1.53-1.24v1.3a12.42 12.42 0 0 0-.81-1.65 20 20 0 0 0-.61 2.13l-.24-1.13a10.81 10.81 0 0 0-1.53 3.2l-.28-.87a13.49 13.49 0 0 0-.9 2.55l-.29-1a10.66 10.66 0 0 0-1.07 3.14l-.12-.72a15.58 15.58 0 0 0-.58 10.56c.05.19.12.39.19.58 1.71 4.66 6.76 6.82 13.27 4.43 6.26-2.3 8.69-6.76 7.5-11.17q-.12-.38-.25-.74z"/><path class="cls-24" d="M94.63 19.74a5.21 5.21 0 0 0-2.27-1.19 14.59 14.59 0 0 0-2-.39c-1.65-.22-4-.45-4.68-1.68.25 1.4-1.37 3.07-2.48 4.3a14.59 14.59 0 0 0-1.29 1.6 6.39 6.39 0 0 0-1 2.37c-.4 2.7 2.65 10.33 10.49 7.45 7.9-2.88 5.3-10.45 3.23-12.46z"/><circle class="cls-25" cx="85.68" cy="23.67" r=".78" transform="rotate(-20.17 85.666 23.676)"/><circle class="cls-25" cx="90.18" cy="22.02" r=".78" transform="rotate(-20.17 90.195 22.016)"/><circle class="cls-26" cx="88.58" cy="24.41" r=".46" transform="rotate(-20.17 88.61 24.403)"/><path class="cls-23" d="M78.92 24a13.48 13.48 0 0 0-9.86-4.35 15.79 15.79 0 0 0 2.2 4.28l-.61-.19s3.5 8.51 10.13 7z"/><path class="cls-27" d="M78.09 26.45s-2.34-3.45-5.45-3.62a6.92 6.92 0 0 0 6 5.66l-2.34-1.62 2.08.47L76.51 26z"/><path class="cls-23" d="M95.75 17.8a13.48 13.48 0 0 1 4.7-9.69 15.79 15.79 0 0 1 1.1 4.68l.34-.54s2.84 8.75-3.22 11.86z"/><path class="cls-27" d="M98 19.15s-.26-4.46 2-6.58A7.62 7.62 0 0 1 98.91 21l.71-2.74L98.34 20l.57-2.21z"/><path class="cls-26" d="M87.4 26.65a2.33 2.33 0 0 0 3.6-1.32z"/></g></g></svg>