<?xml version="1.0" standalone="no"?>
<!DOCTYPE svg PUBLIC "-//W3C//DTD SVG 20010904//EN"
 "http://www.w3.org/TR/2001/REC-SVG-20010904/DTD/svg10.dtd">
<svg version="1.0" xmlns="http://www.w3.org/2000/svg"
 width="16.000000pt" height="16.000000pt" viewBox="0 0 16.000000 16.000000"
 preserveAspectRatio="xMidYMid meet">
<metadata>
Created by potrace 1.11, written by Peter Selinger 2001-2013
</metadata>
<g transform="translate(0.000000,16.000000) scale(0.005000,-0.005000)"
fill="#000000" stroke="none">
<path d="M167 3186 c-55 -20 -103 -61 -134 -114 l-28 -47 0 -1425 0 -1425 28
-47 c31 -53 79 -94 134 -114 56 -20 2810 -20 2866 0 55 20 103 61 134 114 l28
47 0 1425 0 1425 -28 47 c-31 53 -79 94 -134 114 -56 20 -2810 20 -2866 0z
m747 -496 c187 -30 332 -177 367 -371 34 -188 -70 -384 -248 -470 -60 -29 -80
-34 -168 -37 -83 -3 -111 0 -164 18 -126 42 -217 125 -273 245 -19 43 -23 66
-23 170 0 115 1 123 32 188 55 115 154 204 268 240 88 28 125 31 209 17z
m1537 -4 c90 -19 142 -48 215 -118 86 -82 126 -171 132 -290 7 -139 -29 -241
-116 -332 -93 -96 -186 -136 -318 -136 -233 0 -408 145 -445 369 -38 229 117
457 344 506 81 17 108 18 188 1z m-1432 -1611 c16 -8 40 -34 54 -57 62 -107
180 -202 313 -255 64 -26 80 -28 214 -28 134 0 150 2 214 28 133 53 251 148
313 255 58 98 180 96 213 -3 15 -46 4 -78 -54 -159 -111 -156 -287 -275 -481
-327 -112 -30 -298 -30 -410 0 -194 52 -370 171 -481 327 -58 81 -69 113 -54
159 22 67 94 94 159 60z"/>
</g>
</svg>
