<svg version="1" xmlns="http://www.w3.org/2000/svg" width="21.333" height="21.333" viewBox="0 0 16.000000 16.000000"><path d="M.835.07C.56.17.32.375.165.64l-.14.235v14.25l.14.235c.155.265.395.47.67.57.28.1 14.05.1 14.33 0 .275-.1.515-.305.67-.57l.14-.235V.875l-.14-.235a1.306 1.306 0 0 0-.67-.57c-.28-.1-14.05-.1-14.33 0zM4.57 2.55c.935.15 1.66.885 1.835 1.855.17.94-.35 1.92-1.24 2.35-.3.145-.4.17-.84.185-.415.015-.555 0-.82-.09A2.238 2.238 0 0 1 2.14 5.625c-.095-.215-.115-.33-.115-.85 0-.575.005-.615.16-.94.275-.575.77-1.02 1.34-1.2.44-.14.625-.155 1.045-.085zm7.685.02c.45.095.71.24 1.075.59.43.41.63.855.66 1.45.035.695-.145 1.205-.58 1.66-.465.48-.93.68-1.59.68-1.165 0-2.04-.725-2.225-1.845-.19-1.145.585-2.285 1.72-2.53.405-.085.54-.09.94-.005zm-7.16 8.055c.08.04.2.17.27.285.31.535.9 1.01 1.565 1.275.32.13.4.14 1.07.14s.75-.01 1.07-.14c.665-.265 1.255-.74 1.565-1.275.29-.49.9-.48 1.065.015.075.23.02.39-.27.795-.555.78-1.435 1.375-2.405 1.635-.56.15-1.49.15-2.05 0-.97-.26-1.85-.855-2.405-1.635-.29-.405-.345-.565-.27-.795.11-.335.47-.47.795-.3z"/></svg>