<svg id="Layer_1" data-name="Layer 1" xmlns="http://www.w3.org/2000/svg" viewBox="0 0 20.23 15"><defs><style>.cls-1{fill:#ff9d00}</style></defs><title>saved-this</title><path class="cls-1" d="M19.33 17.84V11.1c-.05-.24-.12-.35-.44-.44H7.12a.5.5 0 0 0-.43.44v6.74zM2.9 4.09V4l.1-.62 3.46.24h.2l.09.06h.1l.08.07L7 3.6l.08.07h.11l.07.08h.11v.05h.11l.06.09h.11v.1h.11v.1H8v.1h.1v.11l.09.05v.11l.09.06v.11l.84 1.87-.56.25h-.09l-.78-1.63h-.08v-.08L7.56 5v-.1h-.08v-.08h-.07v-.08h-.08v-.11h-.09v-.06h-.08v-.08L7 4.52v-.07h-.07v-.07h-.07v-.07h-.07l-.05-.06h-.06zM23.12 4.09V4L23 3.38l-3.46.24h-.2l-.09.06h-.1l-.08.07L19 3.6l-.08.07h-.11l-.07.08h-.11v.05h-.11l-.06.09h-.11v.1h-.11v.1h-.1v.1h-.1v.11l-.09.05v.11l-.09.06v.11l-.97 1.87.56.25h.09l.73-1.68h.08v-.08h.08V4.9h.08v-.08h.08v-.08h.08v-.11h.08v-.06h.08v-.08h.08v-.07h.07v-.07h.07v-.07h.07l.05-.06h.06z" transform="translate(-2.9 -2.84)"/><path class="cls-1" d="M19.29 9.31A1.83 1.83 0 0 0 19.86 8a2.18 2.18 0 0 0-2.22-2 2.24 2.24 0 0 0-2.3-1.74h-.12A2.31 2.31 0 0 0 13 2.84a2.31 2.31 0 0 0-2.23 1.45 2.72 2.72 0 0 0-.42 0A2.24 2.24 0 0 0 8.05 6a2.13 2.13 0 0 0-1.9 2 1.84 1.84 0 0 0 .57 1.29z" transform="translate(-2.9 -2.84)"/></svg>