<svg id="Layer_1" data-name="Layer 1" xmlns="http://www.w3.org/2000/svg" viewBox="0 0 11 9"><defs><style>.cls-1{fill:#ff9d00}</style></defs><title>save-tiny</title><path class="cls-1" d="M8.94 9V5a.28.28 0 0 0-.24-.26H2.3a.29.29 0 0 0-.24.26v4zM0 .75V.32l1.93.12H2V.42h.3v.06h.06v.06h.06V.6h.06v.28h.05V1h.05v.06H3v.06l.4 1-.31.15-.4-1V1H2zM11 .75V.32L9.07.44H9V.42H8.45v.06h-.09v.06H8.3V.6l-.1.22v.06h-.05V1h-.08v.06H8v.06l-.4 1 .31.15.4-1V1H9z"/><path class="cls-1" d="M8.92 3.88a1.15 1.15 0 0 0 .31-.77A1.24 1.24 0 0 0 8 1.89a1.25 1.25 0 0 0-1.25-1h-.04a1.28 1.28 0 0 0-2.42 0h-.23a1.25 1.25 0 0 0-1.25 1.02 1.23 1.23 0 0 0-1 1.19 1.16 1.16 0 0 0 .31.77z"/></svg>