<svg xmlns="http://www.w3.org/2000/svg" viewBox="0 0 11.19 9"><defs><style>.cls-1{fill:#f79d1f;}</style></defs><title>save-tiny</title><g id="Layer_2" data-name="Layer 2"><g id="Layer_1-2" data-name="Layer 1"><path class="cls-1" d="M8.25,3.35a7.63,7.63,0,0,1-1.17.37c-.33,0-.66-.45-1.46-.45s-1.14.46-1.47.43a7.84,7.84,0,0,1-1.2-.38c-.79-.21-.83.18-.57.73A34,34,0,0,1,3.14,9h.38C3.39,7.56,3.22,5.07,3,4.25c.94-.13,1.16.39,1.19.75v.1l0,.32v.17l0,.51,0,.44,0,.36c0,.35.06,1.72.08,2.11H4.8c-.1-1.44-.18-3.76-.19-3.94a.74.74,0,0,1,.11-.43.71.71,0,0,1,.2-.21.69.69,0,0,1,.45-.18H5.6c.86,0,1,.43,1,.82,0,.08-.08,2.43-.17,3.93h.39C6.89,7.51,7,5.17,7,5a.7.7,0,0,1,.15-.36.79.79,0,0,1,.15-.15l0,0a1,1,0,0,1,.22-.11l.09,0,.21,0h.45c-.22,0-.56,4.46-.57,4.57V9h.34a33.71,33.71,0,0,1,.75-4.9C9.08,3.58,9,3.15,8.25,3.35Z"/><path class="cls-1" d="M11.15,0l-2,.14a1,1,0,0,0-.82.54L7.81,1.85H7.76a1.11,1.11,0,0,0-1.07-1H6.63A1.1,1.1,0,0,0,5.6,0a1.1,1.1,0,0,0-1,.84l-.2,0a1.1,1.1,0,0,0-1,.89L2.85.7A1,1,0,0,0,2,.16L0,0,0,.5,1.92.6A.58.58,0,0,1,2.45,1L2.9,2h0a1.18,1.18,0,0,0-.49.82,1,1,0,0,1,.53,0,8.13,8.13,0,0,0,1.2.36c.33,0,.67-.42,1.47-.41s1.13.45,1.46.43A7.92,7.92,0,0,0,8.25,2.9a.92.92,0,0,1,.53,0A1.18,1.18,0,0,0,8.28,2v0L8.74,1A.58.58,0,0,1,9.27.58L11.19.48Z"/></g></g></svg>