<svg xmlns="http://www.w3.org/2000/svg" viewBox="0 0 623.63 820.29"><defs><style>.cls-1{fill:#ffffcf;}.cls-2{fill:#ff005d;}.cls-3{fill:#f09;}.cls-4{fill:#a80058;}.cls-5{fill:#fff;}</style></defs><title>thankyou-dude</title><g id="Layer_2" data-name="Layer 2"><g id="Layer_1-2" data-name="Layer 1"><path class="cls-1" d="M27.24,191.6S-36.56,104.84,61.13,10.91c0,0,5.52-4.18,4.58,1.47C61.39,38.61,47.06,125.1,94,182.7Z"/><path class="cls-1" d="M596.39,191.6s63.79-86.76-33.89-180.69c0,0-5.52-4.18-4.58,1.47,4.32,26.23,18.65,112.71-28.29,170.32Z"/><path d="M623,122.64s0,.07-.06.11c-.41-4-3.46-7.18-7.21-7.18a7.14,7.14,0,0,0-6.11,3.67,6.84,6.84,0,0,0-4.79-2,7.11,7.11,0,0,0-6,3.45,6.77,6.77,0,0,0-11,.12,7.12,7.12,0,0,0-6-3.47,6.89,6.89,0,0,0-4.93,2.15,7.15,7.15,0,0,0-6.17-3.79,6.9,6.9,0,0,0-5,2.21,7.09,7.09,0,0,0-5.89-3.35c-3.65,0-6.65,3-7.18,6.85h0c-7.63,47.16-51.46,53.63-80.38,53.33-17.54-20.12-36.23-37.81-36.23-37.81-24.19-22-39.57-36.11-53.87-50.86C331.49,33.69,316.31,0,316.31,0,312.39,7.7,302,29.89,255.87,79.09c-14.51,15.48-37.09,37.81-58.27,57.82,0,0-16.33,16.58-33.38,37.25-26.29,1.89-84.47,2.26-93.37-52.77h0c-.53-3.87-3.53-6.85-7.18-6.85a7.09,7.09,0,0,0-5.89,3.35,6.9,6.9,0,0,0-5-2.21,7.15,7.15,0,0,0-6.17,3.79,6.89,6.89,0,0,0-4.93-2.15,7.12,7.12,0,0,0-6,3.47,6.77,6.77,0,0,0-11-.12,7.11,7.11,0,0,0-6-3.45,6.85,6.85,0,0,0-4.79,2,7.14,7.14,0,0,0-6.11-3.67c-3.75,0-6.81,3.15-7.21,7.18,0,0,0-.07-.06-.11S-14.82,237.13,111.67,261.93c-12.91,33-19.79,70.82-13,111.74,0,0,11.1,116.08,142.18,151.19C222.91,533.23,212.65,542,212.65,542a136.11,136.11,0,0,0-15.09,15.13l0-.29c-20.42,26.62-41.47,29.09-41.47,29.09a48.71,48.71,0,0,0,24.23-3l-.09.17c-12.8,12.11-23.71,14.45-23.71,14.45a51.13,51.13,0,0,0,18.29-2.85c-5.89,13.94-10.79,30.56-14.27,50.69-2,7.38-8.44,41.8,15.23,41.4s26.93-18.43,23-33.67c5.14-28.32,15-65.43,45.73-88.65,0,12.44,1.66,203.5.87,216.36A167,167,0,0,0,229.84,792c-15.35,13.65-2.27,27.1,25.79,28.17,46.76,1.41,55-13.77,55.79-22.39.27-15.49-.7-63.44-.82-63.41.24-10.47-.2-20.55.68-26.62.77-5.35,3.54-7.62,7-7.73h.52c3.42.11,6.19,2.38,7,7.73.88,6.07.43,16.15.68,26.62-.12,0-1.09,47.92-.83,63.41.75,8.62,9,23.79,55.8,22.39,28.06-1.07,41.15-14.52,25.79-28.17-3.6-3.2-11.83-7.41-15-9.42-.8-12.87.3-205.78.34-218.22l0-3.33c2.79.57,4.37.77,4.37.77a133.62,133.62,0,0,0,30.9.31c26.47.41,39.2,11.47,39.2,11.47a49.64,49.64,0,0,0-16.46-14.83c16.95,1.49,25.68,7.75,25.68,7.75a50.59,50.59,0,0,0-15.24-12c14.37-5,30.08-12.61,47.45-23.66,6.84-3.46,34.69-19.15,20.39-39.12a33.76,33.76,0,0,0-3.55-5.37c2.1-2.68,10.48-16.33,4.62-21.5s-13.71-1-24.09,14.77a5.15,5.15,0,0,1-.48.59s-5.27-6.75-11.42-2c0,0-5.49,3.3-5.5,19.12-23.86,14.9-57,32.09-93.79,26.22,132.69-37,140.6-149.9,140.6-149.9,6.62-41.12.32-80.31-12.11-114.21C637.54,230.34,623,122.64,623,122.64Z"/><ellipse class="cls-1" cx="282.94" cy="160.51" rx="24.96" ry="33.33"/><ellipse cx="282.93" cy="160.52" rx="14.58" ry="19.47"/><ellipse class="cls-1" cx="341.7" cy="160.51" rx="24.96" ry="33.33"/><ellipse cx="341.69" cy="160.52" rx="14.58" ry="19.47"/><circle class="cls-2" cx="312.31" cy="203.84" r="7.18"/><path class="cls-3" d="M349.66,261c49.37-1.78,95.9-8.11,137.51-18.09-7.62,62.5-52.62,114-112.94,133.41-11.71-13.11-30.9-21.66-52.6-21.66s-41.08,8.64-52.78,21.85c-60.64-19.21-105.93-70.88-113.58-133.61,42.27,10.14,89.61,16.52,139.84,18.18C295.11,261.12,323.24,262.46,349.66,261Z"/><path class="cls-4" d="M321.63,354.7c-21.81,0-41.08,8.64-52.78,21.85a174.37,174.37,0,0,0,105.38-.2C362.52,363.25,343.33,354.7,321.63,354.7Z"/><rect class="cls-3" x="282.9" y="547.64" width="70.28" height="70.28" rx="3.75" ry="3.75"/><path class="cls-5" d="M333.21,594.29a2.38,2.38,0,0,0-3.25.87,13.75,13.75,0,0,1-23.83,0,2.38,2.38,0,1,0-4.12,2.39,18.51,18.51,0,0,0,32.08,0A2.38,2.38,0,0,0,333.21,594.29Z"/><path class="cls-5" d="M291.65,568.56a9.74,9.74,0,0,0,19.47,0,9.74,9.74,0,1,0-19.47,0Z"/><path class="cls-5" d="M325,568.56a9.74,9.74,0,0,0,19.47,0,9.74,9.74,0,1,0-19.47,0Z"/></g></g></svg>