<svg xmlns="http://www.w3.org/2000/svg" viewBox="0 0 615.01 255.72"><defs><style>.cls-1{fill:#ed003a;}.cls-2{fill:#fff;}.cls-3{fill:#17b6e1;}.cls-4{fill:#ff0042;}.cls-5{fill:#d9002b;}.cls-6{fill:#00dcd7;}.cls-7{fill:red;}.cls-8{fill:#231f20;}.cls-9{fill:#eb2d74;}.cls-10{fill:#c00058;}.cls-11{fill:#ff0;}.cls-12{fill:#ff0180;}</style></defs><title>tools-saved-it</title><g id="Layer_2" data-name="Layer 2"><g id="Layer_1-2" data-name="Layer 1"><path class="cls-1" d="M181.23,158.14c3.76-5.57,2-6.88,2-6.88a1.59,1.59,0,0,0-2.38-.11,11.18,11.18,0,0,0-1.84,2.44c-.86,1.42-1.84,2.95-2.67,4a38.64,38.64,0,0,1-4.66,5.17l0,0-.42-.21c-15.16,11.83-28.86,7.38-30.19,6.91l0-3.11c-12.08-9.74-24.6-7.22-24.6-7.22-17.11,0-19.12,7.22-19.12,7.22l.1,3.64-1-.57s-14.35,5.58-30.31-6.86l-.42.21,0,0a38.62,38.62,0,0,1-4.66-5.17c-.82-1.09-1.81-2.62-2.67-4a11.18,11.18,0,0,0-1.84-2.44,1.59,1.59,0,0,0-2.38.11s-1.75,1.31,2,6.88c0,0-5.45,3.26-2.37,8.36a9.83,9.83,0,0,0,5.06,4.34v0s17.06,14.46,38.75,9.23c0,9.62-.05,31.32-.09,46a3.15,3.15,0,0,1-.32-.25l.23,14.44a28,28,0,0,0-4.2,3.16,5,5,0,0,0-1.84,3.64,9.35,9.35,0,0,0-.2,3.79s.31,2,3.12,3.35a18.88,18.88,0,0,0,8.05,1.53s6.37.08,10.3-1.53c2.48-.86,4.84-2.55,5.59-4.47,0,0,.74-4.35.12-6.46a2.68,2.68,0,0,0-.8-1.13c0-6-.15-15.94-.15-15.94l-.11.06c0-2.35-.1-4.59-.1-6.25,0-3,.58-3.95,2.17-3.95,2.7,0,2.53,3.89,2.53,3.89l.12,6.28,0,0s.16,10.17.22,16.22a3.06,3.06,0,0,0-.6.85c-.62,2.11.12,6.46.12,6.46.74,1.92,3.11,3.61,5.59,4.47,3.93,1.61,10.3,1.53,10.3,1.53a18.88,18.88,0,0,0,8.05-1.53c2.81-1.39,2.84-3.35,2.84-3.35a11.19,11.19,0,0,0-.5-4.15l-.11-.08a6.12,6.12,0,0,0-1.71-3.19,20.13,20.13,0,0,0-3.71-3v-.25c0-1.24-.07-7.24-.2-14.69l-.2.15c-.35-14.13-.79-34.5-1-45.21,21.09,4.39,37.48-9.51,37.48-9.51v0a9.83,9.83,0,0,0,5.06-4.34C186.68,161.4,181.23,158.14,181.23,158.14Z"/><polygon class="cls-2" points="118.12 171 106.03 190.27 114.54 190.27 101.09 214.91 132.01 184.89 123.05 184.89 132.46 171 118.12 171"/><polygon class="cls-3" points="59.92 54.48 34.62 32.86 32.8 45.18 0 20.47 36.85 71.62 38.77 58.65 56.86 75.23 59.92 54.48"/><polygon class="cls-3" points="176.39 54.48 201.69 32.86 203.51 45.18 236.31 20.47 199.46 71.62 197.54 58.65 179.45 75.23 176.39 54.48"/><ellipse class="cls-2" cx="117.5" cy="104.42" rx="68.1" ry="62"/><path class="cls-4" d="M119.45,31.21s-82.19-3-78.59,73.94h0c4.08,63,61.29,66.76,77.51,66.76,19.88,0,73.46-4.69,76.8-66.76h0S201.25,33.38,119.45,31.21Z"/><path class="cls-2" d="M119.45,33.18c69.72,1.85,75.81,54.1,76.07,69.76.21-12.11-2.62-70-76.07-72,0,0-79.83-2.87-78.94,70.53C41.22,30.38,119.45,33.18,119.45,33.18Z"/><path class="cls-5" d="M195.2,99.1C191.85,161.37,138.34,166,118.4,166c-16.28,0-73.4-3.86-77.5-67h0q0-.87-.07-1.72c-.08,2.51-.1,5.1,0,7.8h0c4.1,63.16,61.29,67,77.57,67,19.94,0,73.45-4.71,76.79-67a54.87,54.87,0,0,0,0-6.45C195.21,99,195.2,99.1,195.2,99.1Z"/><circle class="cls-2" cx="148.47" cy="44.32" r="1.58"/><path class="cls-6" d="M118.37,56.81c-67-1.18-63.78,41.51-63.78,41.51-.16,4.82-1,62.77,63.77,62.77h0c64.78,0,63.93-58,63.77-62.77C182.15,98.33,185.35,55.63,118.37,56.81Z"/><path class="cls-3" d="M54.58,101.33C54.92,93,60,60.71,118.37,61.74c58.36-1,63.44,31.25,63.78,39.58,0-1.47,0-2.5,0-3,0,0,3.19-42.69-63.78-41.51-67-1.18-63.78,41.51-63.78,41.51C54.57,98.82,54.55,99.86,54.58,101.33Z"/><circle class="cls-7" cx="117.88" cy="91.49" r="2.25"/><path class="cls-2" d="M102.09,80.62A11.71,11.71,0,1,1,90.38,68.5,11.91,11.91,0,0,1,102.09,80.62Z"/><ellipse class="cls-8" cx="90.34" cy="80.65" rx="3.72" ry="3.85"/><path class="cls-2" d="M133.78,80.62A11.71,11.71,0,1,0,145.49,68.5,11.91,11.91,0,0,0,133.78,80.62Z"/><ellipse class="cls-8" cx="145.54" cy="80.65" rx="3.72" ry="3.85"/><path class="cls-9" d="M125.11,114a159.49,159.49,0,0,0,31.26-4.11c-1.73,14.21-12,25.92-25.67,30.33a17,17,0,0,0-24,0C93,135.9,82.66,124.16,80.92,109.9A159.79,159.79,0,0,0,112.71,114S119.1,114.34,125.11,114Z"/><path class="cls-10" d="M118.73,135.3a16,16,0,0,0-12,5,39.64,39.64,0,0,0,24,0A16,16,0,0,0,118.73,135.3Z"/><path class="cls-11" d="M159.59,117s66.31-14,66.31-40,5.62-64,41.86-64c10.67,0,41-7.41,105.24-9C527,.19,563.83,0,563.83,0s51,10,51,48,6,116-51,116S482,169,429,169s-147.5,6.5-154,0c-3.36-3.36-11.86-3.3-23.18-13-10.56-9-24.1-35-24.1-35s-12.08,8.46-32.37,7C167.52,126,159.59,117,159.59,117Z"/><path class="cls-12" d="M263.62,123.39,263,109a39.67,39.67,0,0,0,18.49,4.12c4.9-.21,8.59-2.87,8.41-7-.19-4.5-4.37-6.32-7.1-6.91l-6.47-1.53c-6.07-1.44-15.4-6.75-15.93-19.34-.52-12.19,10-19.94,21.65-20.44a41.17,41.17,0,0,1,16.2,2l.61,14.39A28.15,28.15,0,0,0,284,70.67c-4.9.21-9.38,3.1-9.18,7.8.18,4.2,4.65,5.81,7.38,6.49l5.46,1.37c8.29,2.05,16.12,7.22,16.6,18.51.58,13.69-9.3,21.41-22.19,22A41.21,41.21,0,0,1,263.62,123.39Z"/><path class="cls-12" d="M353.88,122.87l-12.29.52-.1-2.4a18.31,18.31,0,0,1-10.65,3.75c-12.19.52-22.21-9.27-22.73-21.46a22.45,22.45,0,1,1,44.86-1.9ZM330.06,92.25a10.05,10.05,0,1,0,10.42,9.67A10.05,10.05,0,0,0,330.06,92.25Z"/><path class="cls-12" d="M365.15,117.38l-13.7-37.56,13.29-.56,8.39,25.57,6.3-26.19,13.19-.56-10.37,38.58c-1.13,4.15-4.15,6.08-8.34,6.26S366.62,121.42,365.15,117.38Z"/><path class="cls-12" d="M436.59,104.85s-4.14,15.59-20.53,16.28a22.45,22.45,0,0,1-1.9-44.86c11.69-.5,22,8.38,22.39,18.07.19,4.6-2,8.29-7.45,8.52l-22.68,1a9.57,9.57,0,0,0,16.28,1.61ZM423.3,93.7a8.94,8.94,0,0,0-8.63-5.14A9.23,9.23,0,0,0,406,94.43Z"/><path class="cls-12" d="M484.75,95.8a22.45,22.45,0,0,1-44.86,1.9c-.52-12.29,8.64-22.89,20.83-23.4a18,18,0,0,1,10.42,2.56l-1.1-26,12.79-.54Zm-22.91-9.14a10.05,10.05,0,1,0,10.42,9.67A10.05,10.05,0,0,0,461.84,86.66Z"/><path class="cls-12" d="M515,52a7.6,7.6,0,1,1-7.27,7.92A7.6,7.6,0,0,1,515,52Zm-3.68,64.22L509.5,73.13l12.79-.54,1.83,43.06Z"/><path class="cls-12" d="M527.16,53,540,52.42l.82,19.38,8.09-.34.5,11.89-8.09.34.53,12.49c.2,4.8,3.39,6.66,6.88,6.51l2.2-.09.5,11.89-2.2.09c-13.49.57-19.76-8.07-20.18-17.86Z"/><path class="cls-12" d="M556.93,94l-2.26-53.41L569.5,40l2.26,53.41Zm7.65,3.75a8.58,8.58,0,1,1,.73,17.14,8.58,8.58,0,0,1-.73-17.14Z"/></g></g></svg>