<svg xmlns="http://www.w3.org/2000/svg" viewBox="0 0 615.01 255.72"><defs><style>.cls-1{fill:#ed003a}.cls-2{fill:#fff}.cls-3{fill:#17b6e1}.cls-4{fill:#ff0042}.cls-5{fill:#d9002b}.cls-6{fill:#00dcd7}.cls-7{fill:red}.cls-8{fill:#231f20}.cls-9{fill:#eb2d74}.cls-10{fill:#c00058}.cls-11{fill:#ff0}.cls-12{fill:#ff0180}</style></defs><title>tools-saved-it2x</title><g id="Layer_2" data-name="Layer 2"><g id="Layer_1-2" data-name="Layer 1"><path class="cls-1" d="M140.94 169.49s14.35 5.58 30.31-6.86c0 0 6.89 3.15 7.31 8.23 0 0-22.73 19.29-49.09 5.28"/><path class="cls-1" d="M177.18 171.17a9.46 9.46 0 0 0 6.43-4.68c3.08-5.1-2.37-8.36-2.37-8.36 3.76-5.57 2-6.88 2-6.88a1.59 1.59 0 0 0-2.38-.11 11.17 11.17 0 0 0-1.84 2.44c-.86 1.42-1.84 2.95-2.67 4a38.63 38.63 0 0 1-4.66 5.17s-1.71 1.72.83 4.9a11 11 0 0 0 4.66 3.52zM96.47 169.49s-14.35 5.58-30.31-6.86c0 0-6.89 3.15-7.31 8.23 0 0 22.73 19.29 49.09 5.28"/><path class="cls-1" d="M60.23 171.17a9.46 9.46 0 0 1-6.43-4.68c-3.08-5.1 2.37-8.36 2.37-8.36-3.76-5.57-2-6.88-2-6.88a1.59 1.59 0 0 1 2.38-.11 11.17 11.17 0 0 1 1.84 2.44c.86 1.42 1.84 2.95 2.67 4a38.63 38.63 0 0 0 4.66 5.17s1.71 1.72-.83 4.9a11 11 0 0 1-4.66 3.52zM91.43 246.87a9.64 9.64 0 0 0-.25 4s.31 2 3.12 3.35a18.88 18.88 0 0 0 8.05 1.53s6.37.08 10.3-1.53c2.48-.86 4.84-2.55 5.59-4.47 0 0 .74-4.35.12-6.46 0 0-.73-2.68-5.59-2.23.02-.06-18.11 3.2-21.34 5.81zM148 246.69a11.18 11.18 0 0 1 .5 4.15s0 2-2.84 3.35a18.88 18.88 0 0 1-8.05 1.53s-6.37.08-10.3-1.53c-2.48-.86-4.84-2.55-5.59-4.47 0 0-.74-4.35-.12-6.46 0 0 1.11-2.74 5.59-2.23 0-.03 17.59 3.05 20.81 5.66z"/><path class="cls-1" d="M141 175.7c.19 12.06 1.32 63.17 1.52 65.1a23.27 23.27 0 0 1 3 2.27c4.52 4 1.24 7.81-7.59 8.28-13.74.41-15.77-20.74-15.77-20.74l-.21-10.68s.17-3.89-2.53-3.89c-1.59 0-2.17.93-2.17 3.95 0 1.73.16 4.09.1 6.56v15.84c0 .15.07.29.1.44a6.61 6.61 0 0 1 0 2.06c-.22 2.54-2.52 7.06-16.27 6.65-8.25-.32-3.85-7.81-3.69-10.88 0-1.81.14-60.31.13-65.15l-.24-9.08s2-7.22 19.12-7.22c0 0 12.52-2.52 24.6 7.22"/><path class="cls-1" d="M117.43 226.19c-3 1.9-8 1.87-10.9 1.87-7 0-9.33-2.25-9.33-2.25l.23 14.44a28 28 0 0 0-4.2 3.16c-4.38 4.29-.68 8.09 7.7 8.4 13.95.42 16.42-4.11 16.64-6.68.07-4.61-.14-18.94-.14-18.94zM122.22 245.14c.22 2.57 2.32 7.1 16.27 6.68 8.37-.32 11.8-3.85 7.7-8.4a20.21 20.21 0 0 0-3.72-3s-.06-6.56-.2-14.94c0 0-3.07 2.44-9.47 2.54-2.91 0-7.49 0-10.81-1.78.01-.05.21 13.99.23 18.9z"/><path class="cls-2" d="M118.12 171l-12.09 19.27h8.51l-13.45 24.64 30.92-30.02h-8.96l9.41-13.89h-14.34z"/><path class="cls-3" d="M59.92 54.48l-25.3-21.62-1.82 12.32L0 20.47l36.85 51.15 1.92-12.97 18.09 16.58 3.06-20.75zM176.39 54.48l25.3-21.62 1.82 12.32 32.8-24.71-36.85 51.15-1.92-12.97-18.09 16.58-3.06-20.75z"/><ellipse class="cls-2" cx="117.5" cy="104.42" rx="68.1" ry="62"/><path class="cls-4" d="M119.45 31S37 28 40.62 105.16c4.1 63.16 61.47 67 77.75 67 19.94 0 73.69-4.7 77-67S201.5 33.18 119.45 31z"/><path class="cls-2" d="M119.45 33.18c69.72 1.85 75.81 54.1 76.07 69.76.21-12.11-2.62-70-76.07-72 0 0-79.83-2.87-78.94 70.53.71-71.09 78.94-68.29 78.94-68.29z"/><path class="cls-2" d="M97.8 33.14c-11.21 2.29-27.1 7.49-39.15 19.25-12.3 12-18.41 28.54-18.16 49.14h.05c.2-19.82 6.46-35.75 18.61-47.36S87 37.57 98 35.33a102.44 102.44 0 0 1 21.4-2.12c69.53 1.85 75.78 53.85 76 69.74.12-6.62-.66-23.76-10.41-39.8a60.92 60.92 0 0 0-22.76-21.81c-11.56-6.43-26-9.92-42.91-10.37a102.72 102.72 0 0 0-21.52 2.17zM58.68 52.43c12-11.75 27.92-16.95 39.12-19.24A102.63 102.63 0 0 1 119.45 31c16.91.45 31.34 3.94 42.89 10.36a60.87 60.87 0 0 1 22.75 21.79c9 14.86 10.36 30.63 10.41 38.13-.68-17.55-8.7-66.36-76-68.15A102.5 102.5 0 0 0 98 35.28c-11.1 2.24-26.86 7.33-38.92 18.85-11.77 11.24-18 26.55-18.57 45.49.18-19.69 6.27-35.56 18.17-47.19zm60.77-19.27z"/><path class="cls-5" d="M195.43 99.08c-3.34 62.26-57.09 67-77 67-16.28 0-73.65-3.8-77.75-67q0-.87-.07-1.72c-.08 2.51-.06 5.1.07 7.8 4.1 63.16 61.47 67 77.75 67 19.94 0 73.69-4.7 77-67a55.88 55.88 0 0 0 0-6.48c.01.26 0 .4 0 .4z"/><circle class="cls-2" cx="148.47" cy="44.32" r="1.58"/><path class="cls-6" d="M118.37 56.81c-67-1.18-63.78 41.51-63.78 41.51-.16 4.82-1 62.77 63.77 62.77 64.78 0 63.93-58 63.77-62.77.02.01 3.22-42.69-63.76-41.51z"/><path class="cls-3" d="M54.58 101.33C54.92 93 60 60.71 118.37 61.74c58.36-1 63.44 31.25 63.78 39.58v-3s3.19-42.69-63.78-41.51c-67-1.18-63.78 41.51-63.78 41.51-.02.5-.04 1.54-.01 3.01z"/><circle class="cls-7" cx="117.88" cy="91.49" r="2.25"/><path class="cls-2" d="M102.09 80.62A11.71 11.71 0 1 1 90.38 68.5a11.91 11.91 0 0 1 11.71 12.12z"/><ellipse class="cls-8" cx="90.34" cy="80.65" rx="3.72" ry="3.85"/><path class="cls-2" d="M133.78 80.62a11.71 11.71 0 1 0 11.71-12.12 11.91 11.91 0 0 0-11.71 12.12z"/><ellipse class="cls-8" cx="145.54" cy="80.65" rx="3.72" ry="3.85"/><path class="cls-9" d="M125.11 114a159.49 159.49 0 0 0 31.26-4.11c-1.73 14.21-12 25.92-25.67 30.33a17 17 0 0 0-24 0C93 135.9 82.66 124.16 80.92 109.9a159.79 159.79 0 0 0 31.79 4.1s6.39.34 12.4 0z"/><path class="cls-10" d="M118.73 135.3a16 16 0 0 0-12 5 39.64 39.64 0 0 0 24 0 16 16 0 0 0-12-5z"/><path class="cls-3" d="M38.28 52.82l-.33 2.23-2.06.16 2.13.24.16 2.6.31-2.6 2.15-.2-2.12-.24-.24-2.19z"/><path class="cls-11" d="M159.59 117s66.31-14 66.31-40 5.62-64 41.86-64c10.67 0 41-7.41 105.24-9C527 .19 563.83 0 563.83 0s51 10 51 48 6 116-51 116S482 169 429 169s-147.5 6.5-154 0c-3.36-3.36-11.86-3.3-23.18-13-10.56-9-24.1-35-24.1-35s-12.08 8.46-32.37 7c-27.83-2-35.76-11-35.76-11z"/><path class="cls-12" d="M263.62 123.39L263 109a39.67 39.67 0 0 0 18.49 4.12c4.9-.21 8.59-2.87 8.41-7-.19-4.5-4.37-6.32-7.1-6.91l-6.47-1.53c-6.07-1.44-15.4-6.75-15.93-19.34-.52-12.19 10-19.94 21.65-20.44a41.17 41.17 0 0 1 16.2 2l.61 14.39A28.15 28.15 0 0 0 284 70.67c-4.9.21-9.38 3.1-9.18 7.8.18 4.2 4.65 5.81 7.38 6.49l5.46 1.37c8.29 2.05 16.12 7.22 16.6 18.51.58 13.69-9.3 21.41-22.19 22a41.21 41.21 0 0 1-18.45-3.45zM353.88 122.87l-12.29.52-.1-2.4a18.31 18.31 0 0 1-10.65 3.75c-12.19.52-22.21-9.27-22.73-21.46a22.45 22.45 0 1 1 44.86-1.9zm-23.82-30.62a10.05 10.05 0 1 0 10.42 9.67 10.05 10.05 0 0 0-10.42-9.67zM365.15 117.38l-13.7-37.56 13.29-.56 8.39 25.57 6.3-26.19 13.19-.56-10.37 38.58c-1.13 4.15-4.15 6.08-8.34 6.26s-7.29-1.5-8.76-5.54zM436.59 104.85s-4.14 15.59-20.53 16.28a22.45 22.45 0 0 1-1.9-44.86c11.69-.5 22 8.38 22.39 18.07.19 4.6-2 8.29-7.45 8.52l-22.68 1a9.57 9.57 0 0 0 16.28 1.61zM423.3 93.7a8.94 8.94 0 0 0-8.63-5.14 9.22 9.22 0 0 0-8.67 5.87zM484.75 95.8a22.45 22.45 0 0 1-44.86 1.9c-.52-12.29 8.64-22.89 20.83-23.4a18 18 0 0 1 10.42 2.56l-1.1-26 12.79-.54zm-22.91-9.14a10.05 10.05 0 1 0 10.42 9.67 10.05 10.05 0 0 0-10.42-9.67zM515 52a7.6 7.6 0 1 1-7.27 7.92A7.6 7.6 0 0 1 515 52zm-3.68 64.22l-1.82-43.09 12.79-.54 1.83 43.06zM527.16 53l12.84-.58.82 19.38 8.09-.34.5 11.89-8.09.34.53 12.49c.2 4.8 3.38 6.66 6.88 6.51l2.2-.09.5 11.89-2.2.09c-13.49.57-19.76-8.07-20.18-17.86zM556.93 94l-2.26-53.41L569.5 40l2.26 53.41zm7.65 3.75a8.58 8.58 0 1 1 .73 17.14 8.58 8.58 0 0 1-.73-17.14z"/></g></g></svg>