<svg xmlns="http://www.w3.org/2000/svg" viewBox="0 0 541.39 255.59"><defs><style>.cls-1{fill:#9abd00}.cls-2{fill:#ebcf60}.cls-3{fill:#ffe77c}.cls-4{fill:#b3d700}.cls-5{fill:#deed8d}.cls-6{fill:#fdefa2}.cls-7{fill:#fff}.cls-8{fill:#e6231e}.cls-9{fill:#ff0}.cls-10{fill:#ff0180}</style></defs><title>tools-uh-oh2x</title><g id="Layer_2" data-name="Layer 2"><g id="Layer_1-2" data-name="Layer 1"><path class="cls-1" d="M68.51.08a164.45 164.45 0 0 0-21.64 2.43l13.3 2.09z"/><path class="cls-2" d="M92.82 203.08c-6-19.49-6.64-45.6-6.64-45.6l-11.07-3.42-.08-.78-.87.49-.95-.3.08.78-10.12 5.65s4.84 25.66 3 46c0 0-2.12 24.9 15.84 22.53 18.06-1.43 10.81-25.35 10.81-25.35z"/><path class="cls-3" d="M89.27 203.46c-6-19.49-6.63-45.6-6.63-45.6l-11.07-3.42-.08-.78-.86.49-1-.29.08.78-10.12 5.65s4.84 25.66 3 46c0 0-2.12 24.9 15.84 22.53 18.1-1.45 10.84-25.36 10.84-25.36z"/><path class="cls-1" d="M85.05 2.49c1.06.39-6.24 4.31-6.25 6.47-.06 8.57 2.39 25.44 6.12 28.43 9.72 7.8 12.78 6.71 31.17 13.5 1.32.49 10.45-1 11 .63a94 94 0 0 1 5.54 24.22c4.74 45-4.85 82.87-48.14 87.43C42.1 167.63 24 132.66 19.24 87.68S36 3.54 67.37.24a37 37 0 0 1 17.68 2.25z"/><path class="cls-1" d="M85.66 163A165.47 165.47 0 0 1 64 165.1l12.57-4.82z"/><path class="cls-4" d="M114.08 77.69c4.74 45-4.85 82.87-48.14 87.43-42.43 4.47-60.55-30.5-65.29-75.49S17.47 5.5 48.79 2.2s60.55 30.5 65.29 75.49z"/><path class="cls-5" d="M68 5.07s-3.93 10.48 4.67 15.61c0 0-3.13 11.73 6 15.81 0 0-.59 13.48 13.34 12 0 0 3.21 11.41 16.19 4 0 0 3.84-1.75 12-.59l3.91-1.08h3s-15.1-.09-17.39-5.88c0 0-8.54-1.45-7.85-13.94 0 0-9.38-3-8.92-11.47 0 0-15.3-5.1-7.83-17l-7.37.1z"/><path class="cls-4" d="M91.38 242.24l11.12-4 7.12 4.89-6.67 1.78-5.34-.88-8.45 2.22 2.22-4.01zM125.19 240.47l4-.45 5.34 3.11-4.89.45-4.45-3.11zM107.84 252.48l8.01-3.12 1.33 5.79-4.89.44-4.45-3.11z"/><path class="cls-6" d="M90.67 53.05s-6.35 20.28 2.62 19.86c0 0 9.49-.46-2.62-19.86z"/><path class="cls-3" d="M46.6 74.28s1.67 10.85-15.27 14.47c0 0-17.1 2.06-15.23 12.36 0 0-4.9-9.19 10.08-13.92 0 0 4.1-1 7.7-1.6 0 .01 11.34-1.97 12.72-11.31zM63.73 72.48s.63 11 18 11c0 0 17.16-1.54 17.47 8.92 0 0 2.88-10-12.76-11.52 0 0-4.21-.08-7.87 0-.04.02-11.57.44-14.84-8.4z"/><ellipse class="cls-7" cx="37.2" cy="108.12" rx="10.67" ry="10.97" transform="rotate(-8.11 37.2 108.185)"/><ellipse cx="37.87" cy="106.32" rx="5.14" ry="5.29" transform="rotate(-8.11 37.895 106.39)"/><ellipse class="cls-8" cx="64.2" cy="130.12" rx="6.5" ry="7.65" transform="rotate(-11.19 64.187 130.114)"/><ellipse class="cls-7" cx="82.07" cy="101.72" rx="10.67" ry="10.97" transform="rotate(-8.11 82.098 101.798)"/><ellipse cx="82.73" cy="99.92" rx="5.14" ry="5.29" transform="rotate(-8.11 82.797 99.934)"/><ellipse class="cls-7" cx="38.8" cy="103.18" rx="1.32" ry=".92" transform="rotate(-8.11 38.83 103.196)"/><ellipse class="cls-7" cx="83.93" cy="96.74" rx="1.32" ry=".92" transform="rotate(-8.11 83.944 96.754)"/><path class="cls-9" d="M76 129.92s66.31-14 66.31-40 5.62-64 41.86-64c10.67 0 41-7.41 105.24-9 154-3.81 200.83-4 200.83-4s51 10 51 48 6 116-51 116-91.83 5-144.83 5-147.5 6.5-154 0c-3.36-3.36-11.86-3.3-23.18-13-10.56-9-24.1-35-24.1-35s-12.08 8.46-32.37 7c-27.87-2-35.76-11-35.76-11z"/><path class="cls-10" d="M193.29 118.57l-2-46.6 15.83-.67 2 46.6c.41 9.56 6.7 12.71 12.31 12.47s11.5-3.9 11.1-13.46l-2-46.6 15.83-.67 2 46.6c.72 17-9.91 28.5-26.29 29.19s-28.07-9.83-28.78-26.86zM254.62 69.29l14.07-.6 1.16 27.25a17.33 17.33 0 0 1 8.15-2.32c11.87-.5 20.12 7.18 20.71 21.14l1.12 26.38-14.18.6-1.12-26.38c-.22-5.17-2.36-8.82-7.3-8.61s-6.76 4.25-6.55 9.2l1.12 26.38-14.07.6zM305.17 106.12l24-1 .52 12.2-24 1zM372.39 63.3a37.84 37.84 0 1 1-36.2 39.41 37.84 37.84 0 0 1 36.2-39.41zm2.53 59.79A22 22 0 1 0 352 102a22.09 22.09 0 0 0 22.92 21.09zM417.38 62.39l14.07-.6L432.6 89a17.32 17.32 0 0 1 8.16-2.33c11.87-.5 20.12 7.18 20.71 21.14l1.12 26.38-14.18.6-1.12-26.38c-.22-5.17-2.36-8.82-7.3-8.61s-6.76 4.25-6.55 9.2l1.12 26.38-14.07.6zM471.07 111.78l-2.47-58.27 16.18-.69 2.47 58.27zm8.34 4.09a9.36 9.36 0 0 1 .79 18.7 9.36 9.36 0 0 1-.79-18.7z"/></g></g></svg>