<svg id="Layer_1" data-name="Layer 1" xmlns="http://www.w3.org/2000/svg" viewBox="0 0 100 100"><defs><style>.cls-1{fill:#f09}.cls-2{fill:#fff}</style></defs><title>default-icon-venti</title><path class="cls-1" d="M20.87 99.88l-1-9.3-.37-.58c.08-.2.17-.39.26-.58l-.13-.26-.14-.3c.1-.19.21-.37.32-.55-.08-.19-.15-.38-.22-.58.12-.18.24-.35.37-.52-.06-.2-.12-.4-.17-.6.13-.17.27-.33.41-.48 0-.2-.08-.41-.11-.62.15-.16.3-.3.46-.45 0-.21 0-.42-.05-.63.17-.14.33-.28.5-.4v-.63c.18-.12.35-.24.53-.35v-.39-.24l.56-.3c0-.21.08-.41.13-.62l.59-.24.18-.6.61-.19c.07-.19.15-.38.24-.58l.63-.13q.14-.28.29-.56l.63-.07.18-.12.29-.2 13-8.79a18.82 18.82 0 0 1-4.33-5.06 2.42 2.42 0 0 1 4.19-2.43 14 14 0 0 0 24.24 0 2.42 2.42 0 1 1 4.19 2.43A18.92 18.92 0 0 1 51 74.31a18.72 18.72 0 0 1-8-1.79L27.83 82.83c0 .09-.05.18-.08.28v.18l-.47-.06c0 .16-.06.31-.08.47h-.47v.47h-.47v.47l-.47.07c0 .16 0 .31.05.47l-.45.11c0 .15.06.31.1.46L25 86c0 .13.08.25.12.38l-.43.2c.05.15.12.29.18.43l-.41.24c.07.14.15.28.22.42l-.38.27c.08.14.17.27.26.39l-.36.31.29.37-.33.34.33.34-.3.37v.05l1.09 9.7"/><path class="cls-1" d="M100 0H0v100h22c-.38-1.59-.86-4-.92-4.23-.7-2.93-1.76-5.82-1.2-8.86.76-4.13 3.87-6.7 7.18-8.92Q33 74 39 69.95a18.56 18.56 0 0 1-4.89-6.12c.64-3.13 3.7-3.19 4.76-1.37a14 14 0 0 0 24.76-1c3.11-1.09 4.74 1.57 3.67 3.41A18.92 18.92 0 0 1 51 74.31a18.72 18.72 0 0 1-8-1.79l-7.2 4.87-5.16 3.5-1.85 1.26c-1.4 1-3.05 2.21-3.75 3.84-2 4.74.89 8.25 1 14H100z"/><path class="cls-2" d="M25.09 86c.69-1.63 2.34-2.87 3.75-3.84l1.85-1.26 5.16-3.5L43 72.52a18.72 18.72 0 0 0 8 1.79 18.92 18.92 0 0 0 16.31-9.42 2.42 2.42 0 1 0-4.19-2.43 14 14 0 0 1-24.24 0 2.42 2.42 0 0 0-4.19 2.43A18.82 18.82 0 0 0 39 69.95Q33 74 27 78c-3.31 2.22-6.42 4.79-7.18 8.92-.56 3 .5 5.93 1.2 8.86.06.26.54 2.64.92 4.23h4.55l-1.09-4.84c-.76-3.23-1.7-5.91-.31-9.17zM23.73 35.42a9.9 9.9 0 0 0 19.8 0 9.9 9.9 0 1 0-19.8 0zM57.61 35.42a9.9 9.9 0 0 0 19.8 0 9.9 9.9 0 1 0-19.8 0z"/></svg>