<svg id="Layer_1" data-name="Layer 1" xmlns="http://www.w3.org/2000/svg" viewBox="0 0 9 7.75"><defs><style>.cls-1{fill:#ff0200}.cls-2{fill:#fff}</style></defs><title>like-tiny</title><path class="cls-1" d="M0 2.37a2.37 2.37 0 0 1 4.5-1 2.37 2.37 0 0 1 4.5 1c0 3.11-4.5 5.38-4.5 5.38S0 5.48 0 2.37"/><path class="cls-2" d="M5.81 4.87a.21.21 0 0 0-.28.07 1.19 1.19 0 0 1-2.06 0 .21.21 0 1 0-.36.21 1.6 1.6 0 0 0 2.77 0 .21.21 0 0 0-.07-.28zM2.22 2.65a.84.84 0 0 0 1.68 0 .84.84 0 1 0-1.68 0zM5.1 2.65a.84.84 0 0 0 1.68 0 .84.84 0 1 0-1.68 0z"/></svg>