<svg id="Layer_1" data-name="Layer 1" xmlns="http://www.w3.org/2000/svg" viewBox="0 0 13.5 11.63"><defs><style>.cls-1{fill:#ff0200}.cls-2{fill:#fff}</style></defs><title>liked-this</title><path class="cls-1" d="M6.75 8.74a3.56 3.56 0 0 1 6.75-1.56 3.56 3.56 0 0 1 6.75 1.56c0 4.67-6.75 8.07-6.75 8.07s-6.75-3.4-6.75-8.07" transform="translate(-6.75 -5.19)"/><path class="cls-2" d="M15.47 12.49a.31.31 0 0 0-.42.11 1.78 1.78 0 0 1-3.09 0 .31.31 0 1 0-.53.31 2.4 2.4 0 0 0 4.16 0 .31.31 0 0 0-.12-.42zM10.08 9.16a1.26 1.26 0 0 0 2.53 0 1.26 1.26 0 1 0-2.53 0zM14.4 9.16a1.26 1.26 0 0 0 2.53 0 1.26 1.26 0 1 0-2.53 0z" transform="translate(-6.75 -5.19)"/></svg>