<svg xmlns="http://www.w3.org/2000/svg" width="15.33" height="13.32" viewBox="0 0 15.33 13.32"><defs><style>.a { fill: #fff; } .b { fill: #ff0200; }</style></defs><title>like-this</title><path class="a" d="M0 4.16a4 4 0 0 1 7.66-1.77 4 4 0 0 1 7.66 1.77c0 5.3-7.66 9.16-7.66 9.16S0 9.47 0 4.16"/><path class="b" d="M9.93 8.42a.35.35 0 0 0-.48.13 2 2 0 0 1-3.51 0 .35.35 0 1 0-.61.35 2.73 2.73 0 0 0 4.72 0 .35.35 0 0 0-.12-.48zM3.78 4.64a1.43 1.43 0 1 0 2.87 0 1.43 1.43 0 1 0-2.87 0zm4.9 0a1.43 1.43 0 1 0 2.87 0 1.43 1.43 0 1 0-2.87 0z"/></svg>