<svg xmlns="http://www.w3.org/2000/svg" viewBox="0 0 181.38 272.41"><defs><style>.cls-1{isolation:isolate;}.cls-2{fill:#3ad7d7;}.cls-3{fill:#fff200;}.cls-12,.cls-4{fill:#fff;}.cls-5{fill:#00aaa6;}.cls-6{fill:#f8bc16;}.cls-7{fill:#ff4c62;}.cls-13,.cls-17,.cls-8{fill:#231f20;}.cls-12,.cls-16,.cls-8{opacity:0.3;}.cls-13,.cls-16,.cls-8{mix-blend-mode:overlay;}.cls-9{fill:#00b9bf;}.cls-10{fill:#641803;}.cls-11{fill:#ffc931;}.cls-13{opacity:0.4;}.cls-14{fill:#ff6b8d;}.cls-15{fill:#95dd4a;}</style></defs><title>membership-friend</title><g class="cls-1"><g id="Layer_2" data-name="Layer 2"><g id="Layer_1-2" data-name="Layer 1"><path class="cls-2" d="M166.43,191.81c5.29-3.25,2.44-7.72,2.44-7.72-4.37-6-14.73,3.72-15.22,4.18a210.59,210.59,0,0,1-43.79-4.19,10.72,10.72,0,0,0,1.52-4c53.14-10.86,56.19-54.31,56.19-54.31,3.9-24.23-2.46-44.67-15-59.43C134,44.59,101.86,35.19,69.09,44.22,32.38,54.35,7.68,86.5,14.17,125.78c0,0,4.17,43.53,54.67,54.26a9.22,9.22,0,0,0,1.42,4.34A210.43,210.43,0,0,1,28,188.27c-.49-.46-10.85-10.14-15.22-4.18,0,0-2.85,4.47,2.44,7.72,0,0-14.87-2.65-13.42,8.54,0,0,.81,12.2,13.42,12.2,0,0,10.85.27,17.84-6.82a168.56,168.56,0,0,0,40.86-7.3A93.16,93.16,0,0,0,64.21,225a3.38,3.38,0,0,0-.26,1.21c0,3.58,6,6.69,14.83,8.22v18.57h0v8.22c-1.47.27-6.45,1.66-6.45,8.26,0,0,1.55,2.36,6.3,2.71a14.29,14.29,0,0,0,5.42-.4l5.86-2.23V259.38l0-6.33h0v-1.21l0-2.95,0,0V235.49h2.63v13.38l0-.06,0,4.23h0l.13,16.56,5.86,2.23a13.21,13.21,0,0,0,5,.53c5-.25,6.76-2.84,6.76-2.84,0-6.6-5-8-6.46-8.26V248.91a.59.59,0,0,1-.06.25V234.48c8.79-1.54,14.8-4.64,14.8-8.22a3.17,3.17,0,0,0-.09-.59h.06A93.42,93.42,0,0,0,109,198.82a169.28,169.28,0,0,0,39.62,6.9c7,7.09,17.84,6.82,17.84,6.82,12.6,0,13.42-12.2,13.42-12.2C181.29,189.16,166.43,191.81,166.43,191.81Z"/><path class="cls-3" d="M160.19,116.05c0,31.76-31.23,57.9-69.76,57.9s-69.76-26.14-69.76-57.9c0-36,31.24-46.88,69.76-46.88S160.19,76.75,160.19,116.05Z"/><path class="cls-4" d="M114.43,104.37c0,6.08,4.56,11,10.24,11s10.24-4.93,10.24-11-4.59-11-10.24-11S114.43,98.3,114.43,104.37Z"/><circle class="cls-5" cx="126.79" cy="102.4" r="5.8"/><circle class="cls-4" cx="125.11" cy="98.51" r="1.74"/><path class="cls-4" d="M47.2,104.37c0,6.08,4.56,11,10.24,11s10.24-4.93,10.24-11-4.59-11-10.24-11S47.2,98.3,47.2,104.37Z"/><circle class="cls-5" cx="59.55" cy="102.4" r="5.8"/><circle class="cls-4" cx="57.87" cy="98.51" r="1.74"/><path class="cls-6" d="M85.35,112.36a3.35,3.35,0,1,0,3.34-3.5A3.42,3.42,0,0,0,85.35,112.36Z"/><path class="cls-7" d="M119,134.19c-5.22,16-18.68,26.66-32.91,24.84s-24.39-15.25-25.61-31.81C84.23,133.5,100.82,134.15,119,134.19Z"/><path class="cls-6" d="M98.45,69.4s-11,12.38-40.34,9.91l10.26-4.6S62,77.18,51,74.7C51,74.7,68.37,66.21,98.45,69.4Z"/><path class="cls-2" d="M141.14,31.46l-12.69-9.92L111.8,48.05c-1.11,1.86,10.89,13.85,12.75,12.75l26.51-16.66Z"/><polygon class="cls-8" points="128.45 21.54 126.91 24.14 148.46 45.69 151.06 44.14 149.68 42.38 130.22 22.91 128.45 21.54"/><path class="cls-2" d="M155.64,42.11,130.49,17a2.94,2.94,0,1,0-4.15,4.15l25.14,25.14a2.94,2.94,0,1,0,4.15-4.15Z"/><path class="cls-9" d="M126.34,21.11l25.14,25.14a2.94,2.94,0,0,0,4.15,0L126.34,17A2.94,2.94,0,0,0,126.34,21.11Z"/><path class="cls-5" d="M155.64,42.11l-9.3-9.3c.75.75.44,2.3-.71,3.44s-2.69,1.46-3.44.71l9.3,9.3a2.94,2.94,0,1,0,4.15-4.15Z"/><path class="cls-10" d="M164.85,13.38a19.68,19.68,0,0,0-2.4-3.29,20,20,0,0,0-4.73-3.85Z"/><path class="cls-11" d="M156.21,41.41a18.88,18.88,0,1,0-25.41-24.13l15.86,15.86a1.63,1.63,0,0,1-.39,1.66l-2.92,2.92a1.73,1.73,0,0,0,2.45,2.45l1.85-1.85a1.45,1.45,0,1,1,2,2,1.54,1.54,0,0,0,0,2.18l.62.62a2.15,2.15,0,0,0,2.76.23l2.15-1.53h0C155.56,41.75,155.89,41.57,156.21,41.41Z"/><circle class="cls-12" cx="147.41" cy="12.05" r="3.34" transform="translate(34.66 107.77) rotate(-45)"/><path class="cls-13" d="M155.33,41.77c.33-.13.65-.26,1-.41a2.94,2.94,0,0,0-.22-.25L131.25,16.27c-.15.33-.29.66-.42,1Z"/><path class="cls-13" d="M156.21,41.41a18.88,18.88,0,0,0,9-25.59,18.88,18.88,0,0,1-23.59,12.32l5,5a1.63,1.63,0,0,1-.39,1.66l-2.92,2.92a1.73,1.73,0,0,0,2.45,2.45l1.85-1.85a1.45,1.45,0,1,1,2,2,1.54,1.54,0,0,0,0,2.18l.62.62a2.15,2.15,0,0,0,2.76.23l2.15-1.53h0C155.56,41.75,155.89,41.57,156.21,41.41Z"/><path class="cls-14" d="M177.27,27.09A16.27,16.27,0,0,0,153.61,4.77c-.36.36-.7.74-1,1.13l3.27,6.84a4.08,4.08,0,0,1-.79,4.64L153,19.45a2,2,0,0,0-.21,2.66,2,2,0,0,0,3,.16,1.58,1.58,0,0,1,2.25,0l0,0a1.63,1.63,0,0,1,0,2.31L155,27.68a2,2,0,0,0-.1,2.78,2,2,0,0,0,2.81,0l.52-.52a1.7,1.7,0,0,1,2.27-.16,1.65,1.65,0,0,1,.12,2.44l-2,2a1.82,1.82,0,0,0-.17,2.43,1.77,1.77,0,0,0,2.62.13l4.26-4.26h0A16.22,16.22,0,0,0,177.27,27.09Z"/><circle class="cls-12" cx="164.3" cy="5.76" r="2.88" transform="translate(44.05 117.87) rotate(-45)"/><path class="cls-13" d="M179.68,9a16.27,16.27,0,0,1-20.56,10.54l.08.17a5,5,0,0,1-1.17,4.9l-3.11,3.11a2,2,0,1,0,2.77,2.77l.57-.57a1.65,1.65,0,0,1,2.34,2.34l-2,2a1.77,1.77,0,1,0,2.5,2.5l4.26-4.26A16.27,16.27,0,0,0,179.68,9Z"/><path class="cls-2" d="M43.32,35.85,56,25.93,72.66,52.45c1.11,1.86-10.89,13.85-12.75,12.75L33.4,48.54Z"/><polygon class="cls-8" points="56.01 25.93 57.56 28.53 36.01 50.09 33.4 48.54 34.78 46.77 54.25 27.31 56.01 25.93"/><path class="cls-2" d="M28.83,46.5,54,21.36a2.94,2.94,0,1,1,4.15,4.15L33,50.65a2.94,2.94,0,1,1-4.15-4.15Z"/><path class="cls-9" d="M58.12,25.51,33,50.65a2.94,2.94,0,0,1-4.15,0l29.3-29.3A2.94,2.94,0,0,1,58.12,25.51Z"/><path class="cls-5" d="M28.83,46.5l9.3-9.3c-.75.75-.44,2.3.71,3.44s2.69,1.46,3.44.71L33,50.65a2.94,2.94,0,1,1-4.15-4.15Z"/><path class="cls-15" d="M28.25,45.8A18.88,18.88,0,1,1,53.66,21.67L37.79,37.53a1.63,1.63,0,0,0,.39,1.66l2.92,2.92a1.73,1.73,0,0,1-2.45,2.45l-1.85-1.85a1.45,1.45,0,1,0-2,2,1.54,1.54,0,0,1,0,2.18l-.62.62a2.15,2.15,0,0,1-2.76.23l-2.15-1.53h0C28.91,46.15,28.57,46,28.25,45.8Z"/><circle class="cls-12" cx="37.05" cy="16.44" r="3.34" transform="translate(-0.77 31.01) rotate(-45)"/><path class="cls-13" d="M29.13,46.16c-.33-.13-.65-.26-1-.41a2.94,2.94,0,0,1,.22-.25L53.22,20.67c.15.33.29.66.42,1Z"/><path class="cls-13" d="M28.25,45.8a18.88,18.88,0,0,1-9-25.59A18.88,18.88,0,0,0,42.8,32.53l-5,5a1.63,1.63,0,0,0,.39,1.66l2.92,2.92a1.73,1.73,0,0,1-2.45,2.45l-1.85-1.85a1.45,1.45,0,1,0-2,2,1.54,1.54,0,0,1,0,2.18l-.62.62a2.15,2.15,0,0,1-2.76.23l-2.15-1.53h0C28.91,46.15,28.57,46,28.25,45.8Z"/><path class="cls-14" d="M32.51,197.85c0-.14,0-.28,0-.41a13.87,13.87,0,1,0-27.74,0c0,.13,0,.27,0,.41a13.84,13.84,0,0,0-4.41,3.59,1.65,1.65,0,0,0,1.28,2.69h.62a.93.93,0,0,0,.93-.93h0a1.45,1.45,0,0,1,1.45-1.45h0A1.45,1.45,0,0,1,6.1,203.2V207a1.46,1.46,0,0,0,1.46,1.46h0A1.46,1.46,0,0,0,9,207v-1.26a1.43,1.43,0,0,1,1.43-1.43h0a1.43,1.43,0,0,1,1.43,1.43v5.58a1.88,1.88,0,0,0,1.88,1.88h0a1.88,1.88,0,0,0,1.88-1.88v-3.5a1.19,1.19,0,0,1,1.19-1.19h0A1.19,1.19,0,0,1,18,207.84v1.87a1.54,1.54,0,0,0,1.54,1.54h0a1.54,1.54,0,0,0,1.54-1.54v-6.92a1.54,1.54,0,0,1,1.54-1.54h0a1.54,1.54,0,0,1,1.54,1.54v2.5a1.94,1.94,0,0,0,1.95,1.95h0a2,2,0,0,0,1.95-1.95v-2.9a1.14,1.14,0,0,1,1.14-1.14h0a1.14,1.14,0,0,1,1.14,1.14v1a1.25,1.25,0,0,0,1.25,1.25h.66a1.25,1.25,0,0,0,1.25-1.25h0a.94.94,0,0,1,.94-.94h0a1.46,1.46,0,0,0,1-2.54A13.75,13.75,0,0,0,32.51,197.85Z"/><g class="cls-16"><path class="cls-17" d="M16.55,201.05a13.33,13.33,0,0,1,2.09-1.79,13.2,13.2,0,0,0-3.31-1.66A13.2,13.2,0,0,1,16.55,201.05Z"/><path class="cls-17" d="M35.43,199.87a13.75,13.75,0,0,0-2.92-2c0-.14,0-.28,0-.41A13.9,13.9,0,0,0,22.08,184l.77.86a13.25,13.25,0,0,1-.17,12.53,13.26,13.26,0,0,1,7.7.22,13.2,13.2,0,0,1,1.49,6.1c0,.3,0,.59,0,.89h.41a1.25,1.25,0,0,0,1.25-1.25.94.94,0,0,1,.94-.94A1.46,1.46,0,0,0,35.43,199.87Z"/></g><circle class="cls-12" cx="12.12" cy="191.85" r="2.35"/></g></g></g></svg>