<svg id="Layer_1" data-name="Layer 1" xmlns="http://www.w3.org/2000/svg" viewBox="0 0 556.99 147"><defs><style>.cls-1{fill:none}.cls-2{fill:#f09}.cls-3{fill:#fff}.cls-4{fill:#a6f3ff;fill-rule:evenodd}</style></defs><title>mlkshk-tools-logo</title><path class="cls-1" d="M94.13 121.35c2.9 0 5.25.41 5.25-.76s-2.35-2.12-5.25-2.12-5.25.95-5.25 2.12 2.35.76 5.25.76z" transform="translate(-5)"/><path class="cls-2" d="M74.66 53v22.71c0 5.15 14.36 33.12 14.36 37.72s-11.89 6.81-14.36 8.21c-1.26.71-.72 2.55 1.74 2.55h35c2.57 0 3.56-1.45 2.25-2.55-1.87-1.57-14.36-3.6-14.36-8.21s14.36-32.58 14.36-37.72V53c0-.68 0-1.49-.47-1.49H75.15c-.54-.02-.49.91-.49 1.49zm19.47 65.49c2.9 0 5.25.95 5.25 2.12s-2.35.76-5.25.76-5.25.41-5.25-.76 2.35-2.14 5.25-2.14z" transform="translate(-5)"/><path class="cls-3" d="M100.14 85.38a.94.94 0 0 0-1.29.34 5.45 5.45 0 0 1-9.44 0 .94.94 0 1 0-1.63.95 7.33 7.33 0 0 0 12.71 0 .94.94 0 0 0-.35-1.29zM83.68 75.19a3.86 3.86 0 0 0 7.71 0 3.86 3.86 0 1 0-7.71 0zM96.87 75.19a3.86 3.86 0 0 0 7.71 0 3.86 3.86 0 1 0-7.71 0z" transform="translate(-5)"/><path class="cls-4" d="M96 89s79.36 22.56 143 19 100-22 100-22 1.58 11.27 10 18c6.26 5 20 6 20 6s40.39.64 83-3c39.26-3.35 81-11 81-11s29-6.15 29-39c0-45.16-29-50-29-50a641.53 641.53 0 0 0-64.62-2.28C423 5.5 370 10 370 10s-19.72 5.57-27 16c-10.59 15.16-10 37-10 37s-41.55 25.16-91 31c-66.49 7.86-146-5-146-5z" transform="translate(-5)"/><path class="cls-2" d="M24 103.37v20.82H5v-22c0-12.3 7.66-21 21.2-21 6 0 11.73 1.7 16 5.68 4.26-4 10-5.68 16-5.68 13.63 0 21.29 8.71 21.29 21v22H60.36v-20.82c0-2.37-1.13-5-4.26-5s-4.35 2.65-4.35 5v20.82h-19v-20.82c0-2.37-1.33-5-4.35-5s-4.4 2.63-4.4 5zM116.85 65.52h19v17.41h8.8v15.33h-8.8v3.12c0 4.26.66 7.38 6.34 7.38h2.46v15.43h-7.76c-16.37 0-20.06-9.37-20.06-22.33zM148.4 109.71s7.38 3.69 13.34 3.69c1.7 0 3.79-.28 3.79-2.37s-2.93-1.89-8.23-3.12c-7.19-1.61-10.13-6.62-10.13-11.83 0-10.41 10.41-14.86 19.31-14.86 10 0 15.71 2.65 15.71 2.65v12.4s-6.72-2.74-13-2.74c-1.7 0-3.6.38-3.6 1.89s2.08 2 5 2.55l2.37.38c7.76 1.33 11.26 5.49 11.26 12 0 10.69-8.33 15.52-19.78 15.52-9.94 0-16.09-3.22-16.09-3.22zM187.11 60.79h19v23.65a16.68 16.68 0 0 1 10.22-3.22c12.11 0 18.36 7.1 18.36 22.14v20.82h-19v-20.81a4.75 4.75 0 0 0-4.83-5c-3.12 0-4.73 2.37-4.73 5v20.82h-19zM238.32 103.56c0-12.3 10.22-22.33 24.61-22.33s24.51 10 24.51 22.33c0 11.55-7.57 22.33-21.2 22.33a18.76 18.76 0 0 1-8.9-2.08V147h-19zm19 0a5.54 5.54 0 0 0 11.07 0 5.54 5.54 0 1 0-11.07 0zM83.51 20.68l.12.24c-.09.18-.17.36-.25.55l.31.51.69 6.17h1.03a9.62 9.62 0 0 1 2.8-3.46l-.34-3.06.28-.35-.31-.32.31-.32-.28-.35.34-.29c-.08-.12-.17-.25-.24-.37l.36-.26c-.07-.13-.15-.26-.21-.39l.39-.22c-.06-.13-.12-.27-.17-.41l.41-.19c0-.11-.08-.24-.11-.36v-.07l.42-.15c0-.14-.07-.29-.09-.43l.43-.1v-.44l.44-.06v-.44h.44v-.45h.45c0-.14 0-.29.08-.44l.44.06v-.17l.07-.26 16.61-11.48-.31-.42-2-2.74-.15-.2-15.92 10.75-.28.19-.17.11-.59.07q-.15.26-.28.53l-.59.12c-.08.19-.16.37-.22.55l-.58.18c-.06.19-.12.38-.17.57l-.56.23c0 .2-.09.39-.12.58l-.54.28v.6c-.17.1-.33.22-.51.33v.6c-.16.12-.31.25-.47.38v.59c-.15.14-.29.28-.43.42 0 .2.06.39.11.58-.13.15-.26.3-.39.46 0 .19.1.38.16.57-.12.16-.23.32-.35.49.07.19.14.37.21.55-.1.17-.2.34-.3.52zM107.77 23.07a5.6 5.6 0 0 0-1.65-.67c-.31-1.89-1.21-3.07-1.82-2.82-1.19.5.69 2.17.69 2.17 1.41 2.29.24 5.22-.38 6.47a1.42 1.42 0 0 1-.56-.39 2.8 2.8 0 0 0-3-.09A3.77 3.77 0 0 0 99.78 32a4.65 4.65 0 0 0 6.31 2.41 3.77 3.77 0 0 0 1.85-4.05 2.8 2.8 0 0 0-2.26-1.9 1.35 1.35 0 0 1-.61-.06 9.61 9.61 0 0 0 1.11-5.66 4 4 0 0 1 1.32.62c-.88 3.77 3.77 5.29 3.77 5.29 1.45-5.5-3.5-5.58-3.5-5.58z" transform="translate(-5)"/><path class="cls-2" d="M109.52 37.25h-.47l-.07-.47a7 7 0 0 0-.32-1.31 5.46 5.46 0 0 1-1.5 1.14 6.64 6.64 0 0 1-3 .78 7.15 7.15 0 0 1-2.6-.53 6.39 6.39 0 0 1-3-10.11 7.16 7.16 0 0 0-11.41 3.56l-.15.49-.5-.09a7.12 7.12 0 0 0-8.44 6.18l-.05.41-.41.08a7.22 7.22 0 0 0-5.88 7.09 7 7 0 0 0 1.59 4.39h41.45a6.93 6.93 0 0 0 1.6-4.39 7.21 7.21 0 0 0-6.84-7.22zM381.49 62.26l-3.42-14.32h3l2.16 9.83 2.62-9.83h3.44l2.51 10 2.2-10h2.91l-3.48 14.32h-3.07l-2.85-10.7-2.84 10.7zM403.56 59l2.73.46a4.48 4.48 0 0 1-1.67 2.29 4.89 4.89 0 0 1-2.85.79 4.64 4.64 0 0 1-4-1.77 5.94 5.94 0 0 1-1-3.57 5.73 5.73 0 0 1 1.35-4 4.44 4.44 0 0 1 3.41-1.46 4.6 4.6 0 0 1 3.65 1.53 6.76 6.76 0 0 1 1.28 4.68h-6.87a2.78 2.78 0 0 0 .66 1.9 2.08 2.08 0 0 0 1.58.68 1.68 1.68 0 0 0 1.08-.35 2.17 2.17 0 0 0 .65-1.18zm.16-2.77a2.64 2.64 0 0 0-.62-1.81 1.89 1.89 0 0 0-1.43-.62 1.91 1.91 0 0 0-1.48.65 2.53 2.53 0 0 0-.58 1.78zM408.28 62.26V47.95H411v14.31zM422.47 55l-2.71.49a2 2 0 0 0-.62-1.22 1.87 1.87 0 0 0-1.25-.41 2.05 2.05 0 0 0-1.64.71 3.63 3.63 0 0 0-.61 2.37 4.2 4.2 0 0 0 .62 2.61 2 2 0 0 0 1.67.76 1.85 1.85 0 0 0 1.28-.44 2.67 2.67 0 0 0 .7-1.53l2.7.46a4.79 4.79 0 0 1-1.61 2.8 5 5 0 0 1-3.19.95 4.75 4.75 0 0 1-3.63-1.44 5.57 5.57 0 0 1-1.35-4 5.58 5.58 0 0 1 1.36-4 4.82 4.82 0 0 1 3.67-1.43 5 5 0 0 1 3 .82 4.52 4.52 0 0 1 1.61 2.5zM423.52 56.93a5.61 5.61 0 0 1 .67-2.65 4.63 4.63 0 0 1 1.91-2 5.66 5.66 0 0 1 2.76-.67 5.18 5.18 0 0 1 3.86 1.53 5.28 5.28 0 0 1 1.5 3.86 5.34 5.34 0 0 1-1.52 3.9 5.13 5.13 0 0 1-3.82 1.55 6 6 0 0 1-2.72-.64 4.42 4.42 0 0 1-2-1.89 6.3 6.3 0 0 1-.64-2.99zm2.81.15a3.44 3.44 0 0 0 .73 2.36 2.39 2.39 0 0 0 3.61 0 3.48 3.48 0 0 0 .73-2.38 3.42 3.42 0 0 0-.73-2.34 2.39 2.39 0 0 0-3.61 0 3.44 3.44 0 0 0-.73 2.36zM435.77 51.89h2.53v1.42a4.07 4.07 0 0 1 3.23-1.65 3.48 3.48 0 0 1 1.73.41 3.15 3.15 0 0 1 1.2 1.24 4.8 4.8 0 0 1 1.47-1.24 3.62 3.62 0 0 1 1.69-.41 3.76 3.76 0 0 1 1.93.46 2.84 2.84 0 0 1 1.18 1.36 5.92 5.92 0 0 1 .28 2.15v6.63h-2.74v-5.92a4.41 4.41 0 0 0-.28-2 1.3 1.3 0 0 0-1.17-.59 1.87 1.87 0 0 0-1.08.35 2 2 0 0 0-.73 1 7.42 7.42 0 0 0-.22 2.14v5H442v-5.66a7.88 7.88 0 0 0-.15-2 1.25 1.25 0 0 0-.45-.65 1.44 1.44 0 0 0-.83-.21 2 2 0 0 0-1.14.34 1.87 1.87 0 0 0-.73 1 7.33 7.33 0 0 0-.22 2.14v5h-2.74zM459.36 59l2.73.46a4.48 4.48 0 0 1-1.67 2.29 4.89 4.89 0 0 1-2.85.79 4.64 4.64 0 0 1-4-1.77 5.94 5.94 0 0 1-1-3.57 5.73 5.73 0 0 1 1.35-4 4.44 4.44 0 0 1 3.41-1.46 4.6 4.6 0 0 1 3.67 1.45 6.76 6.76 0 0 1 1.28 4.68h-6.87a2.78 2.78 0 0 0 .66 1.9 2.08 2.08 0 0 0 1.58.68 1.68 1.68 0 0 0 1.08-.35 2.17 2.17 0 0 0 .63-1.1zm.16-2.77a2.64 2.64 0 0 0-.62-1.81 1.89 1.89 0 0 0-1.43-.62 1.91 1.91 0 0 0-1.48.65 2.53 2.53 0 0 0-.58 1.78zM469.26 47.95H475a16.55 16.55 0 0 1 2.53.14 3.72 3.72 0 0 1 1.49.59 3.67 3.67 0 0 1 1.1 1.2 3.24 3.24 0 0 1 .44 1.67 3.39 3.39 0 0 1-2 3.11 3.77 3.77 0 0 1 2 1.3 3.45 3.45 0 0 1 .7 2.16 4.26 4.26 0 0 1-.45 1.9 3.82 3.82 0 0 1-1.24 1.47 4.1 4.1 0 0 1-1.94.68q-.72.08-3.49.1h-4.87zm2.89 2.38v3.31h3.95a1.91 1.91 0 0 0 1.17-.51 1.51 1.51 0 0 0 .42-1.12 1.57 1.57 0 0 0-.37-1.08 1.66 1.66 0 0 0-1.09-.5h-2.47zm0 5.69v3.83h2.68a13.08 13.08 0 0 0 2-.09 1.79 1.79 0 0 0 1-.57 1.76 1.76 0 0 0 .41-1.22 1.87 1.87 0 0 0-.31-1.09 1.77 1.77 0 0 0-.9-.65 9.82 9.82 0 0 0-2.56-.21zM485.33 55.06l-2.49-.45a3.88 3.88 0 0 1 1.45-2.23 5.29 5.29 0 0 1 3-.72 6.57 6.57 0 0 1 2.73.43 2.73 2.73 0 0 1 1.26 1.1 5.66 5.66 0 0 1 .37 2.46v3.2a11.12 11.12 0 0 0 .13 2 5.87 5.87 0 0 0 .49 1.39h-2.71q-.11-.27-.26-.81c0-.16-.08-.27-.1-.32a5 5 0 0 1-1.5 1 4.31 4.31 0 0 1-1.71.34 3.53 3.53 0 0 1-2.52-.87 2.89 2.89 0 0 1-.92-2.2 3 3 0 0 1 .42-1.57 2.74 2.74 0 0 1 1.18-1.05 9.2 9.2 0 0 1 2.18-.64 14.94 14.94 0 0 0 2.67-.62v-.27a1.42 1.42 0 0 0-.39-1.13 2.34 2.34 0 0 0-1.47-.34A2 2 0 0 0 486 54a2 2 0 0 0-.67 1.06zm3.67 2.22a17.1 17.1 0 0 1-1.67.42 5 5 0 0 0-1.49.48 1.14 1.14 0 0 0-.54 1 1.35 1.35 0 0 0 .43 1 1.5 1.5 0 0 0 1.09.42 2.37 2.37 0 0 0 1.42-.49 1.72 1.72 0 0 0 .65-.91 5.43 5.43 0 0 0 .11-1.34zM503 55l-2.71.49a2 2 0 0 0-.62-1.22 1.87 1.87 0 0 0-1.25-.41 2.05 2.05 0 0 0-1.64.71 3.63 3.63 0 0 0-.61 2.37 4.2 4.2 0 0 0 .62 2.61 2 2 0 0 0 1.67.76 1.85 1.85 0 0 0 1.28-.44 2.67 2.67 0 0 0 .7-1.53l2.7.46a4.79 4.79 0 0 1-1.61 2.8 5 5 0 0 1-3.19.95 4.75 4.75 0 0 1-3.63-1.44 5.57 5.57 0 0 1-1.35-4 5.58 5.58 0 0 1 1.36-4 4.82 4.82 0 0 1 3.67-1.43 5 5 0 0 1 3 .82A4.52 4.52 0 0 1 503 55zM504.63 62.26V47.95h2.74v7.6l3.21-3.65H514l-3.54 3.79 3.8 6.58h-3l-2.61-4.66-1.28 1.34v3.32zM516.52 58.57l-.71-7.27v-3.35h3v3.36l-.7 7.27zm-.6 3.69v-2.74h2.74v2.74z" transform="translate(-5)"/></svg>