<svg xmlns="http://www.w3.org/2000/svg" viewBox="0 0 11.2 8"><defs><style>.cls-1{fill:#f79d1f;}</style></defs><title>reallysmall-save</title><g id="Layer_2" data-name="Layer 2"><g id="Layer_1-2" data-name="Layer 1"><path class="cls-1" d="M4.69,8,4.46,5.27c0-.36-.36-.88-1.3-.75A23.37,23.37,0,0,1,3.68,8H3.15a15.4,15.4,0,0,0-.78-3.68c-.26-.55-.22-.94.57-.73A7.84,7.84,0,0,0,4.15,4c.33,0,.67-.44,1.47-.43S6.75,4,7.08,4a7.63,7.63,0,0,0,1.17-.37c.78-.19.84.23.58.75A15.14,15.14,0,0,0,8.08,8Z"/><path class="cls-1" d="M11.16,0l-2,.14a1,1,0,0,0-.82.54L7.76,1.84h0a1.11,1.11,0,0,0-1.07-1H6.63A1.1,1.1,0,0,0,5.6,0a1.1,1.1,0,0,0-1,.84l-.2,0a1.1,1.1,0,0,0-1,.89L2.86.7A1,1,0,0,0,2,.16L0,0,0,.56l1.92.1A.52.52,0,0,1,2.4,1l.45,1.05h0a1,1,0,0,0-.43.77,1,1,0,0,1,.53,0,8.13,8.13,0,0,0,1.2.36c.33,0,.67-.42,1.47-.41s1.13.45,1.46.43A7.92,7.92,0,0,0,8.25,2.9a.92.92,0,0,1,.53,0,1.12,1.12,0,0,0-.51-.84h0s.45-.89.52-1A.58.58,0,0,1,9.32.65L11.2.53Z"/></g></g></svg>