<svg xmlns="http://www.w3.org/2000/svg" viewBox="0 0 328.56 160.51"><defs><style>.cls-1{fill:#ff9d00}.cls-2{fill:#df7b00}.cls-3{fill:#fff}.cls-4{fill:#ff64c0}.cls-5{fill:#e00097}.cls-6{fill:#ff3db7}.cls-7{fill:#b60088}.cls-8{fill:#ff0097}.cls-9{fill:#2b1412}.cls-10{fill:#b3b3b3}.cls-11{fill:#97a92b}.cls-12{fill:#bdb1a2}.cls-13{fill:#ffbd2d}.cls-14{fill:#ff9d1e}.cls-15{fill:#ffe881}.cls-16{fill:#1c0d0a}.cls-17{fill:#ffffd4}.cls-18{fill:#fff2ac}.cls-19{fill:#ffffc2}.cls-20{fill:none;stroke:#ede6bd;stroke-width:.63px}.cls-21{fill:#ffffa4}.cls-22{fill:#f78;fill-rule:evenodd}.cls-23{fill:#65b8b8}.cls-24{fill:url(#linear-gradient)}.cls-25{fill:#ffffed}.cls-26{fill:url(#radial-gradient)}.cls-27{fill:#723835}.cls-28{fill:#ff3056}.cls-29{fill:#ffdce6}</style><linearGradient id="linear-gradient" x1="450.1" y1="11.87" x2="450.1" y2="5.37" gradientTransform="matrix(-.87 -.5 -.5 .87 479.75 238.79)" gradientUnits="userSpaceOnUse"><stop offset=".56" stop-color="ivory"/><stop offset=".69" stop-color="#fcfaed"/><stop offset=".83" stop-color="#f5ede2"/><stop offset=".98" stop-color="#e8d7d1"/><stop offset="1" stop-color="#e6d4cf"/></linearGradient><radialGradient id="radial-gradient" cx="207.7" cy="-672.34" r="5.08" gradientTransform="matrix(-.85 -.31 -.34 .94 32.33 711.09)" gradientUnits="userSpaceOnUse"><stop offset=".47" stop-color="#e6fffa"/><stop offset=".67" stop-color="#edf4f1"/><stop offset="1" stop-color="#ffd9dc"/></radialGradient></defs><title>tools-save-this2x</title><g id="Layer_2" data-name="Layer 2"><g id="Layer_1-2" data-name="Layer 1"><path class="cls-1" d="M137.9 59.14c19.13-5.58 42.73-6.25 57-7.45 33.37-2.83 67.09-3.6 100.25 1.85C305.26 55.21 316.18 58 322.56 66c7.18 9.08 6.4 21.89 5.27 33.41-.7 7.15-1.61 14.8-6.29 20.26-5.11 6-13.43 7.83-21.15 9.28-35.87 6.74-72.11 12-108.58 13.27-15.07.55-30.43.39-44.84-4.07s-27.92-13.78-34.33-27.42c-14.5-30.86 2.1-44.83 25.26-51.59z"/><path class="cls-2" d="M147.2 98.26l4.92-.48a6 6 0 0 0 1.8 3.64 5.45 5.45 0 0 0 3.67 1.16 5.63 5.63 0 0 0 3.68-1 3.08 3.08 0 0 0 1.24-2.42 2.28 2.28 0 0 0-.52-1.51 4.17 4.17 0 0 0-1.82-1.08q-.89-.31-4.05-1.09a13.73 13.73 0 0 1-5.7-2.48 6.52 6.52 0 0 1-2.31-5 6.44 6.44 0 0 1 1.09-3.58 6.79 6.79 0 0 1 3.13-2.54 12.53 12.53 0 0 1 4.93-.87q4.72 0 7.1 2.07a7.3 7.3 0 0 1 2.5 5.52l-5.06.22a4.3 4.3 0 0 0-1.39-2.82 5.11 5.11 0 0 0-3.21-.85 5.78 5.78 0 0 0-3.45.91 1.82 1.82 0 0 0-.8 1.56 1.92 1.92 0 0 0 .75 1.52q1 .8 4.65 1.67a24.51 24.51 0 0 1 5.46 1.8 7 7 0 0 1 2.77 2.55 7.89 7.89 0 0 1-.2 8 7.17 7.17 0 0 1-3.38 2.79 14.21 14.21 0 0 1-5.45.91q-4.75 0-7.3-2.2a9.55 9.55 0 0 1-3.05-6.4zM174.69 93.8l-4.36-.8a6.79 6.79 0 0 1 2.53-3.9 9.26 9.26 0 0 1 5.33-1.26 11.5 11.5 0 0 1 4.79.76 4.77 4.77 0 0 1 2.21 1.93 9.9 9.9 0 0 1 .64 4.3l-.05 5.61A19.5 19.5 0 0 0 186 104a10.3 10.3 0 0 0 .86 2.44h-4.75q-.19-.48-.46-1.42c-.08-.28-.14-.47-.17-.56a8.65 8.65 0 0 1-2.63 1.79 7.55 7.55 0 0 1-3 .6 6.18 6.18 0 0 1-4.42-1.52 5.06 5.06 0 0 1-1.61-3.85 5.16 5.16 0 0 1 .73-2.74 4.8 4.8 0 0 1 2.06-1.85 16.12 16.12 0 0 1 3.82-1.12 26.16 26.16 0 0 0 4.67-1.18v-.48a2.49 2.49 0 0 0-.68-2 4.1 4.1 0 0 0-2.58-.59 3.44 3.44 0 0 0-2 .5 3.5 3.5 0 0 0-1.15 1.78zm6.43 3.9a30 30 0 0 1-2.92.73 8.81 8.81 0 0 0-2.61.84 2 2 0 0 0-.94 1.69 2.35 2.35 0 0 0 .75 1.74 2.62 2.62 0 0 0 1.91.73 4.16 4.16 0 0 0 2.48-.85 3 3 0 0 0 1.15-1.59 9.49 9.49 0 0 0 .19-2.34zM194.85 106.42l-7.31-18.15h5l3.46 9.26 1 3.09q.39-1.18.5-1.56.24-.77.51-1.54l3.45-9.26h4.94l-7.21 18.15zM219.14 100.64l4.79.8a7.85 7.85 0 0 1-2.91 4 8.56 8.56 0 0 1-5 1.38q-4.73 0-7-3.09a10.39 10.39 0 0 1-1.79-6.25 10 10 0 0 1 2.36-7.07 7.77 7.77 0 0 1 6-2.55 8.06 8.06 0 0 1 6.39 2.67q2.34 2.67 2.24 8.19h-12a4.85 4.85 0 0 0 1.16 3.32 3.63 3.63 0 0 0 2.77 1.19 2.94 2.94 0 0 0 1.9-.62 3.8 3.8 0 0 0 1.09-1.97zm.27-4.85a4.62 4.62 0 0 0-1.08-3.17 3.46 3.46 0 0 0-5.09.06 4.43 4.43 0 0 0-1 3.11zM244.74 88.27v3.83h-3.28v7.31a18.23 18.23 0 0 0 .09 2.59 1.05 1.05 0 0 0 .43.61 1.35 1.35 0 0 0 .81.24 6.22 6.22 0 0 0 1.93-.46l.41 3.73a9.55 9.55 0 0 1-3.79.72 6 6 0 0 1-2.34-.44 3.42 3.42 0 0 1-1.53-1.13 4.44 4.44 0 0 1-.67-1.87 23.11 23.11 0 0 1-.15-3.38V92.1h-2.21v-3.83h2.21v-3.61l4.82-2.8v6.41zM252.16 81.36v9.21a7.2 7.2 0 0 1 8.54-2.1 4.89 4.89 0 0 1 2 1.57 5.73 5.73 0 0 1 .92 2.12 19 19 0 0 1 .25 3.61v10.65h-4.8v-9.59a14.23 14.23 0 0 0-.27-3.62 2.38 2.38 0 0 0-1-1.22 3.11 3.11 0 0 0-1.73-.45 4 4 0 0 0-2.14.58 3.35 3.35 0 0 0-1.38 1.75 10.45 10.45 0 0 0-.44 3.46v9.09h-4.8V81.36zM268.05 85.81v-4.45h4.8v4.44zm0 20.61V88.27h4.8v18.15zM275.38 101.24l4.82-.73a3.53 3.53 0 0 0 1.25 2.13 4.22 4.22 0 0 0 2.63.73 4.75 4.75 0 0 0 2.8-.68 1.53 1.53 0 0 0 .63-1.28 1.26 1.26 0 0 0-.34-.91 3.84 3.84 0 0 0-1.61-.63q-5.81-1.28-7.37-2.34a4.68 4.68 0 0 1-2.15-4.08 5 5 0 0 1 1.86-4q1.86-1.61 5.78-1.61a10.08 10.08 0 0 1 5.54 1.21 6.21 6.21 0 0 1 2.5 3.59l-4.53.84a2.8 2.8 0 0 0-1.1-1.62 4 4 0 0 0-2.32-.56 5.22 5.22 0 0 0-2.72.53 1.14 1.14 0 0 0-.55 1 1.06 1.06 0 0 0 .48.87 18 18 0 0 0 4.5 1.3 13.36 13.36 0 0 1 5.36 2.14 4.44 4.44 0 0 1 1.5 3.57 5.48 5.48 0 0 1-2.08 4.29q-2.09 1.79-6.17 1.79a10.12 10.12 0 0 1-5.87-1.5 6.93 6.93 0 0 1-2.84-4.05zM297.72 100l-1.25-12.71v-5.93h5.2v5.88L300.44 100zm-1 6.46v-4.8h4.8v4.8z"/><path class="cls-3" d="M146.2 97.26l4.92-.48a6 6 0 0 0 1.8 3.64 5.45 5.45 0 0 0 3.67 1.16 5.63 5.63 0 0 0 3.68-1 3.08 3.08 0 0 0 1.24-2.42 2.28 2.28 0 0 0-.52-1.51 4.17 4.17 0 0 0-1.82-1.08q-.89-.31-4.05-1.09a13.73 13.73 0 0 1-5.7-2.48 6.52 6.52 0 0 1-2.31-5 6.44 6.44 0 0 1 1.09-3.58 6.79 6.79 0 0 1 3.13-2.54 12.53 12.53 0 0 1 4.93-.87q4.72 0 7.1 2.07a7.3 7.3 0 0 1 2.5 5.52l-5.06.22a4.3 4.3 0 0 0-1.39-2.82 5.11 5.11 0 0 0-3.21-.85 5.78 5.78 0 0 0-3.45.91 1.82 1.82 0 0 0-.8 1.56 1.92 1.92 0 0 0 .75 1.52q1 .8 4.65 1.67a24.51 24.51 0 0 1 5.46 1.8 7 7 0 0 1 2.77 2.55 7.89 7.89 0 0 1-.2 8 7.17 7.17 0 0 1-3.38 2.79 14.21 14.21 0 0 1-5.45.91q-4.75 0-7.3-2.2a9.55 9.55 0 0 1-3.05-6.4zM173.69 92.8l-4.36-.8a6.79 6.79 0 0 1 2.53-3.9 9.26 9.26 0 0 1 5.33-1.26 11.5 11.5 0 0 1 4.79.76 4.77 4.77 0 0 1 2.21 1.93 9.9 9.9 0 0 1 .64 4.3l-.05 5.61A19.5 19.5 0 0 0 185 103a10.3 10.3 0 0 0 .86 2.44h-4.75q-.19-.48-.46-1.42c-.08-.28-.14-.47-.17-.56a8.65 8.65 0 0 1-2.63 1.79 7.55 7.55 0 0 1-3 .6 6.18 6.18 0 0 1-4.42-1.52 5.06 5.06 0 0 1-1.61-3.85 5.16 5.16 0 0 1 .73-2.74 4.8 4.8 0 0 1 2.06-1.85 16.12 16.12 0 0 1 3.82-1.12 26.16 26.16 0 0 0 4.67-1.18v-.48a2.49 2.49 0 0 0-.68-2 4.1 4.1 0 0 0-2.58-.59 3.44 3.44 0 0 0-2 .5 3.5 3.5 0 0 0-1.15 1.78zm6.43 3.9a30 30 0 0 1-2.92.73 8.81 8.81 0 0 0-2.61.84 2 2 0 0 0-.94 1.69 2.35 2.35 0 0 0 .75 1.74 2.62 2.62 0 0 0 1.91.73 4.16 4.16 0 0 0 2.48-.85 3 3 0 0 0 1.15-1.59 9.49 9.49 0 0 0 .19-2.34zM193.85 105.42l-7.31-18.15h5l3.46 9.26 1 3.09q.39-1.18.5-1.56.24-.77.51-1.54l3.45-9.26h4.94l-7.21 18.15zM218.14 99.64l4.79.8a7.85 7.85 0 0 1-2.91 4 8.56 8.56 0 0 1-5 1.38q-4.73 0-7-3.09a10.39 10.39 0 0 1-1.79-6.25 10 10 0 0 1 2.36-7.07 7.77 7.77 0 0 1 6-2.55 8.06 8.06 0 0 1 6.39 2.67q2.34 2.67 2.24 8.19h-12a4.85 4.85 0 0 0 1.16 3.32 3.63 3.63 0 0 0 2.77 1.19 2.94 2.94 0 0 0 1.9-.62 3.8 3.8 0 0 0 1.09-1.97zm.27-4.85a4.62 4.62 0 0 0-1.08-3.17 3.46 3.46 0 0 0-5.09.06 4.43 4.43 0 0 0-1 3.11zM243.74 87.27v3.83h-3.28v7.31a18.23 18.23 0 0 0 .09 2.59 1.05 1.05 0 0 0 .43.61 1.35 1.35 0 0 0 .81.24 6.22 6.22 0 0 0 1.93-.46l.41 3.73a9.55 9.55 0 0 1-3.79.72 6 6 0 0 1-2.34-.44 3.42 3.42 0 0 1-1.53-1.13 4.44 4.44 0 0 1-.67-1.87 23.11 23.11 0 0 1-.15-3.38v-7.93h-2.21v-3.82h2.21v-3.61l4.82-2.8v6.41zM251.16 80.36v9.21a7.2 7.2 0 0 1 8.54-2.1 4.89 4.89 0 0 1 2 1.57 5.73 5.73 0 0 1 .92 2.12 19 19 0 0 1 .25 3.61v10.65h-4.8v-9.59a14.23 14.23 0 0 0-.27-3.62 2.38 2.38 0 0 0-1-1.22 3.11 3.11 0 0 0-1.73-.45 4 4 0 0 0-2.14.58 3.35 3.35 0 0 0-1.38 1.75 10.45 10.45 0 0 0-.44 3.46v9.09h-4.8V80.36zM267.05 84.81v-4.45h4.8v4.44zm0 20.61V87.27h4.8v18.15zM274.38 100.24l4.82-.73a3.53 3.53 0 0 0 1.25 2.13 4.22 4.22 0 0 0 2.63.73 4.75 4.75 0 0 0 2.8-.68 1.53 1.53 0 0 0 .63-1.28 1.26 1.26 0 0 0-.34-.91 3.84 3.84 0 0 0-1.61-.63q-5.81-1.28-7.37-2.34a4.68 4.68 0 0 1-2.19-4.1 5 5 0 0 1 1.86-4q1.86-1.61 5.78-1.61a10.08 10.08 0 0 1 5.54 1.21 6.21 6.21 0 0 1 2.5 3.59l-4.53.84a2.8 2.8 0 0 0-1.1-1.62 4 4 0 0 0-2.32-.56 5.22 5.22 0 0 0-2.72.53 1.14 1.14 0 0 0-.55 1 1.06 1.06 0 0 0 .48.87 18 18 0 0 0 4.54 1.32 13.36 13.36 0 0 1 5.36 2.14 4.44 4.44 0 0 1 1.5 3.57 5.48 5.48 0 0 1-2.08 4.29q-2.09 1.79-6.17 1.79a10.12 10.12 0 0 1-5.87-1.5 6.93 6.93 0 0 1-2.84-4.05zM296.72 99l-1.25-12.71v-5.93h5.2v5.88L299.44 99zm-1 6.46v-4.8h4.8v4.8z"/><path class="cls-4" d="M118.84 46.8l-20.49 3.92 11.58 7.13 8.91-11.05z"/><path class="cls-5" d="M47.76 155.49h6.85c1.27 0 2.3-1.34 2.3-3v-2.22a59 59 0 0 1-9.14-3.41zM97.3 154.45h7.61c1.27 0 2.3-1.34 2.3-3v-9.55a57.83 57.83 0 0 1-9.91 5.58zM122 71.07a23.57 23.57 0 0 0 3-3.2c5.53-7.22 5.73-16 .43-19.59s-14.08-.67-19.62 6.54A55.42 55.42 0 0 1 122 71.07zM10.47 96l-.36-.08c-1.87-.38-6.24.48-9.89 5.95a1.29 1.29 0 0 0 2.15 1.43c1.44-2.15 3.68-4.21 5.2-4.71a4.82 4.82 0 0 0-.44 2.41 1.22 1.22 0 0 0 0 .21 5 5 0 0 0 2.61 3.32 3.32 3.32 0 0 0 1.22.23 4.69 4.69 0 0 0 2.55-.85 3.24 3.24 0 0 0 1.38-3.46 5.63 5.63 0 0 0-1.48-2.74 18.57 18.57 0 0 1 2.79-.29c0-.87.07-1.73.14-2.59A16.25 16.25 0 0 0 10.47 96zm1.69 5.81a1.79 1.79 0 0 1-1.42.39 2.45 2.45 0 0 1-1-1.44 2 2 0 0 1 .62-1.63 3.1 3.1 0 0 1 .33-.28 3.44 3.44 0 0 1 1.7 2.15c.11.56-.14.72-.24.78z"/><path class="cls-4" d="M122 71.07a55.42 55.42 0 0 0-16.22-16.24 59.19 59.19 0 0 0-32.53-9.6c-30 0-54.65 21.88-56.83 49.64-.07.86-.12 1.72-.14 2.59v1.42a51.7 51.7 0 0 0 14.44 35.68v22.61c0 1.84 1 3.34 2.29 3.34h12.45c1.27 0 2.29-1.5 2.29-3.34v-10.3a59 59 0 0 0 9.14 3.41 60 60 0 0 0 23.31 1.82v5.06c0 1.84 1 3.34 2.29 3.34H95c1.27 0 2.29-1.5 2.29-3.34v-9.67a57.83 57.83 0 0 0 9.91-5.58c13.95-9.78 23-25.41 23-43a51.07 51.07 0 0 0-8.2-27.84z"/><ellipse class="cls-3" cx="103.68" cy="96.24" rx="5.02" ry="5.63"/><ellipse class="cls-5" cx="103.68" cy="96.24" rx="2.75" ry="3.08"/><ellipse class="cls-3" cx="123.41" cy="90.61" rx="5.02" ry="5.63"/><ellipse class="cls-5" cx="123.41" cy="90.61" rx="2.75" ry="3.08"/><path class="cls-6" d="M77.59 51.92S62.4 52.28 63 73.1l17.87 3.31z"/><path class="cls-5" d="M95.13 65.63a15.47 15.47 0 0 1 4.41.64 21.47 21.47 0 0 0-2.88-6.49c-5-7.57-13.5-11.09-19.06-7.86s-6 12-1.08 19.56a22.73 22.73 0 0 0 4.35 4.93 14.44 14.44 0 0 1 14.26-10.78zM68.77 47.32L67.64 50s-20.79 3.16-26.4 10.63v-3.5s8.67-7.96 27.53-9.81z"/><path class="cls-7" d="M118.84 130.92l-2-1.25c-2.64 4.14-6.76 6.33-10.75 5.71-3.76-.58-6.85-3.53-8.27-7.88l-2.21.72c1.7 5.2 5.49 8.73 10.12 9.45 4.96.77 9.97-1.82 13.11-6.75z"/><path class="cls-6" d="M138.81 119.68c-2.73 9.6-11.84 15.65-20.35 13.51s-13.19-11.67-10.46-21.27 11.84-15.65 20.35-13.51 13.19 11.67 10.46 21.27z"/><path class="cls-8" d="M139.09 118.89c-2.35 8.26-9.12 13.72-15.13 12.21s-9-9.43-6.63-17.69 9.12-13.73 15.13-12.21 8.98 9.44 6.63 17.69z"/><path class="cls-5" d="M128.6 115.15c.28 2.62-.69 4.86-2.17 5s-2.92-1.86-3.2-4.49.69-4.86 2.17-5 2.92 1.87 3.2 4.49zM137.12 114.33c.29 2.62-.69 4.86-2.17 5s-2.92-1.87-3.2-4.49.69-4.86 2.17-5 2.92 1.87 3.2 4.49z"/><path class="cls-9" d="M46.21 18.41s.64-1.32-.43-1.54a.85.85 0 0 0-.94.76.89.89 0 0 0 .58 1z"/><path class="cls-3" d="M28.6 24.03L54.55 8.22l18.94 31.66-26.01 15.6L28.6 24.03z"/><path class="cls-10" d="M54.38 8.91l18.42 30.8L47.65 54.8 29.29 24.2 54.38 8.91m.34-1.38l-.86.52-25.09 15.3-.85.52.51.85 18.36 30.6.51.86.86-.51 25.16-15.11.86-.51-.51-.86L55.24 8.4l-.52-.87z"/><path class="cls-11" d="M44.69 47.47l22.96-14.03-13.54-22.78-23.16 14.01 13.74 22.8z"/><path class="cls-12" d="M54.38 8.91l18.42 30.8-24.76 14.8.09.08 24.85-14.86L54.49 8.89l-.11.02z"/><path class="cls-9" d="M44.63 47.49l-8.44-14.13-.59-1 .34-.63-.25.15.48-.78-.22.09.7-1-.28.06.71-.83h-.2l.67-.79-.31.08.88-.82-.3.09.53-.65-.32.1.61-.75h-.46c.29-.26.91-1 .91-1h-.38c.25-.33.92-1.09.92-1.09l-.27.14a11.62 11.62 0 0 1 .78-1.17l-.26.13a8.47 8.47 0 0 1 .69-1l-.33.27a16.35 16.35 0 0 1 2.54-3.14 9.12 9.12 0 0 1 .81-.64 1.17 1.17 0 0 1-.44-.35c-.51-.68.33-1.22.33-1.22.86-.43 1.15.44 1.24.89a3.22 3.22 0 0 1 2.84-.29 6.43 6.43 0 0 1 1.78 2 12.52 12.52 0 0 0 3.21-.91c.52 0 .64.71.7 1.47a2.38 2.38 0 0 1-.25 1.61 4.49 4.49 0 0 1-1.57 1.35 5.62 5.62 0 0 0-1.06.85c-.16.22-.66 1-.59 1.35l-.14-.54a2.06 2.06 0 0 0-.32.73l-.06-.32s-.38.75-.29 1.05l-.13-.48a2.92 2.92 0 0 0-.17 1l-.13-.26v.5a15.56 15.56 0 0 1 1.71 3.05s.48 1.2 1.35 3a7.82 7.82 0 0 0 1.52-.66 5.28 5.28 0 0 0 2.17-2.15 10.36 10.36 0 0 0 1.15-3.34A2.41 2.41 0 0 1 58 29.9a8.76 8.76 0 0 1-.07 2.27 5.11 5.11 0 0 1 .12 1.26l-.15-.36-.06.85-.12-.26a5.34 5.34 0 0 1-.05.81l-.14-.28a2.62 2.62 0 0 1-.17 1l-.08-.34a3.32 3.32 0 0 1-.09.89l-.11-.23-.28.89-.12-.2-.22.73-.08-.28-.36.9-.09-.25-.36.85-.09-.25-.37.73-.12-.2-.29.55c.39.59.75 1.08 1.18 1.65z"/><path class="cls-13" d="M55 26l1.38-.79 3.2 5.67s0 .52-1 1.13c-1 .59-1.46.33-1.46.33l-3.52-5.51z"/><ellipse class="cls-14" cx="57.95" cy="30.94" rx="1.26" ry=".26" transform="rotate(-30.91 57.942 30.95)"/><path class="cls-15" d="M55.65 25.63l3.2 5.41-.5.38-3.32-5.44.62-.35z"/><path class="cls-3" d="M47.56 20.77c-.19-.31-.51-.46-.72-.33a.37.37 0 0 0-.16.27.67.67 0 0 1 .23-.73c.31-.19.79 0 1.07.51s.25 1-.06 1.18a.62.62 0 0 1-.65-.07.34.34 0 0 0 .25 0c.21-.17.23-.52.04-.83z"/><path class="cls-16" d="M46.68 20.7a.37.37 0 0 1 .16-.27c.21-.13.53 0 .72.33s.17.66 0 .79a.34.34 0 0 1-.25 0 1.33 1.33 0 0 1-.42-.44 1.37 1.37 0 0 1-.21-.41z"/><path class="cls-17" d="M52.83 22.67a2.34 2.34 0 0 0 .42.57 1.07 1.07 0 0 1 .17.21c.07.13.11.28 0 .34s-.24.2-.43-.35c0 0 0-.11-.1-.28l-.18-.41z"/><path class="cls-17" d="M53.08 22.28s.09.13-.08.32l-.08.09a.1.1 0 0 0 0 .07.37.37 0 0 0 .06.11l-.09.19s0-.13-.13-.15a.24.24 0 0 0-.16 0l-.1.09s-.16.17-.24.16.09-.28.82-.88z"/><path class="cls-18" d="M59.56 30.84l-.34-.57a4 4 0 0 1-1 .9s-1 .67-1.5.6l.33.55s.52.29 1.6-.43a1.82 1.82 0 0 0 .91-1.05z"/><ellipse class="cls-19" cx="54.96" cy="25.98" rx="1.61" ry=".22" transform="rotate(-30.91 54.956 25.979)"/><path class="cls-19" transform="rotate(-30.91 54.799 25.702)" d="M53.18 25.39h3.23v.63h-3.23z"/><ellipse class="cls-20" cx="54.63" cy="25.44" rx="1.61" ry=".22" transform="rotate(-30.91 54.637 25.443)"/><path class="cls-20" d="M56 24.61l3.54 6.23s0 .54-1 1.14c0 0-1 .58-1.47.34l-3.84-6.05z"/><path class="cls-17" d="M53.27 26.25s-.13-.53.68-1.07a.58.58 0 0 0 .16-.15.24.24 0 0 0 0-.14.12.12 0 0 1 .17-.14.63.63 0 0 0 .19 0 1.17 1.17 0 0 0 .33-.08s1-.34 1.15-.07a3.09 3.09 0 0 1-.9.73 6.6 6.6 0 0 1-1.78.92z"/><path class="cls-14" d="M55.82 30.27V29a1 1 0 0 1 .52 1s.05.17-.34.54zM57.43 27.58s-.92-.08-.54-.75a.49.49 0 0 1 .23-.25l1.5 2.65c-.25-.07-1-.35-.62-1 0 .04-.81.04-.57-.65z"/><path class="cls-9" d="M56.7 26.52s.15-.45.84-.29c0 0 1.94.34 1.93 3.22 0 0-.11.61-.28.68 0 0-.21-.38-.69-1.19 0 0-1.19-.27-.7-1 0 0-.81 0-.56-.68.01.01-.82-.19-.54-.74z"/><circle class="cls-21" cx="57.79" cy="31.05" r=".04" transform="rotate(-30.7 58.17 31.164)"/><circle class="cls-21" cx="57.71" cy="30.91" r=".04" transform="rotate(-30.7 58.206 31.037)"/><circle class="cls-21" cx="57.64" cy="30.8" r=".04" transform="rotate(-30.91 57.631 30.807)"/><circle class="cls-21" cx="57.58" cy="30.69" r=".04" transform="rotate(-30.84 57.585 30.689)"/><circle class="cls-21" cx="57.51" cy="30.58" r=".04" transform="rotate(-30.85 57.512 30.592)"/><circle class="cls-21" cx="57.42" cy="30.42" r=".03" transform="rotate(-30.96 57.414 30.421)"/><circle class="cls-21" cx="57.35" cy="30.3" r=".03" transform="rotate(-30.95 57.35 30.306)"/><circle class="cls-21" cx="57.28" cy="30.19" r=".03" transform="rotate(-30.76 57.276 30.185)"/><circle class="cls-21" cx="57.21" cy="30.07" r=".03" transform="rotate(-30.95 57.22 30.075)"/><circle class="cls-21" cx="57.14" cy="29.95" r=".03" transform="rotate(-30.95 57.137 29.955)"/><circle class="cls-21" cx="57.07" cy="29.84" r=".03" transform="rotate(-30.96 57.07 29.84)"/><circle class="cls-21" cx="57" cy="29.72" r=".03" transform="rotate(-30.96 57.004 29.725)"/><circle class="cls-21" cx="56.92" cy="29.59" r=".02" transform="rotate(-30.91 56.915 29.596)"/><circle class="cls-21" cx="58.3" cy="29.74" r=".04" transform="rotate(-30.7 58.952 29.889)"/><circle class="cls-21" cx="58.22" cy="29.6" r=".04" transform="rotate(-30.7 58.594 29.693)"/><circle class="cls-21" cx="58.15" cy="29.49" r=".04" transform="rotate(-30.85 58.15 29.48)"/><circle class="cls-21" cx="58.09" cy="29.38" r=".04" transform="rotate(-30.85 58.08 29.383)"/><circle class="cls-21" cx="58.02" cy="29.27" r=".04" transform="rotate(-30.92 58.012 29.278)"/><circle class="cls-21" cx="57.92" cy="29.11" r=".03" transform="rotate(-30.95 57.936 29.106)"/><circle class="cls-21" cx="57.85" cy="28.99" r=".03" transform="rotate(-30.95 57.852 28.986)"/><circle class="cls-21" cx="57.78" cy="28.88" r=".03" transform="rotate(-30.96 57.784 28.872)"/><circle class="cls-21" cx="57.71" cy="28.76" r=".03" transform="matrix(.86 -.52 .52 .86 -6.56 33.88)"/><circle class="cls-21" cx="57.64" cy="28.64" r=".03" transform="rotate(-30.94 57.641 28.634)"/><circle class="cls-21" cx="57.57" cy="28.52" r=".03" transform="rotate(-30.95 57.573 28.52)"/><circle class="cls-21" cx="57.5" cy="28.41" r=".03" transform="rotate(-30.85 57.51 28.407)"/><circle class="cls-21" cx="57.43" cy="28.28" r=".02" transform="rotate(-30.7 57.895 28.383)"/><circle class="cls-21" cx="55.41" cy="28.17" r=".04" transform="rotate(-30.85 55.414 28.16)"/><circle class="cls-21" cx="55.32" cy="28.03" r=".04" transform="rotate(-30.93 55.32 28.03)"/><circle class="cls-21" cx="55.26" cy="27.92" r=".04" transform="rotate(-30.92 55.257 27.913)"/><circle class="cls-21" cx="55.19" cy="27.81" r=".04" transform="rotate(-30.92 55.191 27.798)"/><circle class="cls-21" cx="55.13" cy="27.7" r=".04" transform="rotate(-30.86 55.131 27.694)"/><circle class="cls-21" cx="55.03" cy="27.53" r=".03" transform="rotate(-30.78 55.03 27.536)"/><circle class="cls-21" cx="54.96" cy="27.42" r=".03" transform="rotate(-30.87 54.954 27.413)"/><circle class="cls-21" cx="54.89" cy="27.3" r=".03" transform="rotate(-30.96 54.897 27.295)"/><circle class="cls-21" cx="54.82" cy="27.18" r=".03" transform="rotate(-30.87 54.823 27.181)"/><circle class="cls-21" cx="54.75" cy="27.07" r=".03" transform="rotate(-30.87 54.74 27.06)"/><circle class="cls-21" cx="54.68" cy="26.95" r=".03" transform="rotate(-30.85 54.695 26.948)"/><circle class="cls-21" cx="54.61" cy="26.83" r=".03" transform="rotate(-30.95 54.601 26.822)"/><circle class="cls-21" cx="54.54" cy="26.71" r=".02" transform="rotate(-30.91 54.542 26.701)"/><circle class="cls-21" cx="55.31" cy="27.69" r=".03" transform="rotate(-30.94 55.313 27.698)"/><circle class="cls-21" cx="55.24" cy="27.57" r=".03" transform="rotate(-30.85 55.246 27.568)"/><circle class="cls-21" cx="55.17" cy="27.46" r=".03" transform="rotate(-30.95 55.186 27.45)"/><circle class="cls-21" cx="55.1" cy="27.34" r=".03" transform="rotate(-30.95 55.102 27.33)"/><circle class="cls-21" cx="55.03" cy="27.22" r=".03" transform="rotate(-30.96 55.035 27.216)"/><circle class="cls-21" cx="54.96" cy="27.11" r=".03" transform="rotate(-30.93 54.97 27.115)"/><circle class="cls-21" cx="54.89" cy="26.98" r=".02" transform="rotate(-30.76 54.89 26.987)"/><circle class="cls-21" cx="56.27" cy="26.45" r=".03" transform="rotate(-30.93 56.283 26.447)"/><circle class="cls-21" cx="56.2" cy="26.34" r=".03" transform="rotate(-30.85 56.21 26.332)"/><circle class="cls-21" cx="56.13" cy="26.22" r=".03" transform="rotate(-30.95 56.13 26.215)"/><circle class="cls-21" cx="56.06" cy="26.1" r=".03" transform="rotate(-30.87 56.057 26.1)"/><circle class="cls-21" cx="55.99" cy="25.98" r=".03" transform="rotate(-30.86 55.976 25.977)"/><circle class="cls-21" cx="55.92" cy="25.87" r=".03" transform="rotate(-30.87 55.908 25.863)"/><circle class="cls-21" cx="55.85" cy="25.74" r=".02" transform="rotate(-30.89 55.862 25.738)"/><circle class="cls-21" cx="56.58" cy="26.77" r=".03" transform="rotate(-31.07 56.578 26.772)"/><circle class="cls-21" cx="56.51" cy="26.65" r=".03" transform="rotate(-30.88 56.507 26.654)"/><circle class="cls-21" cx="56.44" cy="26.53" r=".03" transform="rotate(-30.96 56.448 26.538)"/><circle class="cls-21" cx="56.37" cy="26.42" r=".03" transform="rotate(-30.87 56.36 26.417)"/><circle class="cls-21" cx="56.3" cy="26.3" r=".03" transform="rotate(-30.77 56.309 26.304)"/><circle class="cls-21" cx="56.23" cy="26.18" r=".03" transform="rotate(-30.87 56.228 26.186)"/><circle class="cls-21" cx="56.15" cy="26.06" r=".02" transform="rotate(-30.79 56.137 26.065)"/><circle class="cls-21" cx="56.5" cy="26.38" r=".03" transform="rotate(-30.87 56.506 26.38)"/><circle class="cls-21" cx="56.43" cy="26.26" r=".03" transform="rotate(-30.87 56.423 26.259)"/><circle class="cls-21" cx="56.36" cy="26.14" r=".03" transform="rotate(-30.96 56.362 26.145)"/><circle class="cls-21" cx="56.29" cy="26.03" r=".03" transform="rotate(-30.95 56.299 26.028)"/><circle class="cls-21" cx="56.22" cy="25.91" r=".03" transform="rotate(-30.87 56.208 25.907)"/><circle class="cls-21" cx="56.15" cy="25.79" r=".03" transform="rotate(-30.95 56.15 25.793)"/><circle class="cls-21" cx="56.08" cy="25.67" r=".02" transform="rotate(-31.01 56.079 25.67)"/><circle class="cls-21" cx="54.38" cy="27.58" r=".03" transform="rotate(-30.95 54.373 27.576)"/><circle class="cls-21" cx="54.31" cy="27.47" r=".03" transform="rotate(-30.77 54.306 27.473)"/><circle class="cls-21" cx="54.24" cy="27.35" r=".03" transform="rotate(-30.87 54.231 27.35)"/><circle class="cls-21" cx="54.17" cy="27.23" r=".03" transform="rotate(-30.95 54.177 27.23)"/><circle class="cls-21" cx="54.1" cy="27.12" r=".03" transform="rotate(-30.77 54.109 27.125)"/><circle class="cls-21" cx="54.03" cy="27" r=".03" transform="rotate(-30.87 54.034 27.003)"/><circle class="cls-21" cx="53.95" cy="26.88" r=".02" transform="rotate(-30.91 53.95 26.869)"/><circle class="cls-21" cx="56.37" cy="28.87" r=".03" transform="rotate(-31.06 56.367 28.863)"/><circle class="cls-21" cx="56.3" cy="28.76" r=".03" transform="rotate(-30.77 56.297 28.763)"/><circle class="cls-21" cx="56.23" cy="28.64" r=".03" transform="rotate(-30.95 56.238 28.636)"/><circle class="cls-21" cx="56.16" cy="28.52" r=".03" transform="rotate(-30.87 56.149 28.522)"/><circle class="cls-21" cx="56.09" cy="28.41" r=".03" transform="rotate(-30.85 56.087 28.405)"/><circle class="cls-21" cx="56.02" cy="28.29" r=".03" transform="rotate(-30.95 56.024 28.285)"/><circle class="cls-21" cx="55.95" cy="28.16" r=".02" transform="rotate(-30.89 55.953 28.16)"/><circle class="cls-21" cx="57.06" cy="31.55" r=".03" transform="rotate(-30.95 57.047 31.544)"/><circle class="cls-21" cx="56.99" cy="31.44" r=".03" transform="rotate(-30.86 56.982 31.441)"/><circle class="cls-21" cx="56.92" cy="31.32" r=".03" transform="rotate(-30.93 56.922 31.313)"/><circle class="cls-21" cx="56.85" cy="31.2" r=".03" transform="rotate(-30.96 56.849 31.198)"/><circle class="cls-21" cx="56.78" cy="31.09" r=".03" transform="rotate(-30.77 56.772 31.083)"/><circle class="cls-21" cx="56.71" cy="30.97" r=".03" transform="rotate(-30.95 56.702 30.962)"/><circle class="cls-21" cx="56.63" cy="30.85" r=".02" transform="rotate(-30.89 56.634 30.84)"/><circle class="cls-21" cx="58.9" cy="30.3" r=".03" transform="rotate(-31.04 58.9 30.3)"/><circle class="cls-21" cx="58.83" cy="30.18" r=".03" transform="rotate(-30.94 58.825 30.187)"/><circle class="cls-21" cx="58.76" cy="30.07" r=".03" transform="rotate(-30.95 58.757 30.073)"/><circle class="cls-21" cx="58.69" cy="29.95" r=".03" transform="matrix(.86 -.52 .52 .86 -7.04 34.56)"/><circle class="cls-21" cx="58.62" cy="29.83" r=".03" transform="rotate(-30.95 58.626 29.842)"/><circle class="cls-21" cx="58.55" cy="29.72" r=".03" transform="rotate(-30.95 58.543 29.722)"/><circle class="cls-21" cx="58.48" cy="29.59" r=".02" transform="rotate(-31.02 58.48 29.599)"/><circle class="cls-21" cx="57.17" cy="30.68" r=".04" transform="rotate(-30.7 57.806 30.849)"/><circle class="cls-21" cx="57.08" cy="30.54" r=".04" transform="rotate(-30.92 57.08 30.538)"/><circle class="cls-21" cx="57.02" cy="30.43" r=".04" transform="rotate(-30.85 57.01 30.434)"/><circle class="cls-21" cx="56.95" cy="30.32" r=".04" transform="rotate(-30.85 56.962 30.323)"/><circle class="cls-21" cx="56.89" cy="30.21" r=".04" transform="rotate(-30.93 56.876 30.21)"/><circle class="cls-21" cx="56.79" cy="30.05" r=".03" transform="rotate(-30.87 56.782 30.041)"/><circle class="cls-21" cx="56.72" cy="29.93" r=".03" transform="rotate(-30.95 56.715 29.935)"/><circle class="cls-21" cx="56.65" cy="29.82" r=".03" transform="rotate(-30.95 56.65 29.82)"/><circle class="cls-21" cx="56.58" cy="29.7" r=".03" transform="rotate(-30.95 56.584 29.704)"/><circle class="cls-21" cx="56.51" cy="29.58" r=".03" transform="rotate(-30.7 57.057 29.721)"/><circle class="cls-21" cx="56.44" cy="29.47" r=".03" transform="rotate(-30.93 56.44 29.467)"/><circle class="cls-21" cx="56.37" cy="29.35" r=".03" transform="rotate(-30.96 56.368 29.354)"/><circle class="cls-21" cx="56.3" cy="29.22" r=".02" transform="rotate(-31.01 56.296 29.224)"/><circle class="cls-21" cx="55.88" cy="29.44" r=".04" transform="rotate(-30.93 55.88 29.449)"/><circle class="cls-21" cx="55.8" cy="29.3" r=".04" transform="rotate(-30.7 56.293 29.433)"/><circle class="cls-21" cx="55.73" cy="29.2" r=".04" transform="rotate(-30.85 55.73 29.203)"/><circle class="cls-21" cx="55.67" cy="29.09" r=".04" transform="rotate(-30.7 56.156 29.22)"/><circle class="cls-21" cx="55.6" cy="28.98" r=".04" transform="rotate(-30.91 55.587 28.976)"/><circle class="cls-21" cx="55.5" cy="28.81" r=".03" transform="rotate(-30.85 55.507 28.81)"/><circle class="cls-21" cx="55.43" cy="28.7" r=".03" transform="rotate(-30.95 55.423 28.702)"/><circle class="cls-21" cx="55.36" cy="28.58" r=".03" transform="rotate(-30.94 55.36 28.586)"/><circle class="cls-21" cx="55.29" cy="28.46" r=".03" transform="rotate(-30.95 55.292 28.472)"/><circle class="cls-21" cx="55.22" cy="28.35" r=".03" transform="rotate(-30.95 55.227 28.356)"/><circle class="cls-21" cx="55.15" cy="28.23" r=".03" transform="rotate(-31.03 55.17 28.235)"/><circle class="cls-21" cx="55.08" cy="28.11" r=".03" transform="rotate(-30.7 55.636 28.253)"/><circle class="cls-21" cx="55.01" cy="27.99" r=".02" transform="rotate(-31.02 55.006 27.994)"/><path class="cls-9" d="M55 28.86s.38-.77 1 .26a1.32 1.32 0 0 1-.34 1.47s-1.32-.71-.66-1.73z"/><path class="cls-3" d="M54.25 27.74l-.64.1.65.08.17.76.08-.72.64-.23-.67-.03-.22-.63-.01.67zM58.12 29.78l-.28.04.29.04.07.33.04-.31.28-.11-.3-.01-.09-.28-.01.3zM56.45 25.35l-.28.04.29.04.07.34.04-.32.28-.1-.3-.02-.09-.28-.01.3zM53.71 27.18l-.28.05.29.03.07.34.04-.32.28-.1-.3-.02-.09-.27-.01.29z"/><path class="cls-22" d="M52.23 19.67s.87-.59 1 .56c0 0 0 .34.07.68a1.45 1.45 0 0 1-1.07-1.24z"/><path class="cls-3" d="M69.98 27.21L80.1.64l22.1 8.24-10.21 26.71-22.01-8.38z"/><path class="cls-10" d="M80.39 1.28l21.17 7.89-9.86 25.78-21.08-8 9.77-25.67M79.81 0l-.35.93-9.77 25.64-.36.93.93.36 21.08 8 .93.36.36-.93 9.85-25.77.36-.94-.94-.35L80.74.35 79.81 0z"/><path class="cls-23" d="M73.62 21.82l19.35 7.32 7.32-19.35-19.38-7.26-7.29 19.29z"/><path class="cls-24" d="M87.57 26.53S86.84 27 87 26a.24.24 0 0 1-.18-.29.71.71 0 0 1 .38-.41 3.7 3.7 0 0 0-.2-2.7l-1.34 3.78-4.41-1.67L82.67 21c-.67.19-1.26.67-2 2 0 0 .13.4 0 .55a.24.24 0 0 1-.32.1c-.51.83-.77 0-.77 0-.59-.3-.17-1 0-1.2a5.1 5.1 0 0 1 2.71-2.58 5.9 5.9 0 0 1 3.45.18c1.71.63 1.79 1 1.79 1l-.08.21a2.07 2.07 0 0 1 .42.62 5.1 5.1 0 0 1 .4 3.72c.04.3-.06 1.08-.7.93z"/><path class="cls-25" d="M80.9 13.68A9 9 0 0 1 84.46 9l-.07.41A3.51 3.51 0 0 1 86 8.14a7.93 7.93 0 0 0-.33.73 3.91 3.91 0 0 1 1.78-1.14l-.23.64a4.62 4.62 0 0 1 1.54-.94 5 5 0 0 0-.27.71 3.31 3.31 0 0 1 .91-.74v.77a7.39 7.39 0 0 1 .48-1 11.89 11.89 0 0 1 .36 1.27l.14-.67a6.43 6.43 0 0 1 .91 1.9l.17-.52a8 8 0 0 1 .54 1.54l.17-.58a6.34 6.34 0 0 1 .62 1.89l.07-.43a9.27 9.27 0 0 1 .35 6.28c0 .12-.07.23-.11.34-1 2.77-4 4.06-7.89 2.63s-5.17-4-4.46-6.65l.15-.44z"/><path class="cls-26" d="M83.61 12.26a3.1 3.1 0 0 1 1.39-.71 8.68 8.68 0 0 1 1.2-.23c1-.13 2.36-.26 2.78-1-.15.83.81 1.83 1.48 2.56a8.68 8.68 0 0 1 .76 1 3.8 3.8 0 0 1 .57 1.41c.24 1.6-1.57 6.15-6.24 4.43-4.72-1.72-3.17-6.26-1.94-7.46z"/><circle class="cls-27" cx="88.93" cy="14.6" r=".46" transform="rotate(-69.83 88.935 14.605)"/><circle class="cls-27" cx="86.25" cy="13.62" r=".46" transform="rotate(-69.83 86.25 13.615)"/><circle class="cls-28" cx="87.21" cy="15.04" r=".27" transform="rotate(-69.83 87.205 15.038)"/><path class="cls-25" d="M93 14.79a8 8 0 0 1 5.86-2.59 9.39 9.39 0 0 1-1.31 2.55l.36-.11s-2.08 5.06-6 4.14z"/><path class="cls-29" d="M93.44 16.25s1.4-2.06 3.24-2.15a4.12 4.12 0 0 1-3.55 3.37l1.37-1-1.24.28 1.12-.75z"/><path class="cls-25" d="M82.94 11.11a8 8 0 0 0-2.79-5.77 9.39 9.39 0 0 0-.65 2.79l-.2-.32s-1.7 5.19 1.91 7.06z"/><path class="cls-29" d="M81.62 11.91s.15-2.65-1.2-3.91a4.53 4.53 0 0 0 .64 5l-.42-1.63.76 1-.34-1.31z"/><path class="cls-28" d="M87.91 16.37a1.39 1.39 0 0 1-2.14-.79z"/></g></g></svg>